#VRML V2.0 utf8
# 3D model generated by easyeda2kicad.py (https://github.com/uPesy/easyeda2kicad.py)

Shape{
    appearance Appearance {
        material  Material 	{
            diffuseColor 0.7529411764705882 0.7529411764705882 0.7529411764705882
            specularColor 0.3764705882352941 0.3764705882352941 0.3764705882352941
            ambientIntensity 0.2
            transparency 0
            shininess 0.5
        }
    }
    geometry IndexedFaceSet {
        ccw TRUE
        solid FALSE
        coord DEF co Coordinate {
            point [
                -1.0276 -0.9629 0.2438, -1.0276 -0.8618 0.3449, -1.126 -0.9629 0.2438, -1.126 -0.8618 0.3449, -1.126 -0.8618 1.0536, -1.0276 -0.8618 1.0536, -1.126 0.351 1.0536, -1.0276 0.351 1.0536, -1.126 0.351 1.1339, -1.0276 0.351 1.1339, -1.126 0.4297 1.2126, -1.0276 0.4297 1.2126, -1.126 0.6246 1.2126, -1.0276 0.6246 1.2126, -1.0276 0.6428 1.2082, -1.0276 0.6815 1.188, -1.126 0.6428 1.2082, -1.126 0.6815 1.188, -1.0276 0.7028 1.1531, -1.0276 0.7028 0.6824, -1.126 0.7028 1.1531, -1.126 0.7028 0.6824, -1.0276 0.6819 0.6476, -1.0276 0.6634 0.6378, -1.126 0.6819 0.6476, -1.126 0.6634 0.6378, -1.126 0.6634 0.1496, -1.0276 0.6634 0.1496, -1.126 -0.2403 0.1496, -1.0276 -0.2403 0.1496, -1.126 -0.3917 0.0945, -1.0276 -0.3917 0.0945, -1.126 -0.9384 0.0945, -1.0276 -0.9384 0.0945, -1.126 -0.9744 0.216, -1.126 -0.9744 0.1305, -1.0276 -0.9744 0.216, -1.0276 -0.9744 0.1305, -1.126 0.7018 1.1616, -1.126 -0.9733 0.1211, -1.126 0.6887 1.1832, -1.126 0.7018 0.6739, -1.126 0.6991 0.6659, -1.126 0.6947 0.6586, -1.126 0.6889 0.6524, -1.126 -0.9567 0.099, -1.126 -0.9645 0.1044, -1.126 -0.9699 0.1122, -1.126 0.634 1.2115, -1.126 -0.9731 0.2262, -1.126 -0.9691 0.2357, -1.126 0.6946 1.1771, -1.126 0.6991 1.1697, -1.126 -0.9478 0.0956, -1.0276 0.6991 1.1697, -1.0276 0.6946 1.1771, -1.0276 0.6887 1.1832, -1.0276 0.634 1.2115, -1.0276 0.7018 1.1616, -1.0276 0.6889 0.6524, -1.0276 0.6947 0.6586, -1.0276 0.6991 0.6659, -1.0276 0.7018 0.6739, -1.0276 -0.9691 0.2357, -1.0276 -0.9733 0.1211, -1.0276 -0.9699 0.1122, -1.0276 -0.9731 0.2262, -1.0276 -0.9645 0.1044, -1.0276 -0.9567 0.099, -1.0276 -0.9478 0.0956, 1.0276 -0.8618 0.3449, 1.0276 -0.9629 0.2438, 1.126 -0.8618 0.3449, 1.126 -0.9629 0.2438, 1.126 -0.8618 1.0536, 1.0276 -0.8618 1.0536, 1.126 0.351 1.0536, 1.0276 0.351 1.0536, 1.126 0.351 1.1339, 1.0276 0.351 1.1339, 1.126 0.4297 1.2126, 1.0276 0.4297 1.2126, 1.0276 0.6246 1.2126, 1.126 0.6246 1.2126, 1.0276 0.6815 1.188, 1.0276 0.6428 1.2082, 1.126 0.6815 1.188, 1.126 0.6428 1.2082, 1.0276 0.7028 0.6824, 1.0276 0.7028 1.1531, 1.126 0.7028 0.6824, 1.126 0.7028 1.1531, 1.0276 0.6634 0.6378, 1.0276 0.6819 0.6476, 1.126 0.6634 0.6378, 1.126 0.6819 0.6476, 1.126 0.6634 0.1496, 1.0276 0.6634 0.1496, 1.126 -0.2403 0.1496, 1.0276 -0.2403 0.1496, 1.126 -0.3917 0.0945, 1.0276 -0.3917 0.0945, 1.126 -0.9384 0.0945, 1.0276 -0.9384 0.0945, 1.126 -0.9744 0.1305, 1.126 -0.9744 0.216, 1.0276 -0.9744 0.1305, 1.0276 -0.9744 0.216, 1.126 0.7018 0.6739, 1.126 0.634 1.2115, 1.126 0.7018 1.1616, 1.126 0.6887 1.1832, 1.126 0.6889 0.6524, 1.126 0.6991 1.1697, 1.126 0.6946 1.1771, 1.126 0.6947 0.6586, 1.126 0.6991 0.6659, 1.126 -0.9691 0.2357, 1.126 -0.9733 0.1211, 1.126 -0.9699 0.1122, 1.126 -0.9731 0.2262, 1.126 -0.9645 0.1044, 1.126 -0.9567 0.099, 1.126 -0.9478 0.0956, 1.0276 -0.9733 0.1211, 1.0276 0.6991 0.6659, 1.0276 0.7018 0.6739, 1.0276 0.634 1.2115, 1.0276 0.6887 1.1832, 1.0276 0.6946 1.1771, 1.0276 0.7018 1.1616, 1.0276 0.6991 1.1697, 1.0276 0.6947 0.6586, 1.0276 0.6889 0.6524, 1.0276 -0.9567 0.099, 1.0276 -0.9645 0.1044, 1.0276 -0.9699 0.1122, 1.0276 -0.9731 0.2262, 1.0276 -0.9691 0.2357, 1.0276 -0.9478 0.0956, 1.0276 -0.9478 0.0956
            ]
        }
        coordIndex [
            0,1,2,-1,2,1,3,-1,4,3,5,-1,5,3,1,-1,6,4,7,-1,7,4,5,-1,8,6,9,-1,9,6,7,-1,10,8,11,-1,11,8,9,-1,12,10,13,-1,13,10,11,-1,14,15,16,-1,16,15,17,-1,18,19,20,-1,20,19,21,-1,22,23,24,-1,24,23,25,-1,26,25,27,-1,27,25,23,-1,28,26,29,-1,29,26,27,-1,30,28,31,-1,31,28,29,-1,32,30,33,-1,33,30,31,-1,34,35,36,-1,36,35,37,-1,38,20,8,-1,25,4,24,-1,24,4,6,-1,39,35,32,-1,8,17,40,-1,41,42,6,-1,25,26,4,-1,4,26,28,-1,4,28,3,-1,8,10,12,-1,8,20,6,-1,6,20,21,-1,6,21,41,-1,42,43,6,-1,6,43,44,-1,6,44,24,-1,32,35,30,-1,45,46,47,-1,12,48,8,-1,8,48,16,-1,8,16,17,-1,49,50,28,-1,28,50,2,-1,28,2,3,-1,40,51,8,-1,8,51,52,-1,8,52,38,-1,39,32,47,-1,47,32,53,-1,47,53,45,-1,30,35,28,-1,28,35,34,-1,28,34,49,-1,33,31,29,-1,54,55,56,-1,23,22,7,-1,19,14,57,-1,11,9,13,-1,13,9,7,-1,7,5,23,-1,23,5,29,-1,23,29,27,-1,14,19,15,-1,15,19,18,-1,15,18,56,-1,56,18,58,-1,56,58,54,-1,22,59,7,-1,7,59,60,-1,7,60,61,-1,57,13,19,-1,19,13,7,-1,19,7,62,-1,62,7,61,-1,5,1,29,-1,29,1,0,-1,29,0,63,-1,29,37,33,-1,33,37,64,-1,33,64,65,-1,63,66,29,-1,29,66,36,-1,29,36,37,-1,67,68,65,-1,65,68,69,-1,65,69,33,-1,12,13,57,-1,12,57,48,-1,48,57,14,-1,48,14,16,-1,17,15,56,-1,17,56,40,-1,40,56,55,-1,40,55,51,-1,51,55,54,-1,51,54,52,-1,52,54,58,-1,52,58,38,-1,38,58,18,-1,38,18,20,-1,21,19,62,-1,21,62,41,-1,41,62,61,-1,41,61,42,-1,42,61,60,-1,42,60,43,-1,43,60,59,-1,43,59,44,-1,44,59,22,-1,44,22,24,-1,34,36,66,-1,34,66,49,-1,49,66,63,-1,49,63,50,-1,50,63,0,-1,50,0,2,-1,32,33,69,-1,32,69,53,-1,53,69,68,-1,53,68,45,-1,45,68,67,-1,45,67,46,-1,46,67,65,-1,46,65,47,-1,47,65,64,-1,47,64,39,-1,39,64,37,-1,39,37,35,-1,70,71,72,-1,72,71,73,-1,72,74,70,-1,70,74,75,-1,74,76,75,-1,75,76,77,-1,76,78,77,-1,77,78,79,-1,78,80,79,-1,79,80,81,-1,82,81,83,-1,83,81,80,-1,84,85,86,-1,86,85,87,-1,88,89,90,-1,90,89,91,-1,92,93,94,-1,94,93,95,-1,94,96,92,-1,92,96,97,-1,96,98,97,-1,97,98,99,-1,98,100,99,-1,99,100,101,-1,100,102,101,-1,101,102,103,-1,104,105,106,-1,106,105,107,-1,108,90,76,-1,83,80,78,-1,102,100,98,-1,87,109,83,-1,76,90,78,-1,78,90,91,-1,78,91,110,-1,87,83,86,-1,86,83,78,-1,86,78,111,-1,96,94,98,-1,98,94,74,-1,74,94,76,-1,76,94,95,-1,76,95,112,-1,110,113,78,-1,78,113,114,-1,78,114,111,-1,112,115,76,-1,76,115,116,-1,76,116,108,-1,74,72,98,-1,98,72,73,-1,98,73,117,-1,98,104,102,-1,102,104,118,-1,102,118,119,-1,117,120,98,-1,98,120,105,-1,98,105,104,-1,121,122,119,-1,119,122,123,-1,119,123,102,-1,89,88,84,-1,84,88,85,-1,92,75,93,-1,93,75,77,-1,124,106,103,-1,125,77,126,-1,126,77,88,-1,92,97,75,-1,75,97,99,-1,75,99,70,-1,79,81,77,-1,77,81,82,-1,77,82,88,-1,88,82,127,-1,88,127,85,-1,84,128,89,-1,89,128,129,-1,89,129,130,-1,130,129,131,-1,125,132,77,-1,77,132,133,-1,77,133,93,-1,103,106,101,-1,134,135,136,-1,137,138,99,-1,99,138,71,-1,99,71,70,-1,124,103,136,-1,136,103,139,-1,136,139,134,-1,101,106,99,-1,99,106,107,-1,99,107,137,-1,87,85,127,-1,87,127,109,-1,109,127,82,-1,109,82,83,-1,91,89,130,-1,91,130,110,-1,110,130,131,-1,110,131,113,-1,113,131,129,-1,113,129,114,-1,114,129,128,-1,114,128,111,-1,111,128,84,-1,111,84,86,-1,95,93,133,-1,95,133,112,-1,112,133,132,-1,112,132,115,-1,115,132,125,-1,115,125,116,-1,116,125,126,-1,116,126,108,-1,108,126,88,-1,108,88,90,-1,73,71,138,-1,73,138,117,-1,117,138,137,-1,117,137,120,-1,120,137,107,-1,120,107,105,-1,121,135,134,-1,121,134,122,-1,122,134,139,-1,122,139,123,-1,123,139,103,-1,123,103,102,-1,104,106,124,-1,104,124,118,-1,118,124,136,-1,118,136,119,-1,119,136,135,-1,119,135,121,-1,
        ]
    }
}
Shape{
    appearance Appearance {
        material  Material 	{
            diffuseColor 0.2 0.2 0.2
            specularColor 0.3 0.3 0.3
            ambientIntensity 0.2
            transparency 0
            shininess 0.5
        }
    }
    geometry IndexedFaceSet {
        ccw TRUE
        solid FALSE
        coord DEF co Coordinate {
            point [
                -1.2402 0.4626 0.2598, -1.2402 -0.9941 0.2598, -1.2402 0.4626 0.2599, -1.2402 -0.9941 1.3307, -1.2402 0.4626 1.1573, -1.2402 0.4626 1.3307, -1.0276 -0.9744 0.2598, -1.0276 -0.9941 0.2598, -1.126 -0.9744 0.2598, -1.126 0.4626 0.2598, -1.126 0.4626 1.1573, -1.126 0.4626 1.2835, -1.126 -0.9744 1.2835, -1.126 0.4626 0.2599, 0.0279 -0.2229 0.1299, 0.0279 -0.0261 0.1299, 0.0663 -0.0579 0.1299, 0.0663 -0.0315 0.1299, 0.0886 -0.0484 0.1299, 0.1124 -0.0453 0.1299, 0.1222 -0.0481 0.1299, 0.0015 -0.1341 0.1299, 0.0015 -0.2013 0.1299, -0.0681 -0.1341 0.1299, -0.0777 -0.2013 0.1299, 0.0663 -0.1911 0.1299, 0.0907 -0.2008 0.1299, 0.1169 -0.2037 0.1299, 0.0015 -0.0477 0.1299, 0.0015 -0.1125 0.1299, -0.0729 -0.0477 0.1299, -0.0681 -0.1125 0.1299, 0.1664 -0.0687 0.1299, 0.1733 -0.0768 0.1299, 0.1389 -0.1986 0.1299, 0.1786 -0.0872 0.1299, 0.1829 -0.1025 0.1299, 0.1864 -0.1266 0.1299, 0.1817 -0.1505 0.1299, 0.1527 -0.1934 0.1299, -0.0969 -0.0249 0.1299, 0.0949 -0.0249 0.1299, 0.0891 -0.0253 0.1299, -0.0969 -0.9941 0.1299, -0.0777 -0.2229 0.1299, -0.0729 -0.0261 0.1299, 0.1545 -0.0604 0.1299, 0.1748 -0.1712 0.1299, 0.1681 -0.1817 0.1299, 0.1621 -0.1877 0.1299, 0.0663 -0.2127 0.1299, 0.304 -0.0261 0.1299, 0.2047 -0.0839 0.1299, 0.195 -0.0646 0.1299, 0.0927 -0.2225 0.1299, 0.1205 -0.2253 0.1299, 0.1361 -0.2212 0.1299, 0.1733 -0.2077 0.1299, 0.2296 -0.2229 0.1299, 1.0276 -0.9941 0.1299, 0.3304 -0.2229 0.1299, 1.0276 -0.0249 0.1299, 0.3304 -0.0261 0.1299, 0.1198 -0.0249 0.1299, 0.1422 -0.0286 0.1299, 0.304 -0.2013 0.1299, 0.2128 -0.1282 0.1299, 0.2112 -0.114 0.1299, 0.1806 -0.0481 0.1299, 0.1648 -0.0369 0.1299, 0.1875 -0.198 0.1299, 0.1961 -0.1883 0.1299, 0.2296 -0.2013 0.1299, 0.2026 -0.1758 0.1299, 0.2081 -0.1574 0.1299, 1.0276 0.4626 0.1299, 0.5463 0.4626 0.1299, 0.2411 0.4626 0.1299, 0.1526 0.4626 0.1299, -0.3898 -0.0261 0.1299, -0.4666 -0.2229 0.1299, -1.0276 -0.9941 0.1299, -1.0276 -0.0249 0.1299, -0.3634 -0.0261 0.1299, -0.1696 -0.2229 0.1299, -0.1161 -0.2229 0.1299, -0.4179 -0.1677 0.1299, -0.3366 -0.1677 0.1299, -0.4378 -0.2229 0.1299, -0.3178 -0.2229 0.1299, -0.201 -0.2184 0.1299, -0.289 -0.2229 0.1299, -0.2639 -0.1701 0.1299, -0.2545 -0.1858 0.1299, -0.2203 -0.0359 0.1299, -0.2386 -0.0462 0.1299, -0.2536 -0.0601 0.1299, -0.2632 -0.0747 0.1299, -0.27 -0.0943 0.1299, -0.2746 -0.122 0.1299, -0.271 -0.1469 0.1299, -0.2416 -0.1991 0.1299, -0.2242 -0.2105 0.1299, -0.1161 -0.0261 0.1299, -0.1717 -0.0261 0.1299, -0.1937 -0.0288 0.1299, -1.0276 0.4626 0.1299, -0.935 0.4626 0.1299, -0.5463 0.4626 0.1299, -0.2411 0.4626 0.1299, 0.1127 -0.0237 0.1299, -0.0969 0.4626 0.1299, -0.1526 0.4626 0.1299, -0.9055 -0.935 1.0059, -0.9055 0.1476 1.0059, -0.9055 -0.935 1.124, -0.9055 0.1476 1.124, 0.9055 0.1476 0.3366, 0.9055 -0.935 0.3366, 0.9055 0.1476 0.388, 0.9055 -0.935 0.7303, 0.9055 0.1476 0.7164, 0.9055 0.1476 0.7303, 1.0276 -0.9941 0.2598, 1.0276 -0.9744 0.2598, 1.126 -0.9744 0.2598, 1.126 0.4626 0.2598, 1.2402 0.4626 0.2598, 1.2402 -0.9941 0.2598, 1.0276 0.6594 1.2126, 1.0276 0.6594 0.1693, 0.6791 0.6594 1.2126, 0.6791 0.6594 0.1693, 0.6398 0.5913 0.1693, 1.0276 0.4626 0.1693, 0.6398 0.4626 0.1693, 0.1083 0.6594 1.2126, 0.1083 0.6594 0.1693, -0.1083 0.6594 1.2126, -0.1083 0.6594 0.1693, -0.2854 0.6594 1.2126, -0.2854 0.6594 0.1693, -0.502 0.6594 1.2126, -0.502 0.6594 0.1693, -0.1476 0.5913 0.1693, 0.1476 0.5913 0.1693, -0.1476 0.4626 0.1693, 0.1476 0.4626 0.1693, -0.5413 0.5913 0.1693, -0.2461 0.5913 0.1693, -0.5413 0.4626 0.1693, -0.2461 0.4626 0.1693, 0.502 0.6594 1.2126, 0.502 0.6594 0.1693, 0.2854 0.6594 1.2126, 0.2854 0.6594 0.1693, 0.2461 0.5913 0.1693, 0.5413 0.5913 0.1693, 0.2461 0.4626 0.1693, 0.5413 0.4626 0.1693, -0.6791 0.6594 1.2126, -0.6791 0.6594 0.1693, -1.0276 0.6594 1.2126, -1.0276 0.6594 0.1693, 1.2402 0.4626 1.1573, 1.2402 0.4626 1.3307, 1.2402 -0.9941 1.3307, 1.2402 0.4626 0.2599, 0.5463 0.4626 1.3307, 0.2411 0.4626 1.3307, 0.1526 0.4626 1.3307, -0.1526 0.4626 1.3307, -0.2411 0.4626 1.3307, -0.5463 0.4626 1.3307, -0.935 0.4626 1.3307, 0.9646 -0.9941 1.1831, 0.9646 -0.9941 1.065, 1.0827 -0.9941 1.065, -1.0827 -0.9941 0.6713, -1.0827 -0.9941 1.065, -0.9646 -0.9941 1.065, -0.9646 -0.9941 1.1831, -0.9646 -0.9941 0.2776, 0.9646 -0.9941 0.2776, 1.0827 -0.9941 0.6713, 0.9646 -0.9941 0.6713, -0.9646 -0.9941 0.6713, -1.0276 0.4626 1.2126, -1.0276 0.4626 0.1693, -1.0276 -0.9744 1.2835, -1.0276 0.4626 1.2835, 1.0276 0.4626 1.2126, 1.0276 0.4626 1.2835, 1.0276 -0.9744 1.2835, -0.935 0.4626 0.1693, -0.6398 0.5913 0.1693, -0.6398 0.4626 0.1693, -0.2411 0.4626 0.2599, 0.1526 0.4626 0.2599, -0.2461 0.4626 0.2599, -0.2461 0.4626 1.1573, 0.6398 0.4626 1.2126, 0.6398 0.4626 1.1573, 0.5463 0.4626 1.1573, -0.5463 0.4626 0.2599, -0.6398 0.4626 0.2599, 0.6398 0.4626 0.2599, 0.5463 0.4626 0.2599, 0.5512 0.4626 1.102, 0.5512 0.4626 0.3504, 1.126 0.4626 1.1573, 1.126 0.4626 1.2835, 1.126 0.4626 0.2599, -0.935 0.4626 1.2126, -0.6398 0.4626 1.2126, -0.6398 0.4626 1.1573, -0.6299 0.4626 1.102, -0.6299 0.4626 0.3504, -0.5512 0.4626 1.102, -0.5463 0.4626 1.1573, -0.5512 0.4626 0.3504, 0.5413 0.4626 1.2126, 0.6299 0.4626 1.102, 0.6299 0.4626 0.3504, 0.5413 0.4626 1.1573, 0.2461 0.4626 1.2126, 0.2461 0.4626 1.1573, 0.2411 0.4626 1.1573, 0.2461 0.4626 0.2599, 0.2411 0.4626 0.2599, 0.1476 0.4626 1.2126, -0.1476 0.4626 1.2126, -0.1476 0.4626 1.1573, -0.1526 0.4626 1.1573, -0.1476 0.4626 0.2599, -0.1526 0.4626 0.2599, -0.2461 0.4626 1.2126, -0.5413 0.4626 1.2126, -0.5413 0.4626 1.1573, -0.5413 0.4626 0.2599, 0.5413 0.4626 0.2599, 0.1476 0.4626 0.2599, 0.1476 0.4626 1.1573, 0.1526 0.4626 1.1573, 0.1575 0.4626 0.3504, 0.2362 0.4626 0.3504, 0.2362 0.4626 1.102, 0.1575 0.4626 1.102, -0.2411 0.4626 1.1573, -0.2362 0.4626 0.3504, -0.1575 0.4626 0.3504, -0.1575 0.4626 1.102, -0.2362 0.4626 1.102, 0.2461 0.5913 1.2126, 0.1476 0.5913 1.2126, -0.5413 0.5913 1.2126, -0.6398 0.5913 1.2126, -0.1476 0.5913 1.2126, -0.2461 0.5913 1.2126, 0.6398 0.5913 1.2126, 0.5413 0.5913 1.2126, 1.126 -0.9744 1.2835, -0.9055 0.1476 0.7164, -0.9055 0.1476 0.7303, -0.9055 -0.935 0.7303, -0.9055 0.1476 0.388, -0.9055 -0.935 0.3366, -0.9055 0.1476 0.3366, 0.8268 0.1476 1.124, 0.9055 0.1476 1.124, 0.9055 -0.935 1.124, -0.3937 0.1476 1.124, 0.0 0.1476 1.124, 0.3937 0.1476 1.124, 0.9055 -0.935 1.0059, 0.9055 0.1476 1.0059, 0.8268 0.1476 0.3366, 0.3937 0.1476 0.3366, 0.0 0.1476 0.3366, -0.3937 0.1476 0.3366, 1.0236 0.1476 0.7303, 1.0236 0.1476 1.0059, 0.8268 0.1476 0.7164, 0.8268 0.1476 0.388, -0.3937 0.1476 0.388, -0.5512 0.1476 0.4395, -0.6299 0.1476 0.4395, -0.6299 0.1476 0.618, -0.5512 0.1476 0.618, -0.3937 0.1476 0.7164, -1.0236 0.1476 1.0059, -1.0236 0.1476 0.7303, -0.6299 0.1476 0.8148, -0.6299 0.1476 0.9722, -0.5512 0.1476 0.9722, -0.5512 0.1476 0.8148, 0.3937 0.1476 0.388, 0.0 0.1476 0.388, -0.1575 0.1476 0.618, 0.0 0.1476 0.7164, -0.2362 0.1476 0.618, -0.2362 0.1476 0.4395, -0.1575 0.1476 0.4395, 0.2362 0.1476 0.618, 0.3937 0.1476 0.7164, 0.1575 0.1476 0.618, 0.1575 0.1476 0.4395, 0.2362 0.1476 0.4395, 0.6299 0.1476 0.618, 0.5512 0.1476 0.618, 0.5512 0.1476 0.4395, 0.6299 0.1476 0.4395, -0.1575 0.1476 0.9722, -0.2362 0.1476 0.9722, -0.2362 0.1476 0.8148, -0.1575 0.1476 0.8148, 0.2362 0.1476 0.9722, 0.1575 0.1476 0.9722, 0.1575 0.1476 0.8148, 0.2362 0.1476 0.8148, 0.6299 0.1476 0.9722, 0.5512 0.1476 0.9722, 0.5512 0.1476 0.8148, 0.6299 0.1476 0.8148, 1.0236 -0.935 0.7303, 1.0236 -0.935 1.0059, -1.0236 -0.935 1.0059, -1.0236 -0.935 0.7303, -1.0236 -0.935 0.7303
            ]
        }
        coordIndex [
            0,1,2,-1,2,1,3,-1,2,3,4,-1,4,3,5,-1,6,7,8,-1,8,7,1,-1,8,1,9,-1,9,1,0,-1,10,11,12,-1,8,9,12,-1,12,9,13,-1,12,13,10,-1,14,15,16,-1,16,15,17,-1,18,19,20,-1,21,22,23,-1,23,22,24,-1,16,18,25,-1,25,18,20,-1,25,20,26,-1,26,20,27,-1,28,29,30,-1,30,29,31,-1,32,33,34,-1,34,33,35,-1,34,35,36,-1,36,37,34,-1,34,37,38,-1,34,38,39,-1,40,41,15,-1,15,41,42,-1,15,42,17,-1,43,44,14,-1,15,45,40,-1,40,45,30,-1,40,30,24,-1,24,30,31,-1,24,31,23,-1,27,20,34,-1,34,20,46,-1,34,46,32,-1,47,48,38,-1,38,48,49,-1,38,49,39,-1,16,25,14,-1,14,25,50,-1,14,50,43,-1,51,52,53,-1,50,54,43,-1,43,54,55,-1,43,55,56,-1,56,57,43,-1,43,57,58,-1,43,58,59,-1,59,58,60,-1,59,60,61,-1,61,60,62,-1,61,62,63,-1,63,62,51,-1,63,51,64,-1,65,66,51,-1,51,66,67,-1,51,67,52,-1,53,68,51,-1,51,68,69,-1,51,69,64,-1,57,70,58,-1,58,70,71,-1,58,71,72,-1,72,71,73,-1,72,73,65,-1,65,73,74,-1,65,74,66,-1,75,61,76,-1,76,61,63,-1,76,63,77,-1,77,63,78,-1,79,80,81,-1,81,82,79,-1,79,82,40,-1,79,40,83,-1,84,85,43,-1,43,85,40,-1,43,40,44,-1,44,40,24,-1,86,87,88,-1,88,87,89,-1,90,84,91,-1,91,84,43,-1,91,43,89,-1,89,43,81,-1,89,81,88,-1,88,81,80,-1,91,92,93,-1,94,95,83,-1,83,95,96,-1,83,96,97,-1,97,98,83,-1,83,98,99,-1,83,99,91,-1,91,99,100,-1,91,100,92,-1,93,101,91,-1,91,101,102,-1,91,102,90,-1,85,103,40,-1,40,103,104,-1,40,104,83,-1,83,104,105,-1,83,105,94,-1,82,106,107,-1,82,107,40,-1,40,107,108,-1,40,108,109,-1,63,110,78,-1,78,110,41,-1,78,41,111,-1,111,41,40,-1,111,40,112,-1,112,40,109,-1,113,114,115,-1,115,114,116,-1,117,118,119,-1,119,118,120,-1,119,120,121,-1,121,120,122,-1,123,124,125,-1,126,127,125,-1,125,127,128,-1,125,128,123,-1,129,130,131,-1,131,130,132,-1,132,130,133,-1,133,130,134,-1,133,134,135,-1,136,137,138,-1,138,137,139,-1,140,141,142,-1,142,141,143,-1,139,137,144,-1,144,137,145,-1,144,145,146,-1,146,145,147,-1,143,141,148,-1,148,141,149,-1,148,149,150,-1,150,149,151,-1,152,153,154,-1,154,153,155,-1,155,153,156,-1,156,153,157,-1,156,157,158,-1,158,157,159,-1,160,161,162,-1,162,161,163,-1,164,165,166,-1,128,127,166,-1,166,127,167,-1,166,167,164,-1,166,165,168,-1,168,169,166,-1,166,169,170,-1,166,170,3,-1,3,170,171,-1,3,171,172,-1,172,173,3,-1,3,173,174,-1,3,174,5,-1,175,176,177,-1,178,179,3,-1,179,180,3,-1,3,180,181,-1,3,181,166,-1,7,81,182,-1,182,81,43,-1,182,43,183,-1,183,43,59,-1,183,59,123,-1,181,175,166,-1,166,175,177,-1,166,177,128,-1,128,177,184,-1,128,184,123,-1,123,184,185,-1,123,185,183,-1,182,186,7,-1,7,186,178,-1,7,178,1,-1,1,178,3,-1,162,163,187,-1,187,163,188,-1,189,190,6,-1,6,190,187,-1,7,6,81,-1,81,6,187,-1,81,187,82,-1,82,187,188,-1,82,188,106,-1,130,129,134,-1,134,129,191,-1,75,134,61,-1,61,134,191,-1,61,191,59,-1,192,193,191,-1,191,193,124,-1,191,124,59,-1,59,124,123,-1,194,188,163,-1,163,161,194,-1,194,161,195,-1,194,195,196,-1,112,109,197,-1,77,78,198,-1,197,199,200,-1,201,202,203,-1,106,188,107,-1,107,188,194,-1,107,194,108,-1,108,194,196,-1,108,196,204,-1,204,196,205,-1,134,75,135,-1,135,75,76,-1,135,76,206,-1,206,76,207,-1,203,208,209,-1,210,211,165,-1,165,211,192,-1,165,192,168,-1,168,192,191,-1,168,191,201,-1,165,164,210,-1,210,164,167,-1,210,167,212,-1,212,167,127,-1,212,127,126,-1,4,13,2,-1,2,13,9,-1,2,9,0,-1,213,187,174,-1,174,187,190,-1,174,190,5,-1,5,190,11,-1,5,11,4,-1,4,11,10,-1,4,10,13,-1,213,174,214,-1,214,174,173,-1,214,173,215,-1,215,216,217,-1,218,219,220,-1,220,219,204,-1,220,204,217,-1,217,204,205,-1,217,205,215,-1,201,203,168,-1,168,203,221,-1,168,221,169,-1,208,203,222,-1,222,203,202,-1,222,202,223,-1,223,202,206,-1,223,206,209,-1,209,206,207,-1,209,207,203,-1,203,207,224,-1,203,224,221,-1,225,226,227,-1,227,226,228,-1,227,228,229,-1,229,228,158,-1,171,170,230,-1,231,232,233,-1,233,232,234,-1,233,234,235,-1,235,234,146,-1,173,172,236,-1,236,237,173,-1,173,237,219,-1,173,219,215,-1,215,219,218,-1,215,218,216,-1,199,197,151,-1,151,197,109,-1,151,109,150,-1,237,238,219,-1,219,238,239,-1,219,239,204,-1,204,239,150,-1,204,150,108,-1,108,150,109,-1,198,229,77,-1,77,229,158,-1,77,158,76,-1,76,158,159,-1,76,159,207,-1,207,159,240,-1,207,240,224,-1,197,235,112,-1,112,235,146,-1,112,146,78,-1,78,146,147,-1,78,147,198,-1,198,147,241,-1,198,241,242,-1,242,243,198,-1,198,243,244,-1,198,244,229,-1,229,244,245,-1,229,245,227,-1,227,245,246,-1,227,246,243,-1,243,246,247,-1,243,247,244,-1,200,248,197,-1,197,248,249,-1,197,249,235,-1,235,249,250,-1,235,250,233,-1,233,250,251,-1,233,251,248,-1,248,251,252,-1,248,252,249,-1,242,230,243,-1,243,230,170,-1,243,170,227,-1,227,170,169,-1,227,169,225,-1,225,169,221,-1,200,236,248,-1,248,236,172,-1,248,172,233,-1,233,172,171,-1,233,171,231,-1,231,171,230,-1,156,158,228,-1,156,228,253,-1,253,228,226,-1,253,226,225,-1,241,147,145,-1,241,145,242,-1,242,145,254,-1,242,254,230,-1,155,156,154,-1,154,156,253,-1,145,137,254,-1,254,137,136,-1,148,150,239,-1,148,239,255,-1,255,239,238,-1,255,238,237,-1,205,196,195,-1,205,195,215,-1,215,195,256,-1,215,256,214,-1,144,146,234,-1,144,234,257,-1,257,234,232,-1,257,232,231,-1,199,151,149,-1,199,149,200,-1,200,149,258,-1,200,258,236,-1,133,135,206,-1,133,206,259,-1,259,206,202,-1,259,202,201,-1,240,159,157,-1,240,157,224,-1,224,157,260,-1,224,260,221,-1,132,133,131,-1,131,133,259,-1,157,153,260,-1,260,153,152,-1,139,144,138,-1,138,144,257,-1,149,141,258,-1,258,141,140,-1,143,148,142,-1,142,148,255,-1,195,161,256,-1,256,161,160,-1,12,189,8,-1,8,189,6,-1,189,12,190,-1,190,12,11,-1,193,261,124,-1,124,261,125,-1,126,125,212,-1,212,125,261,-1,212,261,210,-1,210,261,211,-1,261,193,211,-1,211,193,192,-1,262,263,264,-1,262,264,265,-1,265,264,266,-1,265,266,267,-1,268,269,270,-1,116,271,115,-1,115,271,272,-1,115,272,270,-1,270,272,273,-1,270,273,268,-1,270,269,274,-1,274,269,275,-1,118,117,276,-1,276,277,118,-1,118,277,278,-1,118,278,266,-1,266,278,279,-1,266,279,267,-1,275,269,268,-1,280,281,122,-1,122,281,275,-1,275,268,122,-1,122,268,282,-1,122,282,121,-1,121,282,283,-1,121,283,119,-1,284,285,286,-1,287,262,286,-1,286,262,265,-1,286,265,284,-1,285,284,288,-1,288,284,289,-1,288,289,287,-1,290,291,263,-1,114,292,116,-1,116,292,293,-1,116,293,271,-1,271,293,294,-1,271,294,289,-1,289,294,295,-1,289,295,292,-1,287,289,262,-1,262,289,292,-1,262,292,263,-1,263,292,114,-1,263,114,290,-1,117,119,276,-1,276,119,283,-1,276,283,277,-1,277,283,296,-1,277,296,278,-1,278,296,297,-1,278,297,279,-1,279,297,284,-1,279,284,267,-1,267,284,265,-1,298,299,300,-1,300,299,289,-1,300,289,301,-1,301,289,284,-1,301,284,302,-1,302,284,297,-1,302,297,298,-1,298,297,299,-1,303,304,305,-1,305,304,299,-1,305,299,306,-1,306,299,297,-1,306,297,307,-1,307,297,296,-1,307,296,303,-1,303,296,304,-1,308,282,309,-1,309,282,304,-1,309,304,310,-1,310,304,296,-1,310,296,311,-1,311,296,283,-1,311,283,308,-1,308,283,282,-1,312,272,313,-1,313,272,271,-1,313,271,314,-1,314,271,289,-1,314,289,315,-1,315,289,299,-1,315,299,312,-1,312,299,272,-1,316,273,317,-1,317,273,272,-1,317,272,318,-1,318,272,299,-1,318,299,319,-1,319,299,304,-1,319,304,316,-1,316,304,273,-1,320,268,321,-1,321,268,273,-1,321,273,322,-1,322,273,304,-1,322,304,323,-1,323,304,282,-1,323,282,320,-1,320,282,268,-1,324,280,120,-1,120,280,122,-1,325,281,324,-1,324,281,280,-1,274,275,325,-1,325,275,281,-1,326,290,113,-1,113,290,114,-1,327,291,326,-1,326,291,290,-1,264,263,327,-1,327,263,291,-1,177,325,184,-1,184,325,324,-1,176,274,177,-1,177,274,325,-1,120,185,324,-1,324,185,184,-1,175,270,176,-1,176,270,274,-1,118,183,120,-1,120,183,185,-1,181,115,175,-1,175,115,270,-1,266,182,118,-1,118,182,183,-1,180,113,181,-1,181,113,115,-1,264,186,266,-1,266,186,182,-1,179,326,180,-1,180,326,113,-1,327,178,264,-1,264,178,186,-1,178,327,179,-1,179,327,326,-1,
        ]
    }
}
Shape{
    appearance Appearance {
        material  Material 	{
            diffuseColor 0.7529411764705882 0.7529411764705882 0.7529411764705882
            specularColor 0.3764705882352941 0.3764705882352941 0.3764705882352941
            ambientIntensity 0.2
            transparency 0
            shininess 0.5
        }
    }
    geometry IndexedFaceSet {
        ccw TRUE
        solid FALSE
        coord DEF co Coordinate {
            point [
                -0.1861 -0.6122 0.8434, -0.1861 -0.6122 0.9436, -0.2076 -0.6122 0.8434, -0.2076 -0.6122 0.9436, -0.1575 -0.5335 0.8148, -0.1575 0.1476 0.8148, -0.1575 -0.5335 0.9722, -0.1575 0.1476 0.9722, -0.2362 -0.5335 0.9722, -0.2362 0.1476 0.9722, -0.2362 -0.5335 0.8148, -0.2362 0.1476 0.8148, -0.2362 0.1079 0.618, -0.2362 0.1079 0.4395, -0.1575 0.1079 0.618, -0.1575 0.1079 0.4395, -0.2362 0.1476 0.4395, -0.2362 0.1476 0.618, -0.1575 0.1476 0.618, -0.1575 0.1476 0.4395, -0.2362 0.4626 1.102, -0.1575 0.4626 1.102, -0.1575 0.474 1.1153, -0.2362 0.474 1.1153, -0.1575 0.4882 1.1254, -0.2362 0.4882 1.1254, -0.1575 0.5045 1.1317, -0.2362 0.5045 1.1317, -0.1575 0.5218 1.1339, -0.2362 0.5218 1.1339, -0.1575 0.4702 0.3409, -0.1575 0.4626 0.3504, -0.2362 0.4702 0.3409, -0.2362 0.4626 0.3504, -0.2362 0.6105 0.3411, -0.2362 0.6083 0.3588, -0.2362 0.6171 0.3244, -0.2362 0.6277 0.31, -0.2362 0.6911 0.1068, -0.2362 0.7265 0.2053, -0.2362 0.7326 0.2, -0.2362 0.6972 0.1016, -0.2362 0.7396 0.1961, -0.2362 0.7041 0.0977, -0.2362 0.7472 0.1937, -0.2362 0.9941 0.1339, -0.2362 0.7552 0.1929, -0.2362 0.9941 0.1535, -0.2362 0.9547 0.1929, -0.2362 0.9744 0.0998, -0.2362 0.9649 0.0958, -0.2362 0.9547 0.0945, -0.2362 0.7197 0.0945, -0.2362 0.7118 0.0953, -0.2362 0.5372 1.1339, -0.2362 0.6083 1.0628, -0.2362 0.5556 1.1314, -0.2362 0.5727 1.1243, -0.2362 0.9826 0.106, -0.2362 0.9928 0.1237, -0.2362 0.9888 0.1142, -0.2362 0.5875 1.113, -0.2362 0.5987 1.0983, -0.2362 0.6058 1.0812, -0.2362 0.9744 0.1876, -0.2362 0.9826 0.1814, -0.2362 0.9649 0.1916, -0.2362 0.9888 0.1732, -0.2362 0.9928 0.1637, -0.1575 0.7552 0.1929, -0.1575 0.7472 0.1937, -0.1575 0.7197 0.0945, -0.1575 0.7118 0.0953, -0.1575 0.9547 0.1929, -0.1575 0.9941 0.1535, -0.1575 0.9941 0.1339, -0.1575 0.6911 0.1068, -0.1575 0.6972 0.1016, -0.1575 0.7396 0.1961, -0.1575 0.5556 1.1314, -0.1575 0.5372 1.1339, -0.1575 0.6083 1.0628, -0.1575 0.6083 0.3588, -0.1575 0.7041 0.0977, -0.1575 0.6277 0.31, -0.1575 0.7265 0.2053, -0.1575 0.7326 0.2, -0.1575 0.9547 0.0945, -0.1575 0.9649 0.0958, -0.1575 0.5987 1.0983, -0.1575 0.5875 1.113, -0.1575 0.5727 1.1243, -0.1575 0.6105 0.3411, -0.1575 0.6171 0.3244, -0.1575 0.9744 0.0998, -0.1575 0.9826 0.106, -0.1575 0.9928 0.1237, -0.1575 0.9888 0.1142, -0.1575 0.9928 0.1637, -0.1575 0.9888 0.1732, -0.1575 0.9649 0.1916, -0.1575 0.9826 0.1814, -0.1575 0.9744 0.1876, -0.1575 0.6058 1.0812, -0.5798 -0.6122 0.8434, -0.5798 -0.6122 0.9436, -0.6013 -0.6122 0.8434, -0.6013 -0.6122 0.9436, -0.5512 -0.5335 0.8148, -0.5512 0.1476 0.8148, -0.5512 -0.5335 0.9722, -0.5512 0.1476 0.9722, -0.6299 -0.5335 0.9722, -0.6299 0.1476 0.9722, -0.6299 -0.5335 0.8148, -0.6299 0.1476 0.8148, -0.6299 0.1079 0.618, -0.6299 0.1079 0.4395, -0.5512 0.1079 0.618, -0.5512 0.1079 0.4395, -0.6299 0.1476 0.4395, -0.6299 0.1476 0.618, -0.5512 0.1476 0.618, -0.5512 0.1476 0.4395, -0.6299 0.4626 1.102, -0.5512 0.4626 1.102, -0.5512 0.474 1.1153, -0.6299 0.474 1.1153, -0.5512 0.4882 1.1254, -0.6299 0.4882 1.1254, -0.5512 0.5045 1.1317, -0.6299 0.5045 1.1317, -0.5512 0.5218 1.1339, -0.6299 0.5218 1.1339, -0.5512 0.4702 0.3409, -0.5512 0.4626 0.3504, -0.6299 0.4702 0.3409, -0.6299 0.4626 0.3504, -0.6299 0.6105 0.3411, -0.6299 0.6083 0.3588, -0.6299 0.6171 0.3244, -0.6299 0.6277 0.31, -0.6299 0.6911 0.1068, -0.6299 0.7265 0.2053, -0.6299 0.7326 0.2, -0.6299 0.6972 0.1016, -0.6299 0.7396 0.1961, -0.6299 0.7041 0.0977, -0.6299 0.7472 0.1937, -0.6299 0.7118 0.0953, -0.6299 0.9941 0.1535, -0.6299 0.9941 0.1339, -0.6299 0.9547 0.0945, -0.6299 0.9931 0.1251, -0.6299 0.9635 0.0955, -0.6299 0.7197 0.0945, -0.6299 0.7552 0.1929, -0.6299 0.9547 0.1929, -0.6299 0.9902 0.1168, -0.6299 0.9855 0.1093, -0.6299 0.9793 0.1031, -0.6299 0.5372 1.1339, -0.6299 0.6083 1.0628, -0.6299 0.5556 1.1314, -0.6299 0.5727 1.1243, -0.6299 0.5875 1.113, -0.6299 0.5987 1.0983, -0.6299 0.6058 1.0812, -0.6299 0.9744 0.1876, -0.6299 0.9826 0.1814, -0.6299 0.9649 0.1916, -0.6299 0.9888 0.1732, -0.6299 0.9928 0.1637, -0.6299 0.9718 0.0984, -0.5512 0.7197 0.0945, -0.5512 0.9547 0.0945, -0.5512 0.9547 0.1929, -0.5512 0.5556 1.1314, -0.5512 0.5372 1.1339, -0.5512 0.6083 1.0628, -0.5512 0.6083 0.3588, -0.5512 0.7041 0.0977, -0.5512 0.7472 0.1937, -0.5512 0.6972 0.1016, -0.5512 0.7396 0.1961, -0.5512 0.6911 0.1068, -0.5512 0.7552 0.1929, -0.5512 0.7118 0.0953, -0.5512 0.6277 0.31, -0.5512 0.7265 0.2053, -0.5512 0.7326 0.2, -0.5512 0.5987 1.0983, -0.5512 0.5875 1.113, -0.5512 0.5727 1.1243, -0.5512 0.6105 0.3411, -0.5512 0.6171 0.3244, -0.5512 0.9855 0.1093, -0.5512 0.9902 0.1168, -0.5512 0.9793 0.1031, -0.5512 0.9931 0.1251, -0.5512 0.9718 0.0984, -0.5512 0.9941 0.1535, -0.5512 0.9941 0.1339, -0.5512 0.9635 0.0955, -0.5512 0.9928 0.1637, -0.5512 0.9888 0.1732, -0.5512 0.9649 0.1916, -0.5512 0.9826 0.1814, -0.5512 0.9744 0.1876, -0.5512 0.6058 1.0812, 0.2076 -0.6122 0.8434, 0.2076 -0.6122 0.9436, 0.1861 -0.6122 0.8434, 0.1861 -0.6122 0.9436, 0.2362 -0.5335 0.8148, 0.2362 0.1476 0.8148, 0.2362 -0.5335 0.9722, 0.2362 0.1476 0.9722, 0.1575 -0.5335 0.9722, 0.1575 0.1476 0.9722, 0.1575 -0.5335 0.8148, 0.1575 0.1476 0.8148, 0.1575 0.1079 0.618, 0.1575 0.1079 0.4395, 0.2362 0.1079 0.618, 0.2362 0.1079 0.4395, 0.1575 0.1476 0.4395, 0.1575 0.1476 0.618, 0.2362 0.1476 0.618, 0.2362 0.1476 0.4395, 0.1575 0.4626 1.102, 0.2362 0.4626 1.102, 0.2362 0.474 1.1153, 0.1575 0.474 1.1153, 0.2362 0.4882 1.1254, 0.1575 0.4882 1.1254, 0.2362 0.5045 1.1317, 0.1575 0.5045 1.1317, 0.2362 0.5218 1.1339, 0.1575 0.5218 1.1339, 0.2362 0.4702 0.3409, 0.2362 0.4626 0.3504, 0.1575 0.4702 0.3409, 0.1575 0.4626 0.3504, 0.1575 0.6105 0.3411, 0.1575 0.6083 0.3588, 0.1575 0.6171 0.3244, 0.1575 0.6277 0.31, 0.1575 0.6911 0.1068, 0.1575 0.7265 0.2053, 0.1575 0.7326 0.2, 0.1575 0.6972 0.1016, 0.1575 0.7396 0.1961, 0.1575 0.7041 0.0977, 0.1575 0.7472 0.1937, 0.1575 0.7118 0.0953, 0.1575 0.9941 0.1535, 0.1575 0.9941 0.1339, 0.1575 0.9547 0.0945, 0.1575 0.9931 0.1251, 0.1575 0.9635 0.0955, 0.1575 0.7197 0.0945, 0.1575 0.7552 0.1929, 0.1575 0.9547 0.1929, 0.1575 0.9902 0.1168, 0.1575 0.9855 0.1093, 0.1575 0.9793 0.1031, 0.1575 0.5372 1.1339, 0.1575 0.6083 1.0628, 0.1575 0.5556 1.1314, 0.1575 0.5727 1.1243, 0.1575 0.5875 1.113, 0.1575 0.5987 1.0983, 0.1575 0.6058 1.0812, 0.1575 0.9744 0.1876, 0.1575 0.9826 0.1814, 0.1575 0.9649 0.1916, 0.1575 0.9888 0.1732, 0.1575 0.9928 0.1637, 0.1575 0.9718 0.0984, 0.2362 0.7197 0.0945, 0.2362 0.9547 0.0945, 0.2362 0.9547 0.1929, 0.2362 0.5556 1.1314, 0.2362 0.5372 1.1339, 0.2362 0.6083 1.0628, 0.2362 0.6083 0.3588, 0.2362 0.7041 0.0977, 0.2362 0.7472 0.1937, 0.2362 0.6972 0.1016, 0.2362 0.7396 0.1961, 0.2362 0.6911 0.1068, 0.2362 0.7552 0.1929, 0.2362 0.7118 0.0953, 0.2362 0.6277 0.31, 0.2362 0.7265 0.2053, 0.2362 0.7326 0.2, 0.2362 0.5987 1.0983, 0.2362 0.5875 1.113, 0.2362 0.5727 1.1243, 0.2362 0.6105 0.3411, 0.2362 0.6171 0.3244, 0.2362 0.9855 0.1093, 0.2362 0.9902 0.1168, 0.2362 0.9793 0.1031, 0.2362 0.9931 0.1251, 0.2362 0.9718 0.0984, 0.2362 0.9941 0.1535, 0.2362 0.9941 0.1339, 0.2362 0.9635 0.0955, 0.2362 0.9928 0.1637, 0.2362 0.9888 0.1732, 0.2362 0.9649 0.1916, 0.2362 0.9826 0.1814, 0.2362 0.9744 0.1876, 0.2362 0.6058 1.0812, 0.6013 -0.6122 0.8434, 0.6013 -0.6122 0.9436, 0.5798 -0.6122 0.8434, 0.5798 -0.6122 0.9436, 0.6299 -0.5335 0.8148, 0.6299 0.1476 0.8148, 0.6299 -0.5335 0.9722, 0.6299 0.1476 0.9722, 0.5512 -0.5335 0.9722, 0.5512 0.1476 0.9722, 0.5512 -0.5335 0.8148, 0.5512 0.1476 0.8148, 0.5512 0.1079 0.618, 0.5512 0.1079 0.4395, 0.6299 0.1079 0.618, 0.6299 0.1079 0.4395, 0.5512 0.1476 0.4395, 0.5512 0.1476 0.618, 0.6299 0.1476 0.618, 0.6299 0.1476 0.4395, 0.5512 0.4626 1.102, 0.6299 0.4626 1.102, 0.6299 0.474 1.1153, 0.5512 0.474 1.1153, 0.6299 0.4882 1.1254, 0.5512 0.4882 1.1254, 0.6299 0.5045 1.1317, 0.5512 0.5045 1.1317, 0.6299 0.5218 1.1339, 0.5512 0.5218 1.1339, 0.6299 0.4702 0.3409, 0.6299 0.4626 0.3504, 0.5512 0.4702 0.3409, 0.5512 0.4626 0.3504, 0.5512 0.6105 0.3411, 0.5512 0.6083 0.3588, 0.5512 0.6171 0.3244, 0.5512 0.6277 0.31, 0.5512 0.6911 0.1068, 0.5512 0.7265 0.2053, 0.5512 0.7326 0.2, 0.5512 0.6972 0.1016, 0.5512 0.7396 0.1961, 0.5512 0.7041 0.0977, 0.5512 0.7472 0.1937, 0.5512 0.7118 0.0953, 0.5512 0.9941 0.1535, 0.5512 0.9941 0.1339, 0.5512 0.9547 0.0945, 0.5512 0.9931 0.1251, 0.5512 0.9635 0.0955, 0.5512 0.7197 0.0945, 0.5512 0.7552 0.1929, 0.5512 0.9547 0.1929, 0.5512 0.9902 0.1168, 0.5512 0.9855 0.1093, 0.5512 0.9793 0.1031, 0.5512 0.5372 1.1339, 0.5512 0.6083 1.0628, 0.5512 0.5556 1.1314, 0.5512 0.5727 1.1243, 0.5512 0.5875 1.113, 0.5512 0.5987 1.0983, 0.5512 0.6058 1.0812, 0.5512 0.9744 0.1876, 0.5512 0.9826 0.1814, 0.5512 0.9649 0.1916, 0.5512 0.9888 0.1732, 0.5512 0.9928 0.1637, 0.5512 0.9718 0.0984, 0.6299 0.7197 0.0945, 0.6299 0.9547 0.0945, 0.6299 0.9547 0.1929, 0.6299 0.5556 1.1314, 0.6299 0.5372 1.1339, 0.6299 0.6083 1.0628, 0.6299 0.6083 0.3588, 0.6299 0.7041 0.0977, 0.6299 0.7472 0.1937, 0.6299 0.6972 0.1016, 0.6299 0.7396 0.1961, 0.6299 0.6911 0.1068, 0.6299 0.7552 0.1929, 0.6299 0.7118 0.0953, 0.6299 0.6277 0.31, 0.6299 0.7265 0.2053, 0.6299 0.7326 0.2, 0.6299 0.5987 1.0983, 0.6299 0.5875 1.113, 0.6299 0.5727 1.1243, 0.6299 0.6105 0.3411, 0.6299 0.6171 0.3244, 0.6299 0.9855 0.1093, 0.6299 0.9902 0.1168, 0.6299 0.9793 0.1031, 0.6299 0.9931 0.1251, 0.6299 0.9718 0.0984, 0.6299 0.9941 0.1535, 0.6299 0.9941 0.1339, 0.6299 0.9635 0.0955, 0.6299 0.9928 0.1637, 0.6299 0.9888 0.1732, 0.6299 0.9649 0.1916, 0.6299 0.9826 0.1814, 0.6299 0.9744 0.1876, 0.6299 0.6058 1.0812, 0.6299 0.6058 1.0812
            ]
        }
        coordIndex [
            0,1,2,-1,2,1,3,-1,4,5,6,-1,6,5,7,-1,8,9,10,-1,10,9,11,-1,10,11,4,-1,4,11,5,-1,6,7,8,-1,8,7,9,-1,12,13,14,-1,14,13,15,-1,13,12,16,-1,16,12,17,-1,18,14,19,-1,19,14,15,-1,17,12,18,-1,18,12,14,-1,19,15,16,-1,16,15,13,-1,20,21,22,-1,20,22,23,-1,23,22,24,-1,23,24,25,-1,25,24,26,-1,25,26,27,-1,27,26,28,-1,27,28,29,-1,30,31,32,-1,32,31,33,-1,34,32,35,-1,35,32,33,-1,34,36,32,-1,32,36,37,-1,32,37,38,-1,35,25,27,-1,37,39,38,-1,38,39,40,-1,38,40,41,-1,41,40,42,-1,41,42,43,-1,43,42,44,-1,45,46,47,-1,47,46,48,-1,33,20,35,-1,35,20,23,-1,35,23,25,-1,49,50,45,-1,45,50,51,-1,45,51,46,-1,46,51,52,-1,46,52,44,-1,44,52,53,-1,44,53,43,-1,27,29,35,-1,35,29,54,-1,35,54,55,-1,55,54,56,-1,55,56,57,-1,49,45,58,-1,58,45,59,-1,58,59,60,-1,61,62,57,-1,57,62,63,-1,57,63,55,-1,64,65,66,-1,66,65,67,-1,66,67,48,-1,48,67,68,-1,48,68,47,-1,22,21,31,-1,69,70,71,-1,71,70,72,-1,73,69,74,-1,74,69,75,-1,76,77,78,-1,79,80,81,-1,26,24,82,-1,78,77,70,-1,70,77,83,-1,70,83,72,-1,84,30,85,-1,85,30,76,-1,85,76,86,-1,86,76,78,-1,81,80,82,-1,82,80,28,-1,82,28,26,-1,69,71,75,-1,75,71,87,-1,75,87,88,-1,89,90,91,-1,24,22,82,-1,82,22,31,-1,82,31,92,-1,92,31,30,-1,92,30,93,-1,93,30,84,-1,88,94,75,-1,75,94,95,-1,75,95,96,-1,96,95,97,-1,74,98,73,-1,73,98,99,-1,73,99,100,-1,100,99,101,-1,100,101,102,-1,79,81,91,-1,91,81,103,-1,91,103,89,-1,54,29,80,-1,80,29,28,-1,54,80,79,-1,54,79,56,-1,56,79,91,-1,56,91,57,-1,57,91,90,-1,57,90,61,-1,61,90,89,-1,61,89,62,-1,62,89,103,-1,62,103,63,-1,63,103,81,-1,63,81,55,-1,35,55,82,-1,82,55,81,-1,35,82,34,-1,34,82,92,-1,34,92,36,-1,36,92,93,-1,36,93,37,-1,37,93,84,-1,39,37,85,-1,85,37,84,-1,69,73,46,-1,46,73,48,-1,45,47,75,-1,75,47,74,-1,52,51,71,-1,71,51,87,-1,76,30,38,-1,38,30,32,-1,69,46,70,-1,70,46,44,-1,70,44,78,-1,78,44,42,-1,78,42,86,-1,86,42,40,-1,86,40,85,-1,85,40,39,-1,52,71,72,-1,52,72,53,-1,53,72,83,-1,53,83,43,-1,43,83,77,-1,43,77,41,-1,41,77,76,-1,41,76,38,-1,45,75,96,-1,45,96,59,-1,59,96,97,-1,59,97,60,-1,60,97,95,-1,60,95,58,-1,58,95,94,-1,58,94,49,-1,49,94,88,-1,49,88,50,-1,50,88,87,-1,50,87,51,-1,48,73,100,-1,48,100,66,-1,66,100,102,-1,66,102,64,-1,64,102,101,-1,64,101,65,-1,65,101,99,-1,65,99,67,-1,67,99,98,-1,67,98,68,-1,68,98,74,-1,68,74,47,-1,8,3,6,-1,6,3,1,-1,10,2,8,-1,8,2,3,-1,0,4,1,-1,1,4,6,-1,4,0,10,-1,10,0,2,-1,104,105,106,-1,106,105,107,-1,108,109,110,-1,110,109,111,-1,112,113,114,-1,114,113,115,-1,114,115,108,-1,108,115,109,-1,110,111,112,-1,112,111,113,-1,116,117,118,-1,118,117,119,-1,117,116,120,-1,120,116,121,-1,122,118,123,-1,123,118,119,-1,121,116,122,-1,122,116,118,-1,123,119,120,-1,120,119,117,-1,124,125,126,-1,124,126,127,-1,127,126,128,-1,127,128,129,-1,129,128,130,-1,129,130,131,-1,131,130,132,-1,131,132,133,-1,134,135,136,-1,136,135,137,-1,138,136,139,-1,139,136,137,-1,138,140,136,-1,136,140,141,-1,136,141,142,-1,139,129,131,-1,141,143,142,-1,142,143,144,-1,142,144,145,-1,145,144,146,-1,145,146,147,-1,147,146,148,-1,147,148,149,-1,150,151,152,-1,152,151,153,-1,152,153,154,-1,137,124,139,-1,139,124,127,-1,139,127,129,-1,149,148,155,-1,155,148,156,-1,155,156,152,-1,152,156,157,-1,152,157,150,-1,158,159,160,-1,131,133,139,-1,139,133,161,-1,139,161,162,-1,162,161,163,-1,162,163,164,-1,165,166,164,-1,164,166,167,-1,164,167,162,-1,168,169,170,-1,170,169,171,-1,170,171,157,-1,157,171,172,-1,157,172,150,-1,158,160,153,-1,153,160,173,-1,153,173,154,-1,126,125,135,-1,174,175,176,-1,177,178,179,-1,130,128,180,-1,181,182,183,-1,183,182,184,-1,183,184,185,-1,176,186,174,-1,174,186,182,-1,174,182,187,-1,187,182,181,-1,188,134,189,-1,189,134,185,-1,189,185,190,-1,190,185,184,-1,179,178,180,-1,180,178,132,-1,180,132,130,-1,191,192,193,-1,128,126,180,-1,180,126,135,-1,180,135,194,-1,194,135,134,-1,194,134,195,-1,195,134,188,-1,196,197,198,-1,198,197,199,-1,198,199,200,-1,201,176,202,-1,202,176,175,-1,202,175,199,-1,199,175,203,-1,199,203,200,-1,201,204,176,-1,176,204,205,-1,176,205,206,-1,206,205,207,-1,206,207,208,-1,177,179,193,-1,193,179,209,-1,193,209,191,-1,161,133,178,-1,178,133,132,-1,161,178,177,-1,161,177,163,-1,163,177,193,-1,163,193,164,-1,164,193,192,-1,164,192,165,-1,165,192,191,-1,165,191,166,-1,166,191,209,-1,166,209,167,-1,167,209,179,-1,167,179,162,-1,139,162,180,-1,180,162,179,-1,139,180,138,-1,138,180,194,-1,138,194,140,-1,140,194,195,-1,140,195,141,-1,141,195,188,-1,143,141,189,-1,189,141,188,-1,186,176,156,-1,156,176,157,-1,151,150,202,-1,202,150,201,-1,155,152,174,-1,174,152,175,-1,185,134,142,-1,142,134,136,-1,210,211,212,-1,212,211,213,-1,214,215,216,-1,216,215,217,-1,218,219,220,-1,220,219,221,-1,220,221,214,-1,214,221,215,-1,216,217,218,-1,218,217,219,-1,222,223,224,-1,224,223,225,-1,223,222,226,-1,226,222,227,-1,228,224,229,-1,229,224,225,-1,227,222,228,-1,228,222,224,-1,229,225,226,-1,226,225,223,-1,230,231,232,-1,230,232,233,-1,233,232,234,-1,233,234,235,-1,235,234,236,-1,235,236,237,-1,237,236,238,-1,237,238,239,-1,240,241,242,-1,242,241,243,-1,244,242,245,-1,245,242,243,-1,244,246,242,-1,242,246,247,-1,242,247,248,-1,245,235,237,-1,247,249,248,-1,248,249,250,-1,248,250,251,-1,251,250,252,-1,251,252,253,-1,253,252,254,-1,253,254,255,-1,256,257,258,-1,258,257,259,-1,258,259,260,-1,243,230,245,-1,245,230,233,-1,245,233,235,-1,255,254,261,-1,261,254,262,-1,261,262,258,-1,258,262,263,-1,258,263,256,-1,264,265,266,-1,237,239,245,-1,245,239,267,-1,245,267,268,-1,268,267,269,-1,268,269,270,-1,271,272,270,-1,270,272,273,-1,270,273,268,-1,274,275,276,-1,276,275,277,-1,276,277,263,-1,263,277,278,-1,263,278,256,-1,264,266,259,-1,259,266,279,-1,259,279,260,-1,232,231,241,-1,280,281,282,-1,283,284,285,-1,236,234,286,-1,287,288,289,-1,289,288,290,-1,289,290,291,-1,282,292,280,-1,280,292,288,-1,280,288,293,-1,293,288,287,-1,294,240,295,-1,295,240,291,-1,295,291,296,-1,296,291,290,-1,285,284,286,-1,286,284,238,-1,286,238,236,-1,297,298,299,-1,234,232,286,-1,286,232,241,-1,286,241,300,-1,300,241,240,-1,300,240,301,-1,301,240,294,-1,302,303,304,-1,304,303,305,-1,304,305,306,-1,307,282,308,-1,308,282,281,-1,308,281,305,-1,305,281,309,-1,305,309,306,-1,307,310,282,-1,282,310,311,-1,282,311,312,-1,312,311,313,-1,312,313,314,-1,283,285,299,-1,299,285,315,-1,299,315,297,-1,267,239,284,-1,284,239,238,-1,267,284,283,-1,267,283,269,-1,269,283,299,-1,269,299,270,-1,270,299,298,-1,270,298,271,-1,271,298,297,-1,271,297,272,-1,272,297,315,-1,272,315,273,-1,273,315,285,-1,273,285,268,-1,245,268,286,-1,286,268,285,-1,245,286,244,-1,244,286,300,-1,244,300,246,-1,246,300,301,-1,246,301,247,-1,247,301,294,-1,249,247,295,-1,295,247,294,-1,292,282,262,-1,262,282,263,-1,257,256,308,-1,308,256,307,-1,261,258,280,-1,280,258,281,-1,291,240,248,-1,248,240,242,-1,316,317,318,-1,318,317,319,-1,320,321,322,-1,322,321,323,-1,324,325,326,-1,326,325,327,-1,326,327,320,-1,320,327,321,-1,322,323,324,-1,324,323,325,-1,328,329,330,-1,330,329,331,-1,329,328,332,-1,332,328,333,-1,334,330,335,-1,335,330,331,-1,333,328,334,-1,334,328,330,-1,335,331,332,-1,332,331,329,-1,336,337,338,-1,336,338,339,-1,339,338,340,-1,339,340,341,-1,341,340,342,-1,341,342,343,-1,343,342,344,-1,343,344,345,-1,346,347,348,-1,348,347,349,-1,350,348,351,-1,351,348,349,-1,350,352,348,-1,348,352,353,-1,348,353,354,-1,351,341,343,-1,353,355,354,-1,354,355,356,-1,354,356,357,-1,357,356,358,-1,357,358,359,-1,359,358,360,-1,359,360,361,-1,362,363,364,-1,364,363,365,-1,364,365,366,-1,349,336,351,-1,351,336,339,-1,351,339,341,-1,361,360,367,-1,367,360,368,-1,367,368,364,-1,364,368,369,-1,364,369,362,-1,370,371,372,-1,343,345,351,-1,351,345,373,-1,351,373,374,-1,374,373,375,-1,374,375,376,-1,377,378,376,-1,376,378,379,-1,376,379,374,-1,380,381,382,-1,382,381,383,-1,382,383,369,-1,369,383,384,-1,369,384,362,-1,370,372,365,-1,365,372,385,-1,365,385,366,-1,338,337,347,-1,386,387,388,-1,389,390,391,-1,342,340,392,-1,393,394,395,-1,395,394,396,-1,395,396,397,-1,388,398,386,-1,386,398,394,-1,386,394,399,-1,399,394,393,-1,400,346,401,-1,401,346,397,-1,401,397,402,-1,402,397,396,-1,391,390,392,-1,392,390,344,-1,392,344,342,-1,403,404,405,-1,340,338,392,-1,392,338,347,-1,392,347,406,-1,406,347,346,-1,406,346,407,-1,407,346,400,-1,408,409,410,-1,410,409,411,-1,410,411,412,-1,413,388,414,-1,414,388,387,-1,414,387,411,-1,411,387,415,-1,411,415,412,-1,413,416,388,-1,388,416,417,-1,388,417,418,-1,418,417,419,-1,418,419,420,-1,389,391,405,-1,405,391,421,-1,405,421,403,-1,373,345,390,-1,390,345,344,-1,373,390,389,-1,373,389,375,-1,375,389,405,-1,375,405,376,-1,376,405,404,-1,376,404,377,-1,377,404,403,-1,377,403,378,-1,378,403,421,-1,378,421,379,-1,379,421,391,-1,379,391,374,-1,351,374,392,-1,392,374,391,-1,351,392,350,-1,350,392,406,-1,350,406,352,-1,352,406,407,-1,352,407,353,-1,353,407,400,-1,355,353,401,-1,401,353,400,-1,398,388,368,-1,368,388,369,-1,363,362,414,-1,414,362,413,-1,367,364,386,-1,386,364,387,-1,397,346,354,-1,354,346,348,-1,186,156,182,-1,182,156,148,-1,182,148,184,-1,184,148,146,-1,184,146,190,-1,190,146,144,-1,190,144,189,-1,189,144,143,-1,155,174,187,-1,155,187,149,-1,149,187,181,-1,149,181,147,-1,147,181,183,-1,147,183,145,-1,145,183,185,-1,145,185,142,-1,151,202,199,-1,151,199,153,-1,153,199,197,-1,153,197,158,-1,158,197,196,-1,158,196,159,-1,159,196,198,-1,159,198,160,-1,160,198,200,-1,160,200,173,-1,173,200,203,-1,173,203,154,-1,154,203,175,-1,154,175,152,-1,157,176,206,-1,157,206,170,-1,170,206,208,-1,170,208,168,-1,168,208,207,-1,168,207,169,-1,169,207,205,-1,169,205,171,-1,171,205,204,-1,171,204,172,-1,172,204,201,-1,172,201,150,-1,292,262,288,-1,288,262,254,-1,288,254,290,-1,290,254,252,-1,290,252,296,-1,296,252,250,-1,296,250,295,-1,295,250,249,-1,261,280,293,-1,261,293,255,-1,255,293,287,-1,255,287,253,-1,253,287,289,-1,253,289,251,-1,251,289,291,-1,251,291,248,-1,257,308,305,-1,257,305,259,-1,259,305,303,-1,259,303,264,-1,264,303,302,-1,264,302,265,-1,265,302,304,-1,265,304,266,-1,266,304,306,-1,266,306,279,-1,279,306,309,-1,279,309,260,-1,260,309,281,-1,260,281,258,-1,263,282,312,-1,263,312,276,-1,276,312,314,-1,276,314,274,-1,274,314,313,-1,274,313,275,-1,275,313,311,-1,275,311,277,-1,277,311,310,-1,277,310,278,-1,278,310,307,-1,278,307,256,-1,398,368,394,-1,394,368,360,-1,394,360,396,-1,396,360,358,-1,396,358,402,-1,402,358,356,-1,402,356,401,-1,401,356,355,-1,367,386,399,-1,367,399,361,-1,361,399,393,-1,361,393,359,-1,359,393,395,-1,359,395,357,-1,357,395,397,-1,357,397,354,-1,363,414,411,-1,363,411,365,-1,365,411,409,-1,365,409,370,-1,370,409,408,-1,370,408,371,-1,371,408,410,-1,371,410,372,-1,372,410,412,-1,372,412,385,-1,385,412,415,-1,385,415,366,-1,366,415,387,-1,366,387,364,-1,369,388,418,-1,369,418,382,-1,382,418,420,-1,382,420,380,-1,380,420,419,-1,380,419,381,-1,381,419,417,-1,381,417,383,-1,383,417,416,-1,383,416,384,-1,384,416,413,-1,384,413,362,-1,112,107,110,-1,110,107,105,-1,114,106,112,-1,112,106,107,-1,104,108,105,-1,105,108,110,-1,108,104,114,-1,114,104,106,-1,218,213,216,-1,216,213,211,-1,220,212,218,-1,218,212,213,-1,210,214,211,-1,211,214,216,-1,214,210,220,-1,220,210,212,-1,324,319,322,-1,322,319,317,-1,326,318,324,-1,324,318,319,-1,316,320,317,-1,317,320,322,-1,320,316,326,-1,326,316,318,-1,
        ]
    }
}
Shape{
    appearance Appearance {
        material  Material 	{
            diffuseColor 0.25098039215686274 0.25098039215686274 0.25098039215686274
            specularColor 0.12549019607843137 0.12549019607843137 0.12549019607843137
            ambientIntensity 0.2
            transparency 0
            shininess 0.5
        }
    }
    geometry IndexedFaceSet {
        ccw TRUE
        solid FALSE
        coord DEF co Coordinate {
            point [
                -0.3366 -0.1677 0.1299, -0.3366 -0.1677 0.1339, -0.3178 -0.2229 0.1299, -0.3178 -0.2229 0.1339, -0.4179 -0.1677 0.1299, -0.4179 -0.1677 0.1339, -0.4378 -0.2229 0.1299, -0.4378 -0.2229 0.1339, -0.4666 -0.2229 0.1299, -0.4666 -0.2229 0.1339, -0.3898 -0.0261 0.1299, -0.3898 -0.0261 0.1339, -0.3634 -0.0261 0.1299, -0.3634 -0.0261 0.1339, -0.289 -0.2229 0.1299, -0.289 -0.2229 0.1339, -0.3432 -0.1461 0.1339, -0.3726 -0.0639 0.1339, -0.3777 -0.0569 0.1339, -0.3757 -0.0501 0.1339, -0.3745 -0.057 0.1339, -0.3794 -0.0639 0.1339, -0.409 -0.1461 0.1339, -0.3432 -0.1461 0.1299, -0.3726 -0.0639 0.1299, -0.409 -0.1461 0.1299, -0.3794 -0.0639 0.1299, -0.3777 -0.0569 0.1299, -0.3757 -0.0501 0.1299, -0.3745 -0.057 0.1299, -0.1161 -0.2229 0.1299, -0.1161 -0.2229 0.1339, -0.1161 -0.0261 0.1299, -0.1161 -0.0261 0.1339, -0.1696 -0.2229 0.1299, -0.1696 -0.2229 0.1339, -0.2746 -0.122 0.1299, -0.2746 -0.122 0.1339, -0.271 -0.1469 0.1339, -0.271 -0.1469 0.1299, -0.2639 -0.1701 0.1339, -0.2639 -0.1701 0.1299, -0.2545 -0.1858 0.1339, -0.2545 -0.1858 0.1299, -0.2416 -0.1991 0.1339, -0.2416 -0.1991 0.1299, -0.2242 -0.2105 0.1339, -0.2242 -0.2105 0.1299, -0.201 -0.2184 0.1339, -0.201 -0.2184 0.1299, -0.1717 -0.0261 0.1299, -0.1717 -0.0261 0.1339, -0.1937 -0.0288 0.1339, -0.1937 -0.0288 0.1299, -0.2203 -0.0359 0.1339, -0.2203 -0.0359 0.1299, -0.2386 -0.0462 0.1339, -0.2386 -0.0462 0.1299, -0.2536 -0.0601 0.1339, -0.2536 -0.0601 0.1299, -0.2632 -0.0747 0.1339, -0.2632 -0.0747 0.1299, -0.27 -0.0943 0.1339, -0.27 -0.0943 0.1299, -0.2416 -0.0959 0.1339, -0.2336 -0.0764 0.1339, -0.2264 -0.0664 0.1339, -0.2192 -0.0603 0.1339, -0.2092 -0.0553 0.1339, -0.1946 -0.0512 0.1339, -0.1716 -0.0477 0.1339, -0.1425 -0.0477 0.1339, -0.1425 -0.2013 0.1339, -0.1705 -0.2013 0.1339, -0.1981 -0.1946 0.1339, -0.2183 -0.1865 0.1339, -0.2286 -0.1791 0.1339, -0.235 -0.1716 0.1339, -0.2402 -0.1613 0.1339, -0.2445 -0.1462 0.1339, -0.2481 -0.1226 0.1339, -0.2481 -0.1226 0.1299, -0.2416 -0.0959 0.1299, -0.2336 -0.0764 0.1299, -0.2264 -0.0664 0.1299, -0.2192 -0.0603 0.1299, -0.2092 -0.0553 0.1299, -0.1946 -0.0512 0.1299, -0.1716 -0.0477 0.1299, -0.1425 -0.0477 0.1299, -0.1425 -0.2013 0.1299, -0.1705 -0.2013 0.1299, -0.1981 -0.1946 0.1299, -0.2183 -0.1865 0.1299, -0.2286 -0.1791 0.1299, -0.235 -0.1716 0.1299, -0.2402 -0.1613 0.1299, -0.2445 -0.1462 0.1299, -0.0681 -0.1125 0.1299, -0.0681 -0.1125 0.1339, -0.0681 -0.1341 0.1299, -0.0681 -0.1341 0.1339, 0.0015 -0.1125 0.1299, 0.0015 -0.1125 0.1339, 0.0015 -0.0477 0.1299, 0.0015 -0.0477 0.1339, -0.0729 -0.0477 0.1299, -0.0729 -0.0477 0.1339, -0.0729 -0.0261 0.1299, -0.0729 -0.0261 0.1339, 0.0279 -0.0261 0.1299, 0.0279 -0.0261 0.1339, 0.0279 -0.2229 0.1299, 0.0279 -0.2229 0.1339, -0.0777 -0.2229 0.1299, -0.0777 -0.2229 0.1339, -0.0777 -0.2013 0.1299, -0.0777 -0.2013 0.1339, 0.0015 -0.2013 0.1299, 0.0015 -0.2013 0.1339, 0.0015 -0.1341 0.1299, 0.0015 -0.1341 0.1339, 0.0663 -0.0579 0.1299, 0.0663 -0.0579 0.1339, 0.0886 -0.0484 0.1339, 0.0886 -0.0484 0.1299, 0.1124 -0.0453 0.1339, 0.1124 -0.0453 0.1299, 0.0663 -0.0315 0.1299, 0.0663 -0.0315 0.1339, 0.1127 -0.0237 0.1299, 0.1127 -0.0237 0.1339, 0.0949 -0.0249 0.1299, 0.0891 -0.0253 0.1339, 0.0891 -0.0253 0.1299, 0.2128 -0.1282 0.1299, 0.2128 -0.1282 0.1339, 0.2112 -0.114 0.1339, 0.2112 -0.114 0.1299, 0.2047 -0.0839 0.1339, 0.2047 -0.0839 0.1299, 0.195 -0.0646 0.1339, 0.195 -0.0646 0.1299, 0.1806 -0.0481 0.1339, 0.1806 -0.0481 0.1299, 0.1648 -0.0369 0.1339, 0.1648 -0.0369 0.1299, 0.1422 -0.0286 0.1339, 0.1422 -0.0286 0.1299, 0.1198 -0.0249 0.1299, 0.1205 -0.2253 0.1299, 0.1205 -0.2253 0.1339, 0.1361 -0.2212 0.1339, 0.1361 -0.2212 0.1299, 0.1733 -0.2077 0.1339, 0.1733 -0.2077 0.1299, 0.1875 -0.198 0.1339, 0.1875 -0.198 0.1299, 0.1961 -0.1883 0.1339, 0.1961 -0.1883 0.1299, 0.2026 -0.1758 0.1339, 0.2026 -0.1758 0.1299, 0.2081 -0.1574 0.1339, 0.2081 -0.1574 0.1299, 0.0663 -0.2127 0.1299, 0.0663 -0.2127 0.1339, 0.0927 -0.2225 0.1339, 0.0927 -0.2225 0.1299, 0.0663 -0.1911 0.1299, 0.0663 -0.1911 0.1339, 0.1169 -0.2037 0.1299, 0.1169 -0.2037 0.1339, 0.0907 -0.2008 0.1339, 0.0907 -0.2008 0.1299, 0.1864 -0.1266 0.1299, 0.1864 -0.1266 0.1339, 0.1817 -0.1505 0.1339, 0.1817 -0.1505 0.1299, 0.1748 -0.1712 0.1339, 0.1748 -0.1712 0.1299, 0.1681 -0.1817 0.1339, 0.1681 -0.1817 0.1299, 0.1621 -0.1877 0.1339, 0.1621 -0.1877 0.1299, 0.1527 -0.1934 0.1339, 0.1527 -0.1934 0.1299, 0.1389 -0.1986 0.1339, 0.1389 -0.1986 0.1299, 0.1222 -0.0481 0.1339, 0.1222 -0.0481 0.1299, 0.1545 -0.0604 0.1339, 0.1545 -0.0604 0.1299, 0.1664 -0.0687 0.1339, 0.1664 -0.0687 0.1299, 0.1733 -0.0768 0.1339, 0.1733 -0.0768 0.1299, 0.1786 -0.0872 0.1339, 0.1786 -0.0872 0.1299, 0.1829 -0.1025 0.1339, 0.1829 -0.1025 0.1299, 0.3304 -0.2229 0.1299, 0.3304 -0.2229 0.1339, 0.3304 -0.0261 0.1299, 0.3304 -0.0261 0.1339, 0.2296 -0.2229 0.1299, 0.2296 -0.2229 0.1339, 0.2296 -0.2013 0.1299, 0.2296 -0.2013 0.1339, 0.304 -0.2013 0.1299, 0.304 -0.2013 0.1339, 0.304 -0.0261 0.1299, 0.304 -0.0261 0.1339, 0.304 -0.0261 0.1339
            ]
        }
        coordIndex [
            0,1,2,-1,2,1,3,-1,4,5,0,-1,0,5,1,-1,6,7,4,-1,4,7,5,-1,8,9,6,-1,6,9,7,-1,10,11,8,-1,8,11,9,-1,12,13,10,-1,10,13,11,-1,14,15,12,-1,12,15,13,-1,14,2,15,-1,15,2,3,-1,16,17,13,-1,15,3,1,-1,18,11,19,-1,19,11,13,-1,19,13,20,-1,20,13,17,-1,18,21,11,-1,11,21,22,-1,11,22,9,-1,7,9,5,-1,5,9,22,-1,5,22,1,-1,1,22,16,-1,1,16,15,-1,15,16,13,-1,16,23,17,-1,17,23,24,-1,22,25,16,-1,16,25,23,-1,21,26,22,-1,22,26,25,-1,26,21,18,-1,26,18,27,-1,27,18,19,-1,27,19,28,-1,28,19,20,-1,28,20,29,-1,29,20,17,-1,29,17,24,-1,30,31,32,-1,32,31,33,-1,34,35,30,-1,30,35,31,-1,36,37,38,-1,36,38,39,-1,39,38,40,-1,39,40,41,-1,41,40,42,-1,41,42,43,-1,43,42,44,-1,43,44,45,-1,45,44,46,-1,45,46,47,-1,47,46,48,-1,47,48,49,-1,49,48,35,-1,49,35,34,-1,50,51,52,-1,50,52,53,-1,53,52,54,-1,53,54,55,-1,55,54,56,-1,55,56,57,-1,57,56,58,-1,57,58,59,-1,59,58,60,-1,59,60,61,-1,61,60,62,-1,61,62,63,-1,63,62,37,-1,63,37,36,-1,50,32,51,-1,51,32,33,-1,64,60,65,-1,65,60,58,-1,65,58,66,-1,66,58,56,-1,66,56,67,-1,67,56,68,-1,68,56,54,-1,68,54,69,-1,69,54,52,-1,69,52,70,-1,70,52,51,-1,70,51,71,-1,71,51,33,-1,71,33,72,-1,72,33,31,-1,72,31,73,-1,73,31,35,-1,73,35,74,-1,74,35,48,-1,74,48,75,-1,75,48,46,-1,75,46,76,-1,76,46,44,-1,76,44,77,-1,77,44,42,-1,77,42,78,-1,78,42,40,-1,78,40,79,-1,79,40,38,-1,79,38,80,-1,80,38,37,-1,80,37,64,-1,64,37,62,-1,64,62,60,-1,81,80,64,-1,81,64,82,-1,82,64,65,-1,82,65,83,-1,83,65,66,-1,83,66,84,-1,84,66,67,-1,84,67,85,-1,85,67,68,-1,85,68,86,-1,86,68,69,-1,86,69,87,-1,87,69,70,-1,87,70,88,-1,71,89,70,-1,70,89,88,-1,72,90,71,-1,71,90,89,-1,73,91,72,-1,72,91,90,-1,91,73,74,-1,91,74,92,-1,92,74,75,-1,92,75,93,-1,93,75,76,-1,93,76,94,-1,94,76,77,-1,94,77,95,-1,95,77,78,-1,95,78,96,-1,96,78,79,-1,96,79,97,-1,97,79,80,-1,97,80,81,-1,98,99,100,-1,100,99,101,-1,102,103,98,-1,98,103,99,-1,104,105,102,-1,102,105,103,-1,106,107,104,-1,104,107,105,-1,108,109,106,-1,106,109,107,-1,110,111,108,-1,108,111,109,-1,112,113,110,-1,110,113,111,-1,114,115,112,-1,112,115,113,-1,116,117,114,-1,114,117,115,-1,118,119,116,-1,116,119,117,-1,120,121,118,-1,118,121,119,-1,120,100,121,-1,121,100,101,-1,113,115,117,-1,117,119,113,-1,113,119,121,-1,113,121,111,-1,107,109,105,-1,105,109,111,-1,105,111,103,-1,103,111,121,-1,103,121,99,-1,99,121,101,-1,122,123,124,-1,122,124,125,-1,125,124,126,-1,125,126,127,-1,128,129,122,-1,122,129,123,-1,130,131,132,-1,132,131,133,-1,132,133,134,-1,134,133,129,-1,134,129,128,-1,135,136,137,-1,135,137,138,-1,138,137,139,-1,138,139,140,-1,140,139,141,-1,140,141,142,-1,142,141,143,-1,142,143,144,-1,144,143,145,-1,144,145,146,-1,146,145,147,-1,146,147,148,-1,148,147,149,-1,149,147,131,-1,149,131,130,-1,150,151,152,-1,150,152,153,-1,153,152,154,-1,153,154,155,-1,155,154,156,-1,155,156,157,-1,157,156,158,-1,157,158,159,-1,159,158,160,-1,159,160,161,-1,161,160,162,-1,161,162,163,-1,163,162,136,-1,163,136,135,-1,164,165,166,-1,164,166,167,-1,167,166,151,-1,167,151,150,-1,168,169,164,-1,164,169,165,-1,170,171,172,-1,170,172,173,-1,173,172,169,-1,173,169,168,-1,174,175,176,-1,174,176,177,-1,177,176,178,-1,177,178,179,-1,179,178,180,-1,179,180,181,-1,181,180,182,-1,181,182,183,-1,183,182,184,-1,183,184,185,-1,185,184,186,-1,185,186,187,-1,187,186,171,-1,187,171,170,-1,127,126,188,-1,127,188,189,-1,189,188,190,-1,189,190,191,-1,191,190,192,-1,191,192,193,-1,193,192,194,-1,193,194,195,-1,195,194,196,-1,195,196,197,-1,197,196,198,-1,197,198,199,-1,199,198,175,-1,199,175,174,-1,176,160,178,-1,178,160,158,-1,178,158,180,-1,180,158,156,-1,180,156,182,-1,182,156,154,-1,165,169,166,-1,166,169,172,-1,166,172,151,-1,151,172,171,-1,151,171,152,-1,152,171,186,-1,152,186,154,-1,154,186,184,-1,154,184,182,-1,123,129,124,-1,124,129,133,-1,124,133,126,-1,126,133,131,-1,126,131,188,-1,188,131,147,-1,188,147,190,-1,190,147,145,-1,190,145,192,-1,192,145,143,-1,192,143,194,-1,194,143,141,-1,194,141,196,-1,196,141,139,-1,196,139,198,-1,198,139,175,-1,139,137,175,-1,175,137,136,-1,175,136,176,-1,176,136,162,-1,176,162,160,-1,200,201,202,-1,202,201,203,-1,204,205,200,-1,200,205,201,-1,206,207,204,-1,204,207,205,-1,208,209,206,-1,206,209,207,-1,210,211,208,-1,208,211,209,-1,210,202,211,-1,211,202,203,-1,211,203,209,-1,209,203,201,-1,209,201,207,-1,207,201,205,-1,
        ]
    }
}
Shape{
    appearance Appearance {
        material  Material 	{
            diffuseColor 0.2 0.2 0.2
            specularColor 0.3 0.3 0.3
            ambientIntensity 0.2
            transparency 0
            shininess 0.5
        }
    }
    geometry IndexedFaceSet {
        ccw TRUE
        solid FALSE
        coord DEF co Coordinate {
            point [
                -0.3432 -0.1461 0.1299, -0.409 -0.1461 0.1299, -0.3726 -0.0639 0.1299, -0.3794 -0.0639 0.1299, -0.3745 -0.057 0.1299, -0.3777 -0.0569 0.1299, -0.3757 -0.0501 0.1299, -0.1716 -0.0477 0.1299, -0.1425 -0.0477 0.1299, -0.2445 -0.1462 0.1299, -0.2402 -0.1613 0.1299, -0.2092 -0.0553 0.1299, -0.1946 -0.0512 0.1299, -0.2416 -0.0959 0.1299, -0.2481 -0.1226 0.1299, -0.1425 -0.2013 0.1299, -0.1705 -0.2013 0.1299, -0.1981 -0.1946 0.1299, -0.2183 -0.1865 0.1299, -0.2286 -0.1791 0.1299, -0.235 -0.1716 0.1299, -0.2192 -0.0603 0.1299, -0.2336 -0.0764 0.1299, -0.2264 -0.0664 0.1299, 1.0276 0.6594 1.2126, 0.6791 0.6594 1.2126, 1.0276 0.4626 1.2126, 0.6398 0.5913 1.2126, 0.6398 0.4626 1.2126, -1.0276 0.6594 1.2126, -1.0276 0.4626 1.2126, -0.935 0.4626 1.2126, -0.6791 0.6594 1.2126, -0.6398 0.5913 1.2126, -0.6398 0.4626 1.2126, -0.2854 0.6594 1.2126, -0.502 0.6594 1.2126, -0.2461 0.5913 1.2126, -0.5413 0.5913 1.2126, -0.2461 0.4626 1.2126, -0.5413 0.4626 1.2126, 0.1083 0.6594 1.2126, -0.1083 0.6594 1.2126, 0.1476 0.5913 1.2126, -0.1476 0.5913 1.2126, 0.1476 0.4626 1.2126, -0.1476 0.4626 1.2126, 0.2461 0.4626 1.2126, 0.5413 0.4626 1.2126, 0.5413 0.5913 1.2126, 0.502 0.6594 1.2126, 0.2854 0.6594 1.2126, 0.2461 0.5913 1.2126, 0.2461 0.5913 1.2126
            ]
        }
        coordIndex [
            0,1,2,-1,2,1,3,-1,2,3,4,-1,4,3,5,-1,4,5,6,-1,7,8,9,-1,9,8,10,-1,11,12,13,-1,7,9,12,-1,12,9,14,-1,12,14,13,-1,15,16,8,-1,8,16,17,-1,8,17,18,-1,18,19,8,-1,8,19,20,-1,8,20,10,-1,11,13,21,-1,21,13,22,-1,21,22,23,-1,24,25,26,-1,26,25,27,-1,26,27,28,-1,29,30,31,-1,32,29,33,-1,33,29,31,-1,33,31,34,-1,35,36,37,-1,37,36,38,-1,37,38,39,-1,39,38,40,-1,41,42,43,-1,43,42,44,-1,43,44,45,-1,45,44,46,-1,47,48,49,-1,50,51,49,-1,49,51,52,-1,49,52,47,-1,
        ]
    }
}
