#VRML V2.0 utf8
# 3D model generated by easyeda2kicad.py (https://github.com/uPesy/easyeda2kicad.py)

Shape{
    appearance Appearance {
        material  Material 	{
            diffuseColor 1.0 1.0 1.0
            specularColor 0.7529411764705882 0.7529411764705882 0.7529411764705882
            ambientIntensity 0.2
            transparency 0
            shininess 0.5
        }
    }
    geometry IndexedFaceSet {
        ccw TRUE
        solid FALSE
        coord DEF co Coordinate {
            point [
                0.1669 0.073 0.0394, 0.1669 0.073 0.0315, 0.2047 0.073 0.0315, 0.2047 0.073 0.0394, -0.4921 0.7178 1.0815, -0.4921 -0.7087 1.0815, -0.4921 -0.7087 1.2783, -0.4921 0.7178 1.2783, -0.4921 -1.566 0.1633, -0.4921 -1.5405 0.1865, -0.4921 -1.4729 -0.0102, -0.4921 -1.1724 1.0681, -0.4921 -1.2534 1.2475, -0.4921 -1.1832 1.2705, -0.4921 -1.3765 0.0776, -0.4921 -1.4193 0.0277, -0.4921 -1.529 0.219, -0.4921 -1.3471 0.1364, -0.4921 -1.3173 1.2103, -0.4921 -1.2246 1.0299, -0.4921 -1.2435 1.0036, -0.4921 -1.1419 1.078, -0.4921 -1.1096 1.2784, -0.4921 -1.1096 1.0815, -0.4921 -1.1024 1.2783, -0.4921 -1.1024 1.0815, -0.4921 -1.3719 1.1605, -0.4921 -1.2566 0.9738, -0.4921 -1.4591 0.9602, -0.4921 -1.333 0.2005, -0.4921 -1.2007 1.0517, -0.4921 -1.2631 0.9418, -0.4921 -1.415 1.1004, -0.4921 -1.4444 1.0327, -0.4921 -1.5342 -0.0339, -0.4921 -1.5994 -0.042, -0.4921 -1.5994 0.1549, -0.4921 -1.9291 0.1549, -0.4921 -1.9291 -0.042, -0.4528 0.8359 1.2389, -0.4528 0.8359 1.1208, -0.3346 0.8359 1.2389, -0.3346 0.8359 1.1208, -0.2953 0.7178 1.2783, -0.2953 0.7178 1.0815, -0.2953 -0.7087 1.2783, -0.2953 -0.7087 1.0815, -0.2953 -1.3765 0.0776, -0.2953 -1.3471 0.1364, -0.2953 -1.529 0.219, -0.2953 -1.4193 0.0277, -0.2953 -1.333 0.2005, -0.2953 -1.5405 0.1865, -0.2953 -1.4729 -0.0102, -0.2953 -1.2566 0.9738, -0.2953 -1.4149 1.1005, -0.2953 -1.2631 0.9418, -0.2953 -1.4444 1.0327, -0.2953 -1.2532 1.2476, -0.2953 -1.3171 1.2104, -0.2953 -1.2249 1.0296, -0.2953 -1.3718 1.1606, -0.2953 -1.2438 1.0032, -0.2953 -1.1729 1.0678, -0.2953 -1.183 1.2705, -0.2953 -1.2008 1.0516, -0.2953 -1.1096 1.2784, -0.2953 -1.1421 1.078, -0.2953 -1.1096 1.0816, -0.2953 -1.1024 1.2783, -0.2953 -1.1024 1.0815, -0.2953 -1.4591 0.9602, -0.2953 -1.566 0.1633, -0.2953 -1.5342 -0.0339, -0.2953 -1.5994 -0.042, -0.2953 -1.5994 0.1549, -0.2953 -1.9291 -0.042, -0.2953 -1.9291 0.1549, -0.3346 -2.0472 -0.0026, -0.4528 -2.0472 -0.0026, -0.4528 -2.0472 0.1155, -0.3346 -2.0472 0.1155, 0.2953 -1.1024 1.2783, 0.2953 -1.1096 1.2784, 0.4921 -1.1096 1.2784, 0.4921 -1.1024 1.2783, 0.2953 0.7178 1.2783, 0.2953 -0.7087 1.2783, 0.4921 -0.7087 1.2783, 0.4921 0.7178 1.2783, 0.2953 0.7178 1.0815, 0.2953 -0.7087 1.0815, 0.2953 -1.566 0.1633, 0.2953 -1.5405 0.1865, 0.2953 -1.4729 -0.0102, 0.2953 -1.1724 1.0681, 0.2953 -1.2534 1.2475, 0.2953 -1.1832 1.2705, 0.2953 -1.3765 0.0776, 0.2953 -1.4193 0.0277, 0.2953 -1.529 0.219, 0.2953 -1.3471 0.1364, 0.2953 -1.3173 1.2103, 0.2953 -1.2246 1.0299, 0.2953 -1.2435 1.0036, 0.2953 -1.1419 1.078, 0.2953 -1.1096 1.0815, 0.2953 -1.1024 1.0815, 0.2953 -1.3719 1.1605, 0.2953 -1.2566 0.9738, 0.2953 -1.4591 0.9602, 0.2953 -1.333 0.2005, 0.2953 -1.2007 1.0517, 0.2953 -1.2631 0.9418, 0.2953 -1.415 1.1004, 0.2953 -1.4444 1.0327, 0.2953 -1.5342 -0.0339, 0.2953 -1.5994 -0.042, 0.2953 -1.5994 0.1549, 0.2953 -1.9291 0.1549, 0.2953 -1.9291 -0.042, 0.3346 0.8359 1.2389, 0.3346 0.8359 1.1208, 0.4528 0.8359 1.2389, 0.4528 0.8359 1.1208, 0.4921 0.7178 1.0815, 0.4921 -0.7087 1.0815, 0.4921 -1.3765 0.0776, 0.4921 -1.3471 0.1364, 0.4921 -1.529 0.219, 0.4921 -1.4193 0.0277, 0.4921 -1.333 0.2005, 0.4921 -1.5405 0.1865, 0.4921 -1.4729 -0.0102, 0.4921 -1.2566 0.9738, 0.4921 -1.4149 1.1005, 0.4921 -1.2631 0.9418, 0.4921 -1.4444 1.0327, 0.4921 -1.2532 1.2476, 0.4921 -1.3171 1.2104, 0.4921 -1.2249 1.0296, 0.4921 -1.3718 1.1606, 0.4921 -1.2438 1.0032, 0.4921 -1.1729 1.0678, 0.4921 -1.183 1.2705, 0.4921 -1.2008 1.0516, 0.4921 -1.1421 1.078, 0.4921 -1.1096 1.0816, 0.4921 -1.1024 1.0815, 0.4921 -1.4591 0.9602, 0.4921 -1.566 0.1633, 0.4921 -1.5342 -0.0339, 0.4921 -1.5994 -0.042, 0.4921 -1.5994 0.1549, 0.4921 -1.9291 -0.042, 0.4921 -1.9291 0.1549, 0.4528 -2.0472 -0.0026, 0.3346 -2.0472 -0.0026, 0.3346 -2.0472 0.1155, 0.4528 -2.0472 0.1155, 0.4568 -0.103 0.0394, 0.4568 -0.103 0.0315, 0.4568 0.0987 0.0315, 0.4568 0.0987 0.0394, 0.4316 0.0987 0.0315, 0.4316 0.0987 0.0394, 0.4316 -0.0772 0.0315, 0.4316 -0.0772 0.0394, 0.3055 -0.0772 0.0315, 0.3055 -0.0772 0.0394, 0.3055 -0.103 0.0315, 0.3055 -0.103 0.0394, 0.2341 0.0601 0.0315, 0.2593 0.0687 0.0315, 0.2425 0.0472 0.0315, 0.1081 0.0472 0.0315, 0.1123 0.0687 0.0315, 0.1333 0.0472 0.0315, 0.2257 -0.0987 0.0315, 0.2047 -0.0772 0.0315, 0.2215 -0.0729 0.0315, 0.1669 -0.0772 0.0315, 0.1459 -0.0987 0.0315, 0.1501 -0.0729 0.0315, 0.1291 -0.0901 0.0315, 0.1375 -0.0643 0.0315, 0.1669 -0.103 0.0315, 0.2047 -0.103 0.0315, 0.2341 -0.0643 0.0315, 0.2425 -0.0901 0.0315, 0.2425 -0.0515 0.0315, 0.2593 -0.0729 0.0315, 0.2677 -0.0558 0.0315, 0.2467 -0.0343 0.0315, 0.2677 0.0515 0.0315, 0.2467 0.0301 0.0315, 0.2719 0.0301 0.0315, 0.2719 -0.0343 0.0315, 0.2215 0.0687 0.0315, 0.2425 0.0858 0.0315, 0.2257 0.0944 0.0315, 0.1669 0.0987 0.0315, 0.2047 0.0987 0.0315, 0.1501 0.0687 0.0315, 0.1459 0.0944 0.0315, 0.1375 0.0601 0.0315, 0.1291 0.0858 0.0315, 0.1123 -0.0729 0.0315, 0.1333 -0.0515 0.0315, 0.1081 -0.0515 0.0315, 0.0745 -0.103 0.0315, 0.0492 -0.0086 0.0315, 0.0745 0.0987 0.0315, 0.0492 0.0172 0.0315, -0.0768 -0.103 0.0315, 0.0492 -0.0772 0.0315, -0.06 -0.0086 0.0315, -0.06 0.0172 0.0315, 0.0492 0.073 0.0315, -0.0768 0.073 0.0315, -0.0768 0.0987 0.0315, -0.0768 -0.0772 0.0315, -0.2743 -0.0558 0.0315, -0.2532 -0.0343 0.0315, -0.249 -0.0515 0.0315, -0.2785 -0.0343 0.0315, -0.2532 0.0301 0.0315, -0.2785 0.0301 0.0315, -0.2658 0.0687 0.0315, -0.2406 0.0601 0.0315, -0.249 0.0472 0.0315, -0.228 0.0687 0.0315, -0.249 0.0858 0.0315, -0.2322 0.0944 0.0315, -0.2112 0.073 0.0315, -0.2112 0.0987 0.0315, -0.2743 0.0515 0.0315, -0.1356 0.073 0.0315, -0.1104 0.0987 0.0315, -0.1356 -0.0772 0.0315, -0.1104 -0.103 0.0315, -0.2112 -0.0772 0.0315, -0.2322 -0.0987 0.0315, -0.228 -0.0729 0.0315, -0.2406 -0.0643 0.0315, -0.249 -0.0901 0.0315, -0.2658 -0.0729 0.0315, -0.2112 -0.103 0.0315, -0.4801 -0.103 0.0315, -0.4129 0.0987 0.0315, -0.4339 -0.0343 0.0315, -0.3541 -0.0515 0.0315, -0.3121 -0.103 0.0315, -0.3373 -0.103 0.0315, -0.3583 -0.0343 0.0315, -0.4549 -0.103 0.0315, -0.4381 -0.0515 0.0315, -0.3793 0.0987 0.0315, -0.3961 0.0815 0.0315, 0.1333 -0.0515 0.0394, 0.1081 -0.0515 0.0394, 0.1123 -0.0729 0.0394, 0.1291 -0.0901 0.0394, 0.1459 -0.0987 0.0394, 0.1669 -0.103 0.0394, 0.2047 -0.103 0.0394, 0.2257 -0.0987 0.0394, 0.2425 -0.0901 0.0394, 0.2593 -0.0729 0.0394, 0.2677 -0.0558 0.0394, 0.2719 -0.0343 0.0394, 0.2719 0.0301 0.0394, 0.2677 0.0515 0.0394, 0.2593 0.0687 0.0394, 0.2425 0.0858 0.0394, 0.2257 0.0944 0.0394, 0.2047 0.0987 0.0394, 0.1669 0.0987 0.0394, 0.1459 0.0944 0.0394, 0.1291 0.0858 0.0394, 0.1123 0.0687 0.0394, 0.1081 0.0472 0.0394, 0.1333 0.0472 0.0394, 0.1375 0.0601 0.0394, 0.1501 0.0687 0.0394, 0.1375 -0.0643 0.0394, 0.1501 -0.0729 0.0394, 0.1669 -0.0772 0.0394, 0.2047 -0.0772 0.0394, 0.2215 -0.0729 0.0394, 0.2341 -0.0643 0.0394, 0.2425 -0.0515 0.0394, 0.2467 -0.0343 0.0394, 0.2467 0.0301 0.0394, 0.2425 0.0472 0.0394, 0.2341 0.0601 0.0394, 0.2215 0.0687 0.0394, 0.0492 -0.0772 0.0394, -0.0768 -0.0772 0.0394, -0.0768 -0.103 0.0394, 0.0745 -0.103 0.0394, 0.0745 0.0987 0.0394, -0.0768 0.0987 0.0394, -0.0768 0.073 0.0394, 0.0492 0.073 0.0394, 0.0492 0.0172 0.0394, -0.06 0.0172 0.0394, -0.06 -0.0086 0.0394, 0.0492 -0.0086 0.0394, -0.1104 0.0987 0.0394, -0.2112 0.0987 0.0394, -0.2322 0.0944 0.0394, -0.249 0.0858 0.0394, -0.2658 0.0687 0.0394, -0.2743 0.0515 0.0394, -0.2785 0.0301 0.0394, -0.2785 -0.0343 0.0394, -0.2743 -0.0558 0.0394, -0.2658 -0.0729 0.0394, -0.249 -0.0901 0.0394, -0.2322 -0.0987 0.0394, -0.2112 -0.103 0.0394, -0.1104 -0.103 0.0394, -0.2112 0.073 0.0394, -0.1356 0.073 0.0394, -0.1356 -0.0772 0.0394, -0.2112 -0.0772 0.0394, -0.228 -0.0729 0.0394, -0.2406 -0.0643 0.0394, -0.249 -0.0515 0.0394, -0.2532 -0.0343 0.0394, -0.2532 0.0301 0.0394, -0.249 0.0472 0.0394, -0.2406 0.0601 0.0394, -0.228 0.0687 0.0394, -0.3793 0.0987 0.0394, -0.4129 0.0987 0.0394, -0.4801 -0.103 0.0394, -0.4549 -0.103 0.0394, -0.4381 -0.0515 0.0394, -0.3541 -0.0515 0.0394, -0.3373 -0.103 0.0394, -0.3121 -0.103 0.0394, -0.4339 -0.0343 0.0394, -0.3961 0.0815 0.0394, -0.3583 -0.0343 0.0394, -1.378 -0.0267 -0.0163, -1.2205 -0.0267 -0.0163, -1.2205 -0.0438 0.0092, -1.2205 -0.0498 0.0394, -1.378 -0.0438 0.0092, -1.378 -0.0498 0.0394, -1.378 -0.0012 -0.0334, -1.2205 -0.0012 -0.0334, -1.378 0.0289 -0.0394, -1.2205 0.0289 -0.0394, -1.2205 0.6107 -0.0152, -1.2205 0.638 -0.0018, -1.2205 1.1177 0.5078, -1.2205 0.6685 -0.0018, -1.2205 1.1456 0.4847, -1.2205 1.1225 -0.0163, -1.2205 1.1396 0.0092, -1.2205 1.0669 -0.0394, -1.2205 0.6958 -0.0152, -1.2205 1.1456 0.0394, -1.2205 1.097 -0.0334, -1.2205 0.7144 -0.0394, -1.2205 1.1023 0.5406, -1.2205 0.5922 -0.0394, -1.2205 -0.0498 0.8415, -1.2205 1.1023 0.5769, -1.2205 1.0669 0.8415, -1.2205 1.1177 0.6097, -1.2205 1.1225 0.8185, -1.2205 1.097 0.8355, -1.2205 1.1396 0.7929, -1.2205 1.1456 0.7628, -1.2205 1.1456 0.6328, -1.378 1.1225 0.8185, -1.378 1.1396 0.7929, -1.378 1.1456 0.7628, -1.378 1.097 0.8355, -1.378 1.0669 0.8415, -1.378 -0.0498 0.8415, -1.378 1.1023 0.5769, -1.378 0.6685 -0.0018, -1.378 0.638 -0.0018, -1.378 1.1177 0.5078, -1.378 1.1456 0.6328, -1.378 1.1177 0.6097, -1.378 1.1456 0.4847, -1.378 1.1225 -0.0163, -1.378 1.0669 -0.0394, -1.378 1.1396 0.0092, -1.378 0.6958 -0.0152, -1.378 1.1456 0.0394, -1.378 1.097 -0.0334, -1.378 0.7144 -0.0394, -1.378 1.1023 0.5406, -1.378 0.6107 -0.0152, -1.378 0.5922 -0.0394, 1.2205 -0.0267 -0.0163, 1.378 -0.0267 -0.0163, 1.378 -0.0438 0.0092, 1.378 -0.0498 0.0394, 1.2205 -0.0438 0.0092, 1.2205 -0.0498 0.0394, 1.2205 -0.0012 -0.0334, 1.378 -0.0012 -0.0334, 1.2205 0.0289 -0.0394, 1.378 0.0289 -0.0394, 1.378 0.6107 -0.0152, 1.378 0.638 -0.0018, 1.378 1.1177 0.5078, 1.378 0.6685 -0.0018, 1.378 1.1456 0.4847, 1.378 1.1225 -0.0163, 1.378 1.1396 0.0092, 1.378 1.0669 -0.0394, 1.378 0.6958 -0.0152, 1.378 1.1456 0.0394, 1.378 1.097 -0.0334, 1.378 0.7144 -0.0394, 1.378 1.1023 0.5406, 1.378 0.5922 -0.0394, 1.378 -0.0498 0.8415, 1.378 1.1023 0.5769, 1.378 1.0669 0.8415, 1.378 1.1177 0.6097, 1.378 1.1225 0.8185, 1.378 1.097 0.8355, 1.378 1.1396 0.7929, 1.378 1.1456 0.7628, 1.378 1.1456 0.6328, 1.2205 1.1225 0.8185, 1.2205 1.1396 0.7929, 1.2205 1.1456 0.7628, 1.2205 1.097 0.8355, 1.2205 1.0669 0.8415, 1.2205 -0.0498 0.8415, 1.2205 1.1023 0.5769, 1.2205 0.6685 -0.0018, 1.2205 0.638 -0.0018, 1.2205 1.1177 0.5078, 1.2205 1.1456 0.6328, 1.2205 1.1177 0.6097, 1.2205 1.1456 0.4847, 1.2205 1.1225 -0.0163, 1.2205 1.0669 -0.0394, 1.2205 1.1396 0.0092, 1.2205 0.6958 -0.0152, 1.2205 1.1456 0.0394, 1.2205 1.097 -0.0334, 1.2205 0.7144 -0.0394, 1.2205 1.1023 0.5406, 1.2205 0.6107 -0.0152, 1.2205 0.5922 -0.0394, 1.2205 0.5922 -0.0394
            ]
        }
        coordIndex [
            0,1,2,-1,0,2,3,-1,4,5,6,-1,4,6,7,-1,8,9,10,-1,11,12,13,-1,14,15,16,-1,10,9,15,-1,17,14,16,-1,18,19,20,-1,11,13,21,-1,21,22,23,-1,22,21,13,-1,24,25,22,-1,23,22,25,-1,26,20,27,-1,16,28,29,-1,19,12,30,-1,12,11,30,-1,18,20,26,-1,18,12,19,-1,27,31,32,-1,32,26,27,-1,33,31,28,-1,31,33,32,-1,31,29,28,-1,16,15,9,-1,29,17,16,-1,10,34,8,-1,34,35,36,-1,36,8,34,-1,35,37,36,-1,35,38,37,-1,39,4,7,-1,4,39,40,-1,41,42,40,-1,40,39,41,-1,42,41,43,-1,42,43,44,-1,43,45,46,-1,43,46,44,-1,47,48,49,-1,47,49,50,-1,48,51,49,-1,52,53,50,-1,50,49,52,-1,54,55,56,-1,55,57,56,-1,58,59,60,-1,61,62,59,-1,58,63,64,-1,63,58,65,-1,66,64,67,-1,63,67,64,-1,68,69,66,-1,66,67,68,-1,69,68,70,-1,60,65,58,-1,60,59,62,-1,61,55,54,-1,62,61,54,-1,57,71,56,-1,71,51,56,-1,52,72,73,-1,52,73,53,-1,51,71,49,-1,74,72,75,-1,73,72,74,-1,74,75,76,-1,76,75,77,-1,23,70,68,-1,70,23,25,-1,44,46,5,-1,44,5,4,-1,65,60,19,-1,27,20,62,-1,19,60,20,-1,31,27,54,-1,62,54,27,-1,56,31,54,-1,62,20,60,-1,30,65,19,-1,63,30,11,-1,30,63,65,-1,11,21,67,-1,67,63,11,-1,67,21,68,-1,21,23,68,-1,56,51,29,-1,56,29,31,-1,48,29,51,-1,53,15,50,-1,47,14,17,-1,74,34,73,-1,10,73,34,-1,35,34,74,-1,10,15,53,-1,10,53,73,-1,50,14,47,-1,15,14,50,-1,48,17,29,-1,47,17,48,-1,38,74,76,-1,74,38,35,-1,78,79,38,-1,78,38,76,-1,79,80,37,-1,79,37,38,-1,80,77,37,-1,77,80,81,-1,81,79,78,-1,79,81,80,-1,81,78,76,-1,81,76,77,-1,77,36,37,-1,36,77,75,-1,72,9,8,-1,75,72,8,-1,75,8,36,-1,72,52,9,-1,9,52,16,-1,52,49,16,-1,28,16,49,-1,28,49,71,-1,13,66,22,-1,26,59,18,-1,12,58,64,-1,57,55,33,-1,61,32,55,-1,28,71,57,-1,57,33,28,-1,26,32,61,-1,55,32,33,-1,59,58,18,-1,61,59,26,-1,12,64,13,-1,18,58,12,-1,66,13,64,-1,24,22,66,-1,24,66,69,-1,7,6,45,-1,7,45,43,-1,41,39,7,-1,41,7,43,-1,82,83,84,-1,82,84,85,-1,86,87,88,-1,86,88,89,-1,90,91,87,-1,90,87,86,-1,92,93,94,-1,95,96,97,-1,98,99,100,-1,94,93,99,-1,101,98,100,-1,102,103,104,-1,95,97,105,-1,105,83,106,-1,83,105,97,-1,82,107,83,-1,106,83,107,-1,108,104,109,-1,100,110,111,-1,103,96,112,-1,96,95,112,-1,102,104,108,-1,102,96,103,-1,109,113,114,-1,114,108,109,-1,115,113,110,-1,113,115,114,-1,113,111,110,-1,100,99,93,-1,111,101,100,-1,94,116,92,-1,116,117,118,-1,118,92,116,-1,117,119,118,-1,117,120,119,-1,121,90,86,-1,90,121,122,-1,123,124,122,-1,122,121,123,-1,124,123,89,-1,124,89,125,-1,89,88,126,-1,89,126,125,-1,127,128,129,-1,127,129,130,-1,128,131,129,-1,132,133,130,-1,130,129,132,-1,134,135,136,-1,135,137,136,-1,138,139,140,-1,141,142,139,-1,138,143,144,-1,143,138,145,-1,84,144,146,-1,143,146,144,-1,147,85,84,-1,84,146,147,-1,85,147,148,-1,140,145,138,-1,140,139,142,-1,141,135,134,-1,142,141,134,-1,137,149,136,-1,149,131,136,-1,132,150,151,-1,132,151,133,-1,131,149,129,-1,152,150,153,-1,151,150,152,-1,152,153,154,-1,154,153,155,-1,106,148,147,-1,148,106,107,-1,125,126,91,-1,125,91,90,-1,145,140,103,-1,109,104,142,-1,103,140,104,-1,113,109,134,-1,142,134,109,-1,136,113,134,-1,142,104,140,-1,112,145,103,-1,143,112,95,-1,112,143,145,-1,95,105,146,-1,146,143,95,-1,146,105,147,-1,105,106,147,-1,136,131,111,-1,136,111,113,-1,128,111,131,-1,133,99,130,-1,127,98,101,-1,152,116,151,-1,94,151,116,-1,117,116,152,-1,94,99,133,-1,94,133,151,-1,130,98,127,-1,99,98,130,-1,128,101,111,-1,127,101,128,-1,120,152,154,-1,152,120,117,-1,156,157,120,-1,156,120,154,-1,157,158,119,-1,157,119,120,-1,158,155,119,-1,155,158,159,-1,159,157,156,-1,157,159,158,-1,159,156,154,-1,159,154,155,-1,155,118,119,-1,118,155,153,-1,150,93,92,-1,153,150,92,-1,153,92,118,-1,150,132,93,-1,93,132,100,-1,132,129,100,-1,110,100,129,-1,110,129,149,-1,97,84,83,-1,108,139,102,-1,96,138,144,-1,137,135,115,-1,141,114,135,-1,110,149,137,-1,137,115,110,-1,108,114,141,-1,135,114,115,-1,139,138,102,-1,141,139,108,-1,96,144,97,-1,102,138,96,-1,84,97,144,-1,122,125,90,-1,125,122,124,-1,123,121,86,-1,123,86,89,-1,40,44,4,-1,44,40,42,-1,160,161,162,-1,160,162,163,-1,163,162,164,-1,163,164,165,-1,165,164,166,-1,165,166,167,-1,167,166,168,-1,167,168,169,-1,169,168,170,-1,169,170,171,-1,171,170,161,-1,171,161,160,-1,166,170,168,-1,166,162,161,-1,166,164,162,-1,170,166,161,-1,172,173,174,-1,175,176,177,-1,178,179,180,-1,181,182,183,-1,183,184,185,-1,186,179,187,-1,188,189,180,-1,190,191,188,-1,192,191,190,-1,190,193,192,-1,174,194,195,-1,193,196,197,-1,198,199,172,-1,200,199,198,-1,2,200,198,-1,201,202,1,-1,203,204,1,-1,205,206,203,-1,177,176,205,-1,185,207,208,-1,176,206,205,-1,206,204,203,-1,204,201,1,-1,202,2,1,-1,202,200,2,-1,172,199,173,-1,173,194,174,-1,194,196,195,-1,195,196,193,-1,197,192,193,-1,188,191,189,-1,180,189,178,-1,178,187,179,-1,186,181,179,-1,186,182,181,-1,182,184,183,-1,184,207,185,-1,207,209,208,-1,210,211,212,-1,211,213,212,-1,210,214,215,-1,213,216,217,-1,218,219,220,-1,220,212,218,-1,218,212,213,-1,216,213,211,-1,211,210,215,-1,214,221,215,-1,222,223,224,-1,225,223,222,-1,225,226,223,-1,225,227,226,-1,228,229,230,-1,231,229,232,-1,233,231,232,-1,233,234,231,-1,234,233,235,-1,226,236,230,-1,237,235,238,-1,239,238,240,-1,241,242,243,-1,237,234,235,-1,244,243,245,-1,232,229,228,-1,228,230,236,-1,236,226,227,-1,244,246,224,-1,246,222,224,-1,246,244,245,-1,245,243,242,-1,247,241,239,-1,242,241,247,-1,238,239,237,-1,247,239,240,-1,248,249,250,-1,251,252,253,-1,251,254,252,-1,255,248,256,-1,250,254,256,-1,250,256,248,-1,249,257,258,-1,254,251,256,-1,249,258,250,-1,258,257,254,-1,252,254,257,-1,259,208,209,-1,259,209,260,-1,260,209,207,-1,260,207,261,-1,261,207,184,-1,261,184,262,-1,262,184,182,-1,262,182,263,-1,263,182,186,-1,263,186,264,-1,264,186,187,-1,264,187,265,-1,265,187,178,-1,265,178,266,-1,266,178,189,-1,266,189,267,-1,267,189,191,-1,267,191,268,-1,268,191,192,-1,268,192,269,-1,269,192,197,-1,269,197,270,-1,270,197,196,-1,270,196,271,-1,271,196,194,-1,271,194,272,-1,272,194,173,-1,272,173,273,-1,273,173,199,-1,273,199,274,-1,274,199,200,-1,274,200,275,-1,275,200,202,-1,275,202,276,-1,276,202,201,-1,276,201,277,-1,277,201,204,-1,277,204,278,-1,278,204,206,-1,278,206,279,-1,279,206,176,-1,279,176,280,-1,280,176,175,-1,280,175,281,-1,281,175,177,-1,281,177,282,-1,282,177,205,-1,282,205,283,-1,283,205,203,-1,283,203,284,-1,284,203,1,-1,284,1,0,-1,285,185,208,-1,285,208,259,-1,286,183,185,-1,286,185,285,-1,287,181,183,-1,287,183,286,-1,288,179,181,-1,288,181,287,-1,289,180,179,-1,289,179,288,-1,290,188,180,-1,290,180,289,-1,291,190,188,-1,291,188,290,-1,292,193,190,-1,292,190,291,-1,293,195,193,-1,293,193,292,-1,294,174,195,-1,294,195,293,-1,295,172,174,-1,295,174,294,-1,296,198,172,-1,296,172,295,-1,3,2,198,-1,3,198,296,-1,297,215,221,-1,297,221,298,-1,298,221,214,-1,298,214,299,-1,299,214,210,-1,299,210,300,-1,300,210,212,-1,300,212,301,-1,301,212,220,-1,301,220,302,-1,302,220,219,-1,302,219,303,-1,303,219,218,-1,303,218,304,-1,304,218,213,-1,304,213,305,-1,305,213,217,-1,305,217,306,-1,306,217,216,-1,306,216,307,-1,307,216,211,-1,307,211,308,-1,308,211,215,-1,308,215,297,-1,309,238,235,-1,309,235,310,-1,310,235,233,-1,310,233,311,-1,311,233,232,-1,311,232,312,-1,312,232,228,-1,312,228,313,-1,313,228,236,-1,313,236,314,-1,314,236,227,-1,314,227,315,-1,315,227,225,-1,315,225,316,-1,316,225,222,-1,316,222,317,-1,317,222,246,-1,317,246,318,-1,318,246,245,-1,318,245,319,-1,319,245,242,-1,319,242,320,-1,320,242,247,-1,320,247,321,-1,321,247,240,-1,321,240,322,-1,322,240,238,-1,322,238,309,-1,323,234,237,-1,323,237,324,-1,324,237,239,-1,324,239,325,-1,325,239,241,-1,325,241,326,-1,326,241,243,-1,326,243,327,-1,327,243,244,-1,327,244,328,-1,328,244,224,-1,328,224,329,-1,329,224,223,-1,329,223,330,-1,330,223,226,-1,330,226,331,-1,331,226,230,-1,331,230,332,-1,332,230,229,-1,332,229,333,-1,333,229,231,-1,333,231,334,-1,334,231,234,-1,334,234,323,-1,335,257,249,-1,335,249,336,-1,336,249,248,-1,336,248,337,-1,337,248,255,-1,337,255,338,-1,338,255,256,-1,338,256,339,-1,339,256,251,-1,339,251,340,-1,340,251,253,-1,340,253,341,-1,341,253,252,-1,341,252,342,-1,342,252,257,-1,342,257,335,-1,343,250,258,-1,343,258,344,-1,344,258,254,-1,344,254,345,-1,345,254,250,-1,345,250,343,-1,346,347,348,-1,349,350,348,-1,346,348,350,-1,351,350,349,-1,352,347,346,-1,353,352,354,-1,352,353,347,-1,353,354,355,-1,349,356,357,-1,358,359,360,-1,358,357,359,-1,361,362,363,-1,364,365,359,-1,363,365,364,-1,362,365,363,-1,363,366,361,-1,363,364,367,-1,365,360,359,-1,357,358,368,-1,347,355,348,-1,349,348,355,-1,353,355,347,-1,355,356,349,-1,356,355,369,-1,349,357,370,-1,371,370,368,-1,370,357,368,-1,371,372,370,-1,373,372,371,-1,374,375,372,-1,376,372,377,-1,377,372,373,-1,374,372,376,-1,378,377,373,-1,379,374,376,-1,377,380,376,-1,379,376,380,-1,381,380,377,-1,382,374,379,-1,375,382,383,-1,382,375,374,-1,375,383,372,-1,384,370,372,-1,384,372,383,-1,351,370,384,-1,370,351,349,-1,385,384,383,-1,386,387,388,-1,381,389,390,-1,391,386,388,-1,392,393,394,-1,395,386,396,-1,393,395,396,-1,394,393,396,-1,393,392,397,-1,393,398,395,-1,396,386,391,-1,387,399,388,-1,346,350,354,-1,351,354,350,-1,400,401,354,-1,354,351,400,-1,354,352,346,-1,387,400,351,-1,399,387,384,-1,351,384,387,-1,385,399,384,-1,385,383,390,-1,379,383,382,-1,390,383,381,-1,381,383,380,-1,379,380,383,-1,401,369,355,-1,401,355,354,-1,386,364,359,-1,367,395,398,-1,356,401,400,-1,400,387,357,-1,357,387,359,-1,356,369,401,-1,356,400,357,-1,386,395,364,-1,387,386,359,-1,367,364,395,-1,393,367,398,-1,367,393,363,-1,392,361,366,-1,363,397,366,-1,392,366,397,-1,393,397,363,-1,394,361,392,-1,362,394,396,-1,394,362,361,-1,362,396,365,-1,391,360,365,-1,391,365,396,-1,385,373,371,-1,378,390,389,-1,358,391,388,-1,388,399,368,-1,368,399,371,-1,358,360,391,-1,358,388,368,-1,385,390,373,-1,399,385,371,-1,378,373,390,-1,381,378,389,-1,378,381,377,-1,402,403,404,-1,405,406,404,-1,402,404,406,-1,407,406,405,-1,408,403,402,-1,409,408,410,-1,408,409,403,-1,409,410,411,-1,405,412,413,-1,414,415,416,-1,414,413,415,-1,417,418,419,-1,420,421,415,-1,419,421,420,-1,418,421,419,-1,419,422,417,-1,419,420,423,-1,421,416,415,-1,413,414,424,-1,403,411,404,-1,405,404,411,-1,409,411,403,-1,411,412,405,-1,412,411,425,-1,405,413,426,-1,427,426,424,-1,426,413,424,-1,427,428,426,-1,429,428,427,-1,430,431,428,-1,432,428,433,-1,433,428,429,-1,430,428,432,-1,434,433,429,-1,435,430,432,-1,433,436,432,-1,435,432,436,-1,437,436,433,-1,438,430,435,-1,431,438,439,-1,438,431,430,-1,431,439,428,-1,426,428,439,-1,439,440,426,-1,440,405,426,-1,440,407,405,-1,441,440,439,-1,442,443,444,-1,437,445,446,-1,447,442,444,-1,448,449,450,-1,451,442,452,-1,449,451,452,-1,450,449,452,-1,449,448,453,-1,449,454,451,-1,452,442,447,-1,443,455,444,-1,402,406,410,-1,407,410,406,-1,456,457,410,-1,410,407,456,-1,410,408,402,-1,443,456,407,-1,455,443,440,-1,407,440,443,-1,441,455,440,-1,441,439,446,-1,435,439,438,-1,446,439,437,-1,437,439,436,-1,435,436,439,-1,425,411,410,-1,410,457,425,-1,412,425,457,-1,420,415,442,-1,413,456,443,-1,423,451,454,-1,451,423,420,-1,442,415,443,-1,451,420,442,-1,413,412,456,-1,415,413,443,-1,457,456,412,-1,454,419,423,-1,454,449,419,-1,448,417,422,-1,419,453,422,-1,448,422,453,-1,449,453,419,-1,450,417,448,-1,418,450,452,-1,450,418,417,-1,418,452,421,-1,416,421,452,-1,452,447,416,-1,414,416,447,-1,429,427,441,-1,424,444,455,-1,434,446,445,-1,446,434,429,-1,441,427,455,-1,446,429,441,-1,424,414,444,-1,427,424,455,-1,447,444,414,-1,445,433,434,-1,445,437,433,-1,
        ]
    }
}
Shape{
    appearance Appearance {
        material  Material 	{
            diffuseColor 0.2 0.2 0.2
            specularColor 0.3 0.3 0.3
            ambientIntensity 0.2
            transparency 0
            shininess 0.5
        }
    }
    geometry IndexedFaceSet {
        ccw TRUE
        solid FALSE
        coord DEF co Coordinate {
            point [
                -0.4801 -0.103 0.0394, -0.7579 -1.1811 0.0394, -0.7579 1.1811 0.0394, 0.2756 -0.9452 0.0394, 0.2756 -1.1811 0.0394, -0.2756 -0.9452 0.0394, -0.4381 -0.0515 0.0394, -0.3373 -0.103 0.0394, -0.4549 -0.103 0.0394, -0.2756 -1.1811 0.0394, 0.7579 -1.1811 0.0394, 0.5118 -1.1811 0.0394, 0.5118 -0.9452 0.0394, -0.2322 0.0944 0.0394, -0.249 0.0858 0.0394, -0.3793 0.0987 0.0394, -0.1104 0.0987 0.0394, -0.0768 0.0987 0.0394, -0.5118 -1.1811 0.0394, -0.5118 -0.9452 0.0394, -0.3121 -0.103 0.0394, -0.2743 -0.0558 0.0394, -0.2658 -0.0729 0.0394, -0.0768 -0.103 0.0394, -0.3541 -0.0515 0.0394, -0.4129 0.0987 0.0394, -0.2112 -0.103 0.0394, -0.1104 -0.103 0.0394, -0.06 -0.0086 0.0394, 0.0492 -0.0086 0.0394, 0.0492 -0.0772 0.0394, 0.0745 -0.103 0.0394, 0.1333 -0.0515 0.0394, 0.1081 -0.0515 0.0394, 0.1081 0.0472 0.0394, -0.2322 -0.0987 0.0394, -0.2785 -0.0343 0.0394, -0.249 -0.0901 0.0394, -0.2785 0.0301 0.0394, -0.2743 0.0515 0.0394, -0.2658 0.0687 0.0394, -0.2112 0.0987 0.0394, 0.7579 1.1811 0.0394, 0.0745 0.0987 0.0394, -0.0768 -0.0772 0.0394, -0.06 0.0172 0.0394, 0.0492 0.0172 0.0394, 0.0492 0.073 0.0394, -0.0768 0.073 0.0394, 0.1669 -0.0772 0.0394, 0.1501 -0.0729 0.0394, 0.1375 -0.0643 0.0394, 0.2425 -0.0901 0.0394, 0.2593 -0.0729 0.0394, 0.3055 -0.103 0.0394, 0.2425 -0.0515 0.0394, 0.2341 -0.0643 0.0394, 0.2467 -0.0343 0.0394, 0.2047 0.073 0.0394, 0.2467 0.0301 0.0394, 0.2215 -0.0729 0.0394, 0.2047 -0.0772 0.0394, 0.2425 0.0472 0.0394, 0.2341 0.0601 0.0394, 0.2215 0.0687 0.0394, 0.2719 -0.0343 0.0394, 0.3055 -0.0772 0.0394, 0.2677 -0.0558 0.0394, 0.1291 0.0858 0.0394, 0.1459 0.0944 0.0394, 0.1669 0.073 0.0394, 0.2257 0.0944 0.0394, 0.4316 0.0987 0.0394, 0.2425 0.0858 0.0394, 0.2047 0.0987 0.0394, 0.1669 0.0987 0.0394, 0.1333 0.0472 0.0394, 0.1501 0.0687 0.0394, 0.1375 0.0601 0.0394, 0.1123 0.0687 0.0394, 0.2593 0.0687 0.0394, 0.4316 -0.0772 0.0394, 0.2719 0.0301 0.0394, 0.4568 -0.103 0.0394, 0.2257 -0.0987 0.0394, 0.1669 -0.103 0.0394, 0.2047 -0.103 0.0394, 0.1459 -0.0987 0.0394, 0.1291 -0.0901 0.0394, 0.1123 -0.0729 0.0394, 0.4568 0.0987 0.0394, 0.2677 0.0515 0.0394, -0.2406 0.0601 0.0394, -0.2532 0.0301 0.0394, -0.249 0.0472 0.0394, -0.1356 -0.0772 0.0394, -0.2112 0.073 0.0394, -0.1356 0.073 0.0394, -0.228 0.0687 0.0394, -0.228 -0.0729 0.0394, -0.2532 -0.0343 0.0394, -0.2112 -0.0772 0.0394, -0.249 -0.0515 0.0394, -0.2406 -0.0643 0.0394, -0.4339 -0.0343 0.0394, -0.3961 0.0815 0.0394, -0.3583 -0.0343 0.0394, -0.5118 -0.945 0.315, -0.5118 -1.1811 0.315, -0.3937 -0.9449 2.0079, 0.3937 -0.9449 1.6929, 0.3937 -0.9449 2.0079, -0.3937 -0.9449 1.6929, 1.2402 -0.9449 0.9449, -1.2402 -0.9449 0.9449, 0.2756 -0.9449 0.315, 0.5118 -0.9449 0.315, -0.2756 -0.9449 0.315, 1.2402 -0.9449 0.315, -1.2402 -0.9449 0.315, -0.3937 -1.1811 2.0079, -0.3937 -1.1811 1.6929, 0.5118 -1.1811 0.315, 1.2402 -1.1811 0.315, 1.2402 -1.1811 0.0, 0.7579 -1.1811 0.0, -1.2402 -1.1811 0.0, -0.7579 -1.1811 0.0, -1.2402 -1.1811 0.315, -0.2756 -1.1811 0.315, 0.2756 -1.1811 0.315, -0.1863 -1.1811 1.4083, 0.1863 -1.1811 0.9449, 0.1863 -1.1811 1.4083, -0.6398 -1.1811 1.6142, 0.9547 -1.1811 1.6142, 1.5551 -1.1811 2.1654, 0.9547 -1.1811 2.1654, 0.6398 -1.1811 1.6142, 0.6011 -1.1811 1.4083, 1.2402 -1.1811 0.9449, 1.2402 -1.1811 1.4173, 0.6011 -1.1811 0.9449, 1.5551 -1.1811 1.4173, -0.9547 -1.1811 2.1654, -1.5551 -1.1811 2.1654, -0.9547 -1.1811 1.6142, -0.6398 -1.1811 2.1654, 0.3937 -1.1811 1.6929, -1.5551 -1.1811 1.4173, -1.2402 -1.1811 1.4173, -0.6011 -1.1811 1.4083, -0.1863 -1.1811 0.9449, -1.2402 -1.1811 0.9449, -0.6011 -1.1811 0.9449, 0.3937 -1.1811 2.0079, 0.6398 -1.1811 2.1654, 1.2402 -1.8504 0.9843, 1.2402 -1.8504 0.0, -0.1863 -1.1024 0.9449, 0.1863 -1.1024 0.9449, 0.6011 -1.1024 0.9449, -0.6011 -1.1024 0.9449, -0.4921 -1.1024 1.0815, -0.2953 -1.1024 1.0815, -0.6011 -1.1024 1.4083, -0.4921 -1.1024 1.2783, -0.2953 -1.1024 1.2783, -0.1863 -1.1024 1.4083, -0.1969 -0.7087 1.6142, -0.4921 -0.7087 1.2783, -0.6398 -0.7087 1.6142, -0.2953 -0.7087 1.0815, -0.0524 -0.7087 0.3771, -0.4921 -0.7087 1.0815, -0.1969 -0.7087 1.8504, 0.1969 -0.7087 1.8504, 0.4921 -0.7087 1.2783, 0.1969 -0.7087 1.6142, 0.6398 -0.7087 1.6142, 0.9547 -0.7087 1.6142, 0.4921 -0.7087 1.0815, 0.9547 -0.7087 0.2362, 0.0524 -0.7087 0.2362, 0.0524 -0.7087 0.3771, -0.9547 -0.7087 0.2362, -0.0524 -0.7087 0.2362, 0.2953 -0.7087 1.2783, -0.2953 -0.7087 1.2783, -0.9547 -0.7087 1.6142, 0.2953 -0.7087 1.0815, -0.0524 0.315 0.3771, -0.0524 0.315 0.2362, 0.0524 0.315 0.2362, 0.9547 1.1024 0.2362, -0.9547 1.1024 0.2362, 1.0335 1.1811 0.1575, -1.0335 1.1811 0.1575, 0.6398 1.1811 1.9685, 0.2756 1.1811 1.6929, 0.2756 1.1811 1.9291, 1.0335 1.1811 1.6929, 1.2008 1.1811 2.1654, 1.2008 1.1811 1.3386, 0.6398 1.1811 2.1654, -0.2756 1.1811 1.9291, -1.2008 1.1811 2.1654, -1.0335 1.1811 1.6929, 1.0335 1.1811 1.3386, -1.2008 1.1811 1.3386, -0.2756 1.1811 1.6929, -1.0335 1.1811 1.3386, 0.9547 1.1811 1.9685, 0.9547 1.1811 2.1654, 1.2008 1.1811 0.0, 0.7579 1.1811 0.0, -1.0335 1.1811 0.9843, -1.2008 1.1811 0.9843, 1.0335 1.1811 0.9843, 1.2008 1.1811 0.9843, -1.2008 1.1811 0.0, -0.7579 1.1811 0.0, 0.9547 1.1024 1.6142, 0.9547 1.1024 1.3386, 1.2008 0.3937 1.3386, 0.9547 0.3937 1.3386, 0.9547 0.3937 0.9843, 0.9547 0.5118 2.1654, 0.9547 0.5118 1.6142, 0.9547 1.1024 0.9843, 0.6398 -0.3018 1.6142, 0.6398 0.105 1.6142, 0.1969 1.1024 1.6142, 0.6398 0.5118 1.6142, 0.1969 1.1024 1.8504, -0.1969 1.1024 1.8504, -0.1969 1.1024 1.6142, -0.9547 1.1024 1.6142, -0.9547 1.1024 1.3386, -0.9547 0.3937 1.3386, -1.2008 0.3937 1.3386, -1.2008 -0.9252 0.9843, -1.2008 0.0 1.3386, -1.2008 0.3937 0.9843, -1.2008 -0.9252 1.3386, -1.2008 0.8465 1.8504, -1.2008 0.0 1.8504, -1.2008 0.8465 2.1654, -1.2008 0.8465 0.8661, -1.2008 -0.0787 0.0, -1.2008 -0.0787 0.8661, -1.2008 0.8465 0.9843, -0.9547 0.3937 0.9843, -0.9547 1.1024 0.9843, -0.9547 0.5118 2.1654, -0.9547 0.5118 1.6142, -1.5551 0.8465 0.9843, -1.5551 -0.9252 0.9843, -1.3976 -0.9252 1.3386, -1.5551 -0.9252 1.8504, -1.3976 -0.9252 1.8504, -1.3976 0.0 1.8504, -1.3976 0.0 1.3386, -1.5551 0.8465 1.8504, -1.5551 0.8465 2.1654, -1.3976 0.8465 0.8661, -1.5551 0.8465 0.4724, -1.3976 0.8465 0.4724, 0.9547 0.8661 2.1654, 1.2008 0.8465 2.1654, -0.6398 0.5118 2.1654, 0.6398 0.8661 2.1654, 0.6398 0.5118 2.1654, 1.5551 0.8465 2.1654, 1.2008 0.0 1.3386, 1.2008 -0.9252 1.3386, 1.2008 -0.9252 0.9843, 1.2008 0.3937 0.9843, 1.2008 0.8465 1.8504, 1.2008 0.0 1.8504, 1.2008 0.8465 0.9843, 1.2008 0.8465 0.8661, 1.2008 -0.0787 0.0, 1.2008 -0.0787 0.8661, 1.5551 -0.9252 0.9843, 1.5551 0.8465 0.9843, 1.5551 0.8465 1.8504, 1.5551 0.8465 0.4724, 1.3976 0.8465 0.8661, 1.3976 0.8465 0.4724, 1.5551 -0.9252 1.8504, 1.3976 0.0 1.8504, 1.3976 -0.9252 1.8504, 1.3976 0.0 1.3386, 1.3976 -0.9252 1.3386, 1.5551 -1.8504 0.0, 1.5551 -0.0787 0.0, 1.5551 -1.8504 0.9843, 1.5551 -0.0787 0.4724, 1.3976 -0.0787 0.4724, 1.3976 -0.0787 0.8661, -1.5551 -1.8504 0.0, -1.5551 -0.0787 0.0, -1.2402 -1.8504 0.0, -1.3976 -0.0787 0.4724, -1.5551 -0.0787 0.4724, -1.3976 -0.0787 0.8661, -1.5551 -1.8504 0.9843, -1.2402 -1.8504 0.9843, -0.6398 -0.3018 1.6142, -0.6398 0.105 1.6142, -0.6398 0.5118 1.6142, 0.6398 0.8661 1.9685, 0.9547 0.8661 1.9685, 0.0524 0.315 0.3771, 0.2953 -1.1024 1.0815, 0.4921 -1.1024 1.0815, 0.1863 -1.1024 1.4083, 0.2953 -1.1024 1.2783, 0.4921 -1.1024 1.2783, 0.6011 -1.1024 1.4083, 0.6011 -1.1024 1.4083
            ]
        }
        coordIndex [
            0,1,2,-1,3,4,5,-1,6,7,8,-1,9,5,4,-1,10,11,12,-1,13,14,15,-1,16,2,17,-1,18,1,19,-1,5,7,20,-1,21,22,20,-1,23,3,5,-1,7,5,8,-1,7,6,24,-1,5,19,8,-1,2,25,0,-1,8,19,0,-1,19,1,0,-1,15,25,2,-1,26,27,5,-1,28,29,30,-1,31,3,23,-1,32,33,34,-1,5,35,26,-1,21,20,36,-1,5,20,35,-1,20,37,35,-1,20,22,37,-1,15,36,20,-1,38,36,15,-1,15,2,13,-1,15,39,38,-1,15,40,39,-1,15,14,40,-1,41,13,2,-1,16,41,2,-1,2,42,43,-1,16,28,27,-1,17,2,43,-1,28,44,27,-1,45,28,16,-1,46,45,47,-1,45,16,48,-1,45,48,47,-1,48,16,17,-1,32,49,50,-1,33,43,34,-1,27,23,5,-1,44,28,30,-1,27,44,23,-1,51,32,50,-1,52,53,54,-1,55,56,57,-1,57,58,59,-1,56,60,57,-1,61,57,60,-1,62,59,63,-1,59,64,63,-1,65,66,67,-1,68,43,69,-1,64,59,58,-1,58,57,61,-1,61,70,58,-1,71,72,73,-1,49,70,61,-1,42,71,74,-1,43,75,69,-1,42,74,75,-1,70,49,76,-1,70,76,77,-1,33,31,43,-1,77,76,78,-1,32,76,49,-1,43,79,34,-1,32,34,76,-1,68,79,43,-1,42,75,43,-1,73,72,80,-1,81,66,72,-1,72,66,82,-1,53,67,66,-1,83,10,12,-1,54,53,66,-1,82,66,65,-1,83,12,3,-1,54,3,84,-1,85,86,3,-1,3,86,84,-1,31,85,3,-1,31,87,85,-1,31,88,87,-1,31,89,88,-1,31,33,89,-1,42,10,90,-1,91,72,82,-1,84,52,54,-1,3,54,83,-1,42,90,72,-1,72,71,42,-1,91,80,72,-1,10,83,90,-1,92,93,94,-1,95,96,97,-1,93,92,98,-1,99,100,101,-1,102,100,103,-1,99,103,100,-1,93,101,100,-1,101,93,96,-1,101,96,95,-1,96,93,98,-1,104,105,106,-1,18,107,108,-1,18,19,107,-1,109,110,111,-1,110,109,112,-1,113,114,115,-1,115,12,116,-1,117,114,107,-1,12,115,3,-1,116,113,115,-1,116,118,113,-1,107,5,117,-1,114,119,107,-1,19,5,107,-1,115,114,117,-1,120,121,112,-1,112,109,120,-1,122,10,123,-1,10,122,11,-1,124,10,125,-1,10,124,123,-1,126,127,1,-1,108,128,1,-1,126,1,128,-1,1,18,108,-1,129,4,130,-1,4,129,9,-1,131,132,133,-1,134,121,120,-1,135,136,137,-1,135,138,139,-1,139,140,141,-1,139,142,140,-1,143,136,135,-1,144,145,146,-1,120,147,134,-1,139,141,135,-1,135,141,143,-1,139,138,133,-1,133,138,148,-1,146,149,150,-1,151,134,146,-1,146,145,149,-1,150,151,146,-1,133,121,131,-1,132,131,152,-1,153,154,151,-1,153,151,150,-1,134,151,131,-1,121,134,131,-1,155,156,147,-1,147,120,155,-1,138,156,155,-1,133,148,121,-1,138,155,148,-1,121,148,110,-1,110,112,121,-1,148,155,111,-1,111,110,148,-1,155,120,109,-1,109,111,155,-1,12,122,116,-1,12,11,122,-1,118,122,123,-1,118,116,122,-1,128,108,107,-1,107,119,128,-1,115,129,130,-1,115,117,129,-1,140,157,141,-1,123,157,140,-1,157,123,158,-1,140,113,118,-1,140,118,123,-1,124,158,123,-1,132,159,160,-1,142,161,140,-1,161,160,113,-1,114,162,153,-1,161,113,140,-1,160,114,113,-1,154,153,162,-1,159,162,114,-1,160,159,114,-1,132,152,159,-1,163,162,159,-1,164,163,159,-1,165,162,163,-1,165,166,167,-1,165,163,166,-1,168,167,164,-1,165,167,168,-1,168,164,159,-1,152,168,159,-1,152,131,168,-1,165,131,151,-1,165,168,131,-1,151,162,165,-1,151,154,162,-1,169,170,171,-1,172,173,174,-1,169,175,176,-1,177,178,179,-1,176,178,169,-1,179,180,177,-1,181,180,182,-1,183,184,182,-1,177,180,181,-1,185,173,186,-1,177,187,178,-1,178,188,169,-1,169,188,170,-1,189,170,174,-1,171,170,189,-1,173,185,174,-1,189,174,185,-1,172,190,173,-1,190,181,184,-1,190,172,187,-1,188,178,187,-1,172,188,187,-1,190,184,173,-1,184,181,182,-1,173,191,192,-1,173,192,186,-1,193,183,182,-1,182,194,193,-1,194,195,192,-1,193,194,192,-1,192,195,185,-1,192,185,186,-1,196,195,194,-1,195,196,197,-1,198,199,200,-1,201,202,203,-1,204,205,206,-1,204,200,205,-1,205,207,206,-1,203,208,201,-1,209,206,207,-1,205,210,207,-1,207,211,209,-1,201,212,202,-1,199,198,201,-1,200,204,198,-1,212,213,202,-1,198,212,201,-1,214,215,42,-1,216,197,217,-1,196,218,219,-1,196,219,214,-1,197,220,217,-1,196,42,2,-1,214,42,196,-1,2,221,220,-1,2,197,196,-1,2,220,197,-1,222,201,208,-1,222,208,223,-1,208,224,225,-1,208,203,224,-1,208,225,223,-1,137,180,135,-1,226,182,180,-1,182,226,194,-1,180,137,227,-1,227,228,180,-1,194,226,229,-1,223,225,228,-1,228,225,180,-1,180,225,226,-1,223,228,222,-1,230,179,178,-1,231,178,232,-1,231,232,233,-1,230,178,231,-1,222,228,233,-1,222,233,232,-1,199,222,232,-1,222,199,201,-1,234,199,232,-1,199,234,200,-1,205,234,235,-1,234,205,200,-1,210,235,236,-1,235,210,205,-1,237,210,236,-1,210,237,207,-1,237,211,207,-1,211,237,238,-1,239,211,238,-1,211,239,240,-1,240,209,211,-1,241,242,243,-1,242,241,244,-1,245,240,246,-1,242,246,240,-1,206,209,245,-1,245,247,206,-1,243,242,240,-1,245,209,240,-1,248,249,250,-1,217,220,248,-1,217,248,251,-1,220,249,248,-1,243,239,252,-1,243,240,239,-1,252,189,185,-1,252,195,253,-1,252,185,195,-1,254,189,255,-1,252,239,189,-1,144,146,189,-1,189,254,144,-1,255,238,237,-1,189,239,255,-1,238,255,239,-1,243,256,257,-1,243,251,256,-1,257,241,243,-1,251,216,217,-1,243,252,251,-1,251,252,216,-1,252,253,216,-1,195,216,253,-1,216,195,197,-1,241,258,244,-1,259,258,257,-1,241,257,258,-1,258,259,260,-1,260,261,262,-1,260,262,258,-1,244,258,262,-1,244,262,242,-1,242,262,261,-1,242,261,246,-1,261,263,245,-1,259,261,260,-1,259,263,261,-1,245,246,261,-1,247,263,264,-1,247,245,263,-1,265,256,251,-1,266,265,267,-1,266,256,265,-1,251,248,265,-1,202,213,268,-1,202,268,269,-1,206,270,204,-1,144,254,145,-1,271,272,227,-1,254,270,247,-1,254,264,145,-1,270,147,156,-1,270,206,247,-1,254,247,264,-1,270,271,204,-1,271,270,272,-1,270,156,272,-1,227,268,271,-1,137,136,227,-1,136,273,227,-1,268,227,269,-1,227,273,269,-1,274,275,276,-1,224,274,277,-1,224,278,279,-1,202,269,278,-1,202,278,203,-1,279,274,224,-1,278,224,203,-1,277,274,276,-1,219,280,281,-1,281,214,219,-1,282,214,281,-1,281,283,282,-1,277,225,224,-1,225,277,226,-1,280,226,277,-1,284,277,276,-1,285,277,284,-1,280,218,226,-1,277,285,280,-1,219,218,280,-1,218,229,226,-1,194,229,218,-1,194,218,196,-1,286,269,273,-1,269,286,278,-1,285,287,288,-1,288,280,285,-1,288,287,289,-1,280,288,281,-1,286,290,291,-1,291,278,286,-1,291,290,292,-1,278,291,279,-1,293,291,292,-1,292,294,293,-1,291,293,274,-1,274,279,291,-1,293,294,275,-1,275,274,293,-1,276,275,294,-1,290,284,294,-1,290,294,292,-1,276,294,284,-1,284,295,296,-1,136,290,273,-1,290,136,143,-1,297,295,284,-1,273,290,286,-1,284,143,297,-1,290,143,284,-1,284,298,285,-1,284,296,298,-1,298,287,285,-1,289,287,298,-1,289,298,299,-1,300,288,289,-1,300,289,299,-1,296,282,299,-1,283,300,299,-1,296,299,298,-1,283,299,282,-1,288,300,283,-1,288,283,281,-1,301,302,126,-1,126,303,301,-1,220,221,249,-1,127,249,221,-1,249,126,302,-1,126,249,127,-1,124,296,295,-1,282,124,125,-1,124,295,158,-1,125,215,282,-1,124,282,296,-1,282,215,214,-1,304,250,249,-1,304,302,305,-1,304,249,302,-1,304,306,250,-1,265,248,250,-1,250,306,265,-1,306,267,265,-1,306,304,267,-1,305,267,304,-1,305,266,267,-1,305,256,266,-1,301,305,302,-1,301,307,257,-1,149,257,307,-1,264,263,259,-1,256,305,257,-1,259,149,145,-1,264,259,145,-1,259,257,149,-1,301,257,305,-1,307,308,150,-1,307,150,149,-1,119,153,128,-1,126,128,303,-1,303,128,308,-1,150,308,153,-1,128,153,308,-1,119,114,153,-1,301,308,307,-1,308,301,303,-1,1,221,2,-1,1,127,221,-1,42,215,125,-1,125,10,42,-1,295,297,157,-1,157,158,295,-1,297,143,141,-1,141,157,297,-1,227,272,233,-1,233,228,227,-1,231,272,230,-1,231,233,272,-1,230,272,156,-1,230,156,179,-1,179,156,138,-1,134,171,189,-1,134,189,146,-1,135,180,179,-1,135,179,138,-1,171,147,309,-1,171,134,147,-1,270,310,309,-1,309,147,270,-1,310,270,311,-1,169,309,310,-1,237,236,311,-1,310,311,236,-1,309,169,171,-1,310,236,169,-1,311,255,237,-1,270,254,255,-1,255,311,270,-1,236,235,175,-1,175,169,236,-1,235,234,176,-1,176,175,235,-1,234,232,178,-1,178,176,234,-1,198,204,271,-1,271,312,198,-1,212,198,312,-1,312,313,212,-1,313,213,212,-1,313,268,213,-1,268,313,312,-1,268,312,271,-1,183,193,314,-1,183,314,184,-1,184,314,191,-1,184,191,173,-1,192,191,314,-1,192,314,193,-1,315,161,316,-1,161,315,160,-1,317,160,315,-1,317,318,319,-1,317,315,318,-1,320,319,316,-1,317,319,320,-1,320,316,161,-1,133,132,160,-1,160,317,133,-1,139,133,317,-1,317,320,139,-1,142,139,320,-1,320,161,142,-1,129,117,5,-1,5,9,129,-1,115,130,4,-1,4,3,115,-1,
        ]
    }
}
