#VRML V2.0 utf8
# 3D model generated by easyeda2kicad.py (https://github.com/uPesy/easyeda2kicad.py)

Shape{
    appearance Appearance {
        material  Material 	{
            diffuseColor 0.25098039215686274 0.25098039215686274 0.25098039215686274
            specularColor 0.12549019607843137 0.12549019607843137 0.12549019607843137
            ambientIntensity 0.2
            transparency 0
            shininess 0.5
        }
    }
    geometry IndexedFaceSet {
        ccw TRUE
        solid FALSE
        coord DEF co Coordinate {
            point [
                -0.0188 0.2309 -0.2165, -0.015 -0.0144 -0.2165, -0.0188 -0.0189 -0.2165, -0.015 -0.0187 -0.2165, 0.0061 -0.0187 -0.2165, -0.014 0.0164 -0.2165, 0.0008 0.0164 -0.2165, 0.0008 0.0034 -0.2165, 0.0138 -0.0167 -0.2165, 0.0138 -0.0123 -0.2165, 0.0061 0.0207 -0.2165, 0.0008 -0.0009 -0.2165, 0.0008 -0.0144 -0.2165, -0.0131 -0.0009 -0.2165, -0.0131 0.0034 -0.2165, 0.0333 -0.0174 -0.2165, 0.0464 -0.0187 -0.2165, 0.0295 -0.0187 -0.2165, 0.0269 -0.0189 -0.2165, -0.014 0.0207 -0.2165, 0.041 0.0103 -0.2165, 0.0387 0.014 -0.2165, 0.0613 0.0207 -0.2165, 0.0269 0.0164 -0.2165, 0.0298 0.0153 -0.2165, 0.0145 -0.0127 -0.2165, 0.0326 0.0135 -0.2165, 0.0349 0.0109 -0.2165, 0.0378 0.0006 -0.2165, 0.0374 -0.0037 -0.2165, 0.0363 -0.0071 -0.2165, 0.0276 -0.0144 -0.2165, 0.0239 -0.0149 -0.2165, 0.0304 -0.0134 -0.2165, 0.0329 -0.0118 -0.2165, 0.0347 -0.0098 -0.2165, 0.0187 -0.0143 -0.2165, 0.0366 0.0078 -0.2165, 0.0376 0.0036 -0.2165, 0.0351 0.0174 -0.2165, 0.0666 0.0207 -0.2165, 0.3786 0.2309 -0.2165, 0.0666 -0.0187 -0.2165, 0.3786 -0.0189 -0.2165, 0.0365 -0.0153 -0.2165, 0.0394 -0.0122 -0.2165, 0.0464 -0.0144 -0.2165, 0.0415 -0.0085 -0.2165, 0.0613 -0.0144 -0.2165, 0.0427 -0.0043 -0.2165, 0.0431 0.0002 -0.2165, 0.0425 0.0058 -0.2165, 0.0314 0.0196 -0.2165, 0.027 0.0208 -0.2165, 0.0231 0.0212 -0.2165, 0.0184 0.0208 -0.2165, 0.0138 0.0196 -0.2165, 0.0138 0.0143 -0.2165, 0.0182 0.0162 -0.2165, 0.023 0.0168 -0.2165, 0.0246 -0.0192 -0.2165, 0.3786 -0.2309 -0.2165, 0.0236 -0.0192 -0.2165, -0.0188 -0.2309 -0.2165, 0.022 -0.0189 -0.2165, -0.3786 -0.2309 -0.2165, -0.3786 -0.0189 -0.2165, 0.018 -0.0184 -0.2165, -0.0573 -0.0187 -0.2165, -0.0524 -0.0079 -0.2165, -0.0502 -0.0114 -0.2165, -0.087 -0.0187 -0.2165, -0.0928 -0.0187 -0.2165, -0.0774 0.0207 -0.2165, -0.3786 0.2309 -0.2165, -0.0721 0.0207 -0.2165, -0.0469 -0.0145 -0.2165, -0.0428 -0.0169 -0.2165, -0.0383 -0.0183 -0.2165, -0.0334 -0.0187 -0.2165, -0.0227 -0.0187 -0.2165, -0.0227 0.0207 -0.2165, -0.0338 0.0207 -0.2165, -0.0484 0.0155 -0.2165, -0.0512 0.0125 -0.2165, -0.053 0.0091 -0.2165, -0.0395 0.0201 -0.2165, -0.0441 0.0185 -0.2165, -0.0484 0.0156 -0.2165, -0.063 -0.0187 -0.2165, -0.0668 -0.0076 -0.2165, -0.083 -0.0076 -0.2165, -0.0541 0.0052 -0.2165, -0.0544 0.0015 -0.2165, -0.0538 -0.0038 -0.2165, -0.2165 0.2419 -0.0591, -0.2953 0.2419 -0.0591, -0.2953 0.2461 0.0, -0.3937 0.2461 0.0, 0.2953 0.2461 -0.0, 0.3937 0.2461 0.0, 0.2953 0.2419 -0.0591, 0.2165 0.2419 -0.0591, 0.2165 0.2461 0.0, -0.2165 0.2461 -0.0, 0.2165 -0.2419 -0.0591, 0.2165 -0.2461 0.0, 0.0394 -0.2461 0.0, 0.0394 -0.2419 -0.0591, 0.2953 -0.2419 -0.0591, 0.2953 -0.2461 0.0, 0.3937 -0.2461 0.0, -0.0394 -0.2461 0.0, -0.2165 -0.2461 0.0, -0.0394 -0.2419 -0.0591, -0.2165 -0.2419 -0.0591, -0.2953 -0.2461 0.0, -0.3937 -0.2461 0.0, -0.2953 -0.2419 -0.0591, 0.3854 0.2378 0.1181, 0.3854 -0.2378 0.1181, -0.3854 0.2378 0.1181, -0.3854 -0.2378 0.1181, -0.2242 -0.1354 0.1181, -0.2256 -0.1254 0.1181, -0.2294 -0.1161 0.1181, -0.2356 -0.108 0.1181, -0.2256 -0.1455 0.1181, -0.2294 -0.1548 0.1181, -0.2356 -0.1629 0.1181, -0.273 -0.1729 0.1181, -0.2824 -0.169 0.1181, -0.2904 -0.1629 0.1181, -0.2966 -0.1548 0.1181, -0.2436 -0.169 0.1181, -0.253 -0.1729 0.1181, -0.263 -0.1742 0.1181, -0.2966 -0.1161 0.1181, -0.2904 -0.108 0.1181, -0.2824 -0.1019 0.1181, -0.253 -0.098 0.1181, -0.2436 -0.1019 0.1181, -0.3005 -0.1455 0.1181, -0.3018 -0.1354 0.1181, -0.3005 -0.1254 0.1181, -0.273 -0.098 0.1181, -0.263 -0.0967 0.1181, -0.263 -0.0967 0.1181
            ]
        }
        coordIndex [
            0,1,2,-1,2,1,3,-1,2,3,4,-1,5,6,7,-1,8,4,9,-1,9,4,10,-1,11,12,13,-1,13,12,1,-1,13,1,14,-1,15,16,17,-1,17,16,18,-1,7,14,5,-1,5,14,1,-1,5,1,19,-1,19,1,0,-1,19,0,10,-1,20,21,22,-1,23,24,25,-1,25,24,26,-1,25,26,27,-1,28,29,25,-1,25,29,30,-1,31,32,33,-1,33,32,34,-1,30,35,25,-1,25,35,34,-1,25,34,36,-1,36,34,32,-1,27,37,25,-1,25,37,38,-1,25,38,28,-1,21,39,22,-1,22,39,0,-1,22,0,40,-1,40,0,41,-1,40,41,42,-1,42,41,43,-1,15,44,16,-1,16,44,45,-1,16,45,46,-1,46,45,47,-1,46,47,48,-1,47,49,48,-1,48,49,50,-1,48,50,22,-1,22,50,51,-1,22,51,20,-1,39,52,0,-1,0,52,53,-1,0,53,54,-1,54,55,0,-1,0,55,56,-1,0,56,10,-1,10,56,57,-1,10,57,9,-1,9,57,58,-1,9,58,25,-1,25,58,59,-1,25,59,23,-1,16,42,18,-1,18,42,43,-1,18,43,60,-1,60,43,61,-1,60,61,62,-1,62,61,63,-1,62,63,64,-1,65,66,63,-1,63,66,2,-1,63,2,64,-1,64,2,4,-1,64,4,67,-1,67,4,8,-1,68,69,70,-1,71,2,72,-1,72,2,66,-1,72,66,73,-1,73,66,74,-1,73,74,75,-1,75,74,0,-1,70,76,68,-1,68,76,77,-1,68,77,78,-1,79,80,2,-1,2,80,81,-1,2,81,0,-1,0,81,82,-1,83,84,75,-1,75,84,85,-1,82,86,0,-1,0,86,87,-1,0,87,75,-1,75,87,88,-1,75,88,83,-1,78,79,68,-1,68,79,2,-1,68,2,89,-1,89,2,71,-1,89,71,90,-1,90,71,91,-1,85,92,75,-1,75,92,93,-1,75,93,68,-1,68,93,94,-1,68,94,69,-1,95,0,96,-1,96,0,74,-1,96,74,97,-1,97,74,98,-1,99,100,101,-1,101,100,41,-1,101,41,102,-1,102,41,0,-1,102,0,103,-1,103,0,95,-1,103,95,104,-1,105,106,107,-1,107,108,105,-1,105,108,63,-1,105,63,109,-1,109,63,61,-1,109,61,110,-1,110,61,111,-1,112,113,114,-1,114,113,115,-1,116,117,118,-1,118,117,65,-1,118,65,115,-1,115,65,63,-1,115,63,114,-1,114,63,108,-1,41,100,43,-1,43,100,111,-1,43,111,61,-1,98,74,117,-1,117,74,66,-1,117,66,65,-1,119,120,100,-1,100,120,111,-1,97,98,121,-1,100,99,119,-1,119,99,103,-1,119,103,121,-1,121,103,104,-1,121,104,97,-1,122,121,117,-1,117,121,98,-1,122,117,116,-1,116,113,122,-1,122,113,112,-1,122,112,120,-1,120,112,107,-1,107,106,120,-1,120,106,110,-1,120,110,111,-1,123,120,124,-1,124,120,119,-1,124,119,125,-1,125,119,126,-1,123,127,120,-1,120,127,128,-1,120,128,129,-1,130,131,122,-1,122,131,132,-1,122,132,133,-1,129,134,120,-1,120,134,135,-1,120,135,122,-1,122,135,136,-1,122,136,130,-1,137,138,121,-1,121,138,139,-1,121,140,119,-1,119,140,141,-1,119,141,126,-1,133,142,122,-1,122,142,143,-1,122,143,121,-1,121,143,144,-1,121,144,137,-1,139,145,121,-1,121,145,146,-1,121,146,140,-1,
        ]
    }
}
Shape{
    appearance Appearance {
        material  Material 	{
            diffuseColor 1.0 1.0 1.0
            specularColor 0.5019607843137255 0.5019607843137255 0.5019607843137255
            ambientIntensity 0.2
            transparency 0
            shininess 0.5
        }
    }
    geometry IndexedFaceSet {
        ccw TRUE
        solid FALSE
        coord DEF co Coordinate {
            point [
                -0.0394 -0.2461 0.0, -0.0394 -0.2559 0.0, 0.0394 -0.2461 0.0, 0.0394 -0.2559 0.0, 0.0394 -0.4134 -0.1772, 0.0394 -0.3543 -0.1772, -0.0394 -0.4134 -0.1772, -0.0394 -0.3543 -0.1772, 0.0394 -0.4134 -0.2362, -0.0394 -0.4134 -0.2362, 0.0394 -0.3543 -0.2362, -0.0394 -0.3543 -0.2362, -0.0394 -0.3368 -0.2342, 0.0394 -0.3368 -0.2342, -0.0394 -0.3202 -0.2284, 0.0394 -0.3202 -0.2284, -0.0394 -0.3052 -0.219, 0.0394 -0.3052 -0.219, -0.0394 -0.2928 -0.2066, 0.0394 -0.2928 -0.2066, -0.0394 -0.2834 -0.1916, 0.0394 -0.2834 -0.1916, -0.0394 -0.2776 -0.175, 0.0394 -0.2776 -0.175, -0.0394 -0.2756 -0.1575, 0.0394 -0.2756 -0.1575, 0.0394 -0.2756 -0.0787, -0.0394 -0.2756 -0.0787, 0.0394 -0.2749 -0.0736, -0.0394 -0.2749 -0.0736, 0.0394 -0.273 -0.0689, -0.0394 -0.273 -0.0689, 0.0394 -0.2698 -0.0648, -0.0394 -0.2698 -0.0648, 0.0394 -0.2657 -0.0617, -0.0394 -0.2657 -0.0617, 0.0394 -0.261 -0.0597, -0.0394 -0.261 -0.0597, 0.0394 -0.2559 -0.0591, -0.0394 -0.2559 -0.0591, 0.0394 -0.2419 -0.0591, -0.0394 -0.2419 -0.0591, -0.0394 -0.2763 -0.0027, 0.0394 -0.2763 -0.0027, -0.0394 -0.2953 -0.0105, 0.0394 -0.2953 -0.0105, -0.0394 -0.3116 -0.0231, 0.0394 -0.3116 -0.0231, -0.0394 -0.3241 -0.0394, 0.0394 -0.3241 -0.0394, -0.0394 -0.332 -0.0584, 0.0394 -0.332 -0.0584, -0.0394 -0.3346 -0.0787, 0.0394 -0.3346 -0.0787, 0.0394 -0.3346 -0.1575, -0.0394 -0.3346 -0.1575, 0.0394 -0.3353 -0.1626, -0.0394 -0.3353 -0.1626, 0.0394 -0.3373 -0.1673, -0.0394 -0.3373 -0.1673, 0.0394 -0.3404 -0.1714, -0.0394 -0.3404 -0.1714, 0.0394 -0.3445 -0.1745, -0.0394 -0.3445 -0.1745, 0.0394 -0.3492 -0.1765, -0.0394 -0.3492 -0.1765, 0.2953 -0.4134 -0.1772, 0.2953 -0.3543 -0.1772, 0.2165 -0.4134 -0.1772, 0.2165 -0.3543 -0.1772, 0.2953 -0.4134 -0.2362, 0.2165 -0.4134 -0.2362, 0.2953 -0.3543 -0.2362, 0.2165 -0.3543 -0.2362, 0.2165 -0.3368 -0.2342, 0.2953 -0.3368 -0.2342, 0.2165 -0.3202 -0.2284, 0.2953 -0.3202 -0.2284, 0.2165 -0.3052 -0.219, 0.2953 -0.3052 -0.219, 0.2165 -0.2928 -0.2066, 0.2953 -0.2928 -0.2066, 0.2165 -0.2834 -0.1916, 0.2953 -0.2834 -0.1916, 0.2165 -0.2776 -0.175, 0.2953 -0.2776 -0.175, 0.2165 -0.2756 -0.1575, 0.2953 -0.2756 -0.1575, 0.2953 -0.2756 -0.0787, 0.2165 -0.2756 -0.0787, 0.2953 -0.2749 -0.0736, 0.2165 -0.2749 -0.0736, 0.2953 -0.273 -0.0689, 0.2165 -0.273 -0.0689, 0.2953 -0.2698 -0.0648, 0.2165 -0.2698 -0.0648, 0.2953 -0.2657 -0.0617, 0.2165 -0.2657 -0.0617, 0.2953 -0.261 -0.0597, 0.2165 -0.261 -0.0597, 0.2953 -0.2559 -0.0591, 0.2165 -0.2559 -0.0591, 0.2953 -0.2419 -0.0591, 0.2165 -0.2419 -0.0591, 0.2165 -0.2461 0.0, 0.2165 -0.2559 0.0, 0.2953 -0.2461 0.0, 0.2953 -0.2559 0.0, 0.2165 -0.2763 -0.0027, 0.2953 -0.2763 -0.0027, 0.2165 -0.2953 -0.0105, 0.2953 -0.2953 -0.0105, 0.2165 -0.3116 -0.0231, 0.2953 -0.3116 -0.0231, 0.2165 -0.3241 -0.0394, 0.2953 -0.3241 -0.0394, 0.2165 -0.332 -0.0584, 0.2953 -0.332 -0.0584, 0.2165 -0.3346 -0.0787, 0.2953 -0.3346 -0.0787, 0.2953 -0.3346 -0.1575, 0.2165 -0.3346 -0.1575, 0.2953 -0.3492 -0.1765, 0.2953 -0.3445 -0.1745, 0.2953 -0.3404 -0.1714, 0.2953 -0.3373 -0.1673, 0.2953 -0.3353 -0.1626, 0.2165 -0.3353 -0.1626, 0.2165 -0.3373 -0.1673, 0.2165 -0.3404 -0.1714, 0.2165 -0.3445 -0.1745, 0.2165 -0.3492 -0.1765, -0.2165 -0.4134 -0.1772, -0.2165 -0.3543 -0.1772, -0.2953 -0.4134 -0.1772, -0.2953 -0.3543 -0.1772, -0.2165 -0.4134 -0.2362, -0.2953 -0.4134 -0.2362, -0.2165 -0.3543 -0.2362, -0.2953 -0.3543 -0.2362, -0.2953 -0.3368 -0.2342, -0.2165 -0.3368 -0.2342, -0.2953 -0.3202 -0.2284, -0.2165 -0.3202 -0.2284, -0.2953 -0.3052 -0.219, -0.2165 -0.3052 -0.219, -0.2953 -0.2928 -0.2066, -0.2165 -0.2928 -0.2066, -0.2953 -0.2834 -0.1916, -0.2165 -0.2834 -0.1916, -0.2953 -0.2776 -0.175, -0.2165 -0.2776 -0.175, -0.2953 -0.2756 -0.1575, -0.2165 -0.2756 -0.1575, -0.2165 -0.2756 -0.0787, -0.2953 -0.2756 -0.0787, -0.2165 -0.2749 -0.0736, -0.2953 -0.2749 -0.0736, -0.2165 -0.273 -0.0689, -0.2953 -0.273 -0.0689, -0.2165 -0.2698 -0.0648, -0.2953 -0.2698 -0.0648, -0.2165 -0.2657 -0.0617, -0.2953 -0.2657 -0.0617, -0.2165 -0.261 -0.0597, -0.2953 -0.261 -0.0597, -0.2165 -0.2559 -0.0591, -0.2953 -0.2559 -0.0591, -0.2165 -0.2419 -0.0591, -0.2953 -0.2419 -0.0591, -0.2953 -0.2461 0.0, -0.2953 -0.2559 0.0, -0.2165 -0.2461 0.0, -0.2165 -0.2559 0.0, -0.2953 -0.2763 -0.0027, -0.2165 -0.2763 -0.0027, -0.2953 -0.2953 -0.0105, -0.2165 -0.2953 -0.0105, -0.2953 -0.3116 -0.0231, -0.2165 -0.3116 -0.0231, -0.2953 -0.3241 -0.0394, -0.2165 -0.3241 -0.0394, -0.2953 -0.332 -0.0584, -0.2165 -0.332 -0.0584, -0.2953 -0.3346 -0.0787, -0.2165 -0.3346 -0.0787, -0.2165 -0.3346 -0.1575, -0.2953 -0.3346 -0.1575, -0.2165 -0.3492 -0.1765, -0.2165 -0.3445 -0.1745, -0.2165 -0.3404 -0.1714, -0.2165 -0.3373 -0.1673, -0.2165 -0.3353 -0.1626, -0.2953 -0.3353 -0.1626, -0.2953 -0.3373 -0.1673, -0.2953 -0.3404 -0.1714, -0.2953 -0.3445 -0.1745, -0.2953 -0.3492 -0.1765, 0.2953 0.3543 -0.1772, 0.2953 0.4134 -0.1772, 0.2165 0.3543 -0.1772, 0.2165 0.4134 -0.1772, 0.2953 0.4134 -0.2362, 0.2165 0.4134 -0.2362, 0.2953 0.3543 -0.2362, 0.2165 0.3543 -0.2362, 0.2953 0.2756 -0.1575, 0.2165 0.2756 -0.1575, 0.2165 0.2783 -0.1779, 0.2953 0.2783 -0.1779, 0.2165 0.2861 -0.1969, 0.2953 0.2861 -0.1969, 0.2165 0.2987 -0.2132, 0.2953 0.2987 -0.2132, 0.2165 0.315 -0.2257, 0.2953 0.315 -0.2257, 0.2165 0.334 -0.2335, 0.2953 0.334 -0.2335, 0.2953 0.2756 -0.0787, 0.2165 0.2756 -0.0787, 0.2953 0.2559 -0.0591, 0.2165 0.2559 -0.0591, 0.2953 0.2603 -0.0595, 0.2165 0.2603 -0.0595, 0.2953 0.2644 -0.061, 0.2165 0.2644 -0.061, 0.2953 0.2682 -0.0633, 0.2165 0.2682 -0.0633, 0.2953 0.2713 -0.0665, 0.2165 0.2713 -0.0665, 0.2953 0.2736 -0.0702, 0.2165 0.2736 -0.0702, 0.2953 0.2751 -0.0744, 0.2165 0.2751 -0.0744, 0.2953 0.2419 -0.0591, 0.2165 0.2419 -0.0591, 0.2165 0.2559 0.0, 0.2165 0.2461 0.0, 0.2953 0.2559 0.0, 0.2953 0.2461 -0.0, 0.2953 0.3346 -0.0787, 0.2165 0.3346 -0.0787, 0.2165 0.3327 -0.0612, 0.2953 0.3327 -0.0612, 0.2165 0.3268 -0.0446, 0.2953 0.3268 -0.0446, 0.2165 0.3175 -0.0296, 0.2953 0.3175 -0.0296, 0.2165 0.305 -0.0172, 0.2953 0.305 -0.0172, 0.2165 0.2901 -0.0078, 0.2953 0.2901 -0.0078, 0.2165 0.2734 -0.002, 0.2953 0.2734 -0.002, 0.2953 0.3346 -0.1575, 0.2165 0.3346 -0.1575, 0.2953 0.3492 -0.1765, 0.2953 0.3445 -0.1745, 0.2953 0.3404 -0.1714, 0.2953 0.3373 -0.1673, 0.2953 0.3353 -0.1626, 0.2165 0.3492 -0.1765, 0.2165 0.3445 -0.1745, 0.2165 0.3404 -0.1714, 0.2165 0.3373 -0.1673, 0.2165 0.3353 -0.1626, -0.2165 0.3543 -0.1772, -0.2165 0.4134 -0.1772, -0.2953 0.3543 -0.1772, -0.2953 0.4134 -0.1772, -0.2165 0.4134 -0.2362, -0.2953 0.4134 -0.2362, -0.2165 0.3543 -0.2362, -0.2953 0.3543 -0.2362, -0.2165 0.2756 -0.1575, -0.2953 0.2756 -0.1575, -0.2953 0.2783 -0.1779, -0.2165 0.2783 -0.1779, -0.2953 0.2861 -0.1969, -0.2165 0.2861 -0.1969, -0.2953 0.2987 -0.2132, -0.2165 0.2987 -0.2132, -0.2953 0.315 -0.2257, -0.2165 0.315 -0.2257, -0.2953 0.334 -0.2335, -0.2165 0.334 -0.2335, -0.2165 0.2756 -0.0787, -0.2953 0.2756 -0.0787, -0.2165 0.2559 -0.0591, -0.2953 0.2559 -0.0591, -0.2165 0.2603 -0.0595, -0.2953 0.2603 -0.0595, -0.2165 0.2644 -0.061, -0.2953 0.2644 -0.061, -0.2165 0.2682 -0.0633, -0.2953 0.2682 -0.0633, -0.2165 0.2713 -0.0665, -0.2953 0.2713 -0.0665, -0.2165 0.2736 -0.0702, -0.2953 0.2736 -0.0702, -0.2165 0.2751 -0.0744, -0.2953 0.2751 -0.0744, -0.2165 0.2419 -0.0591, -0.2953 0.2419 -0.0591, -0.2953 0.2559 0.0, -0.2953 0.2461 0.0, -0.2165 0.2559 0.0, -0.2165 0.2461 -0.0, -0.2165 0.3346 -0.0787, -0.2953 0.3346 -0.0787, -0.2953 0.3327 -0.0612, -0.2165 0.3327 -0.0612, -0.2953 0.3268 -0.0446, -0.2165 0.3268 -0.0446, -0.2953 0.3175 -0.0296, -0.2165 0.3175 -0.0296, -0.2953 0.305 -0.0172, -0.2165 0.305 -0.0172, -0.2953 0.2901 -0.0078, -0.2165 0.2901 -0.0078, -0.2953 0.2734 -0.002, -0.2165 0.2734 -0.002, -0.2165 0.3346 -0.1575, -0.2953 0.3346 -0.1575, -0.2165 0.3492 -0.1765, -0.2165 0.3445 -0.1745, -0.2165 0.3404 -0.1714, -0.2165 0.3373 -0.1673, -0.2165 0.3353 -0.1626, -0.2953 0.3492 -0.1765, -0.2953 0.3445 -0.1745, -0.2953 0.3404 -0.1714, -0.2953 0.3373 -0.1673, -0.2953 0.3353 -0.1626, -0.2953 0.3353 -0.1626
            ]
        }
        coordIndex [
            0,1,2,-1,2,1,3,-1,4,5,6,-1,6,5,7,-1,8,4,9,-1,9,4,6,-1,10,8,11,-1,11,8,9,-1,10,11,12,-1,10,12,13,-1,13,12,14,-1,13,14,15,-1,15,14,16,-1,15,16,17,-1,17,16,18,-1,17,18,19,-1,19,18,20,-1,19,20,21,-1,21,20,22,-1,21,22,23,-1,23,22,24,-1,23,24,25,-1,26,25,27,-1,27,25,24,-1,26,27,28,-1,28,27,29,-1,28,29,30,-1,30,29,31,-1,30,31,32,-1,32,31,33,-1,32,33,34,-1,34,33,35,-1,34,35,36,-1,36,35,37,-1,36,37,38,-1,38,37,39,-1,40,38,41,-1,41,38,39,-1,3,1,42,-1,3,42,43,-1,43,42,44,-1,43,44,45,-1,45,44,46,-1,45,46,47,-1,47,46,48,-1,47,48,49,-1,49,48,50,-1,49,50,51,-1,51,50,52,-1,51,52,53,-1,54,53,55,-1,55,53,52,-1,54,55,56,-1,56,55,57,-1,56,57,58,-1,58,57,59,-1,58,59,60,-1,60,59,61,-1,60,61,62,-1,62,61,63,-1,62,63,64,-1,64,63,65,-1,64,65,5,-1,5,65,7,-1,4,8,5,-1,5,8,10,-1,5,10,64,-1,64,10,13,-1,64,13,62,-1,62,13,15,-1,62,15,60,-1,15,17,60,-1,60,17,19,-1,60,19,58,-1,58,19,21,-1,58,21,56,-1,56,21,23,-1,56,23,54,-1,54,23,25,-1,54,25,53,-1,53,25,26,-1,53,26,51,-1,51,26,28,-1,51,28,49,-1,49,28,30,-1,49,30,47,-1,47,30,32,-1,47,32,45,-1,45,32,34,-1,45,34,43,-1,43,34,36,-1,43,36,3,-1,3,36,38,-1,3,38,2,-1,2,38,40,-1,9,6,11,-1,11,6,7,-1,11,7,12,-1,12,7,65,-1,12,65,14,-1,14,65,63,-1,14,63,16,-1,16,63,61,-1,16,61,18,-1,18,61,59,-1,0,41,1,-1,1,41,39,-1,1,39,42,-1,42,39,37,-1,42,37,44,-1,44,37,35,-1,44,35,46,-1,46,35,33,-1,46,33,48,-1,48,33,31,-1,48,31,50,-1,50,31,29,-1,50,29,52,-1,52,29,27,-1,52,27,55,-1,55,27,24,-1,55,24,57,-1,57,24,22,-1,57,22,59,-1,59,22,20,-1,59,20,18,-1,66,67,68,-1,68,67,69,-1,70,66,71,-1,71,66,68,-1,72,70,73,-1,73,70,71,-1,72,73,74,-1,72,74,75,-1,75,74,76,-1,75,76,77,-1,77,76,78,-1,77,78,79,-1,79,78,80,-1,79,80,81,-1,81,80,82,-1,81,82,83,-1,83,82,84,-1,83,84,85,-1,85,84,86,-1,85,86,87,-1,88,87,89,-1,89,87,86,-1,88,89,90,-1,90,89,91,-1,90,91,92,-1,92,91,93,-1,92,93,94,-1,94,93,95,-1,94,95,96,-1,96,95,97,-1,96,97,98,-1,98,97,99,-1,98,99,100,-1,100,99,101,-1,102,100,103,-1,103,100,101,-1,104,105,106,-1,106,105,107,-1,107,105,108,-1,107,108,109,-1,109,108,110,-1,109,110,111,-1,111,110,112,-1,111,112,113,-1,113,112,114,-1,113,114,115,-1,115,114,116,-1,115,116,117,-1,117,116,118,-1,117,118,119,-1,120,119,121,-1,121,119,118,-1,66,70,67,-1,67,70,72,-1,67,72,122,-1,122,72,75,-1,122,75,123,-1,123,75,77,-1,123,77,124,-1,77,79,124,-1,124,79,81,-1,124,81,125,-1,125,81,83,-1,125,83,126,-1,126,83,85,-1,126,85,120,-1,120,85,87,-1,120,87,119,-1,119,87,88,-1,119,88,117,-1,117,88,90,-1,117,90,115,-1,115,90,92,-1,115,92,113,-1,113,92,94,-1,113,94,111,-1,111,94,96,-1,111,96,109,-1,109,96,98,-1,109,98,107,-1,107,98,100,-1,107,100,106,-1,106,100,102,-1,120,121,126,-1,126,121,127,-1,126,127,125,-1,125,127,128,-1,125,128,124,-1,124,128,129,-1,124,129,123,-1,123,129,130,-1,123,130,122,-1,122,130,131,-1,122,131,67,-1,67,131,69,-1,71,68,73,-1,73,68,69,-1,73,69,74,-1,74,69,131,-1,74,131,76,-1,76,131,130,-1,76,130,78,-1,78,130,129,-1,78,129,80,-1,80,129,128,-1,104,103,105,-1,105,103,101,-1,105,101,108,-1,108,101,99,-1,108,99,110,-1,110,99,97,-1,110,97,112,-1,112,97,95,-1,112,95,114,-1,114,95,93,-1,114,93,116,-1,116,93,91,-1,116,91,118,-1,118,91,89,-1,118,89,121,-1,121,89,86,-1,121,86,127,-1,127,86,84,-1,127,84,128,-1,128,84,82,-1,128,82,80,-1,132,133,134,-1,134,133,135,-1,136,132,137,-1,137,132,134,-1,138,136,139,-1,139,136,137,-1,138,139,140,-1,138,140,141,-1,141,140,142,-1,141,142,143,-1,143,142,144,-1,143,144,145,-1,145,144,146,-1,145,146,147,-1,147,146,148,-1,147,148,149,-1,149,148,150,-1,149,150,151,-1,151,150,152,-1,151,152,153,-1,154,153,155,-1,155,153,152,-1,154,155,156,-1,156,155,157,-1,156,157,158,-1,158,157,159,-1,158,159,160,-1,160,159,161,-1,160,161,162,-1,162,161,163,-1,162,163,164,-1,164,163,165,-1,164,165,166,-1,166,165,167,-1,168,166,169,-1,169,166,167,-1,170,171,172,-1,172,171,173,-1,173,171,174,-1,173,174,175,-1,175,174,176,-1,175,176,177,-1,177,176,178,-1,177,178,179,-1,179,178,180,-1,179,180,181,-1,181,180,182,-1,181,182,183,-1,183,182,184,-1,183,184,185,-1,186,185,187,-1,187,185,184,-1,132,136,133,-1,133,136,138,-1,133,138,188,-1,188,138,141,-1,188,141,189,-1,189,141,143,-1,189,143,190,-1,143,145,190,-1,190,145,147,-1,190,147,191,-1,191,147,149,-1,191,149,192,-1,192,149,151,-1,192,151,186,-1,186,151,153,-1,186,153,185,-1,185,153,154,-1,185,154,183,-1,183,154,156,-1,183,156,181,-1,181,156,158,-1,181,158,179,-1,179,158,160,-1,179,160,177,-1,177,160,162,-1,177,162,175,-1,175,162,164,-1,175,164,173,-1,173,164,166,-1,173,166,172,-1,172,166,168,-1,186,187,192,-1,192,187,193,-1,192,193,191,-1,191,193,194,-1,191,194,190,-1,190,194,195,-1,190,195,189,-1,189,195,196,-1,189,196,188,-1,188,196,197,-1,188,197,133,-1,133,197,135,-1,137,134,139,-1,139,134,135,-1,139,135,140,-1,140,135,197,-1,140,197,142,-1,142,197,196,-1,142,196,144,-1,144,196,195,-1,144,195,146,-1,146,195,194,-1,170,169,171,-1,171,169,167,-1,171,167,174,-1,174,167,165,-1,174,165,176,-1,176,165,163,-1,176,163,178,-1,178,163,161,-1,178,161,180,-1,180,161,159,-1,180,159,182,-1,182,159,157,-1,182,157,184,-1,184,157,155,-1,184,155,187,-1,187,155,152,-1,187,152,193,-1,193,152,150,-1,193,150,194,-1,194,150,148,-1,194,148,146,-1,198,199,200,-1,200,199,201,-1,199,202,201,-1,201,202,203,-1,202,204,203,-1,203,204,205,-1,206,207,208,-1,206,208,209,-1,209,208,210,-1,209,210,211,-1,211,210,212,-1,211,212,213,-1,213,212,214,-1,213,214,215,-1,215,214,216,-1,215,216,217,-1,217,216,205,-1,217,205,204,-1,206,218,207,-1,207,218,219,-1,220,221,222,-1,222,221,223,-1,222,223,224,-1,224,223,225,-1,224,225,226,-1,226,225,227,-1,226,227,228,-1,228,227,229,-1,228,229,230,-1,230,229,231,-1,230,231,232,-1,232,231,233,-1,232,233,218,-1,218,233,219,-1,220,234,221,-1,221,234,235,-1,236,237,238,-1,238,237,239,-1,240,241,242,-1,240,242,243,-1,243,242,244,-1,243,244,245,-1,245,244,246,-1,245,246,247,-1,247,246,248,-1,247,248,249,-1,249,248,250,-1,249,250,251,-1,251,250,252,-1,251,252,253,-1,253,252,236,-1,253,236,238,-1,240,254,241,-1,241,254,255,-1,202,199,204,-1,204,199,198,-1,204,198,217,-1,217,198,256,-1,217,256,215,-1,215,256,257,-1,215,257,213,-1,213,257,258,-1,213,258,211,-1,211,258,259,-1,211,259,209,-1,209,259,260,-1,209,260,206,-1,206,260,254,-1,206,254,218,-1,218,254,240,-1,218,240,232,-1,232,240,243,-1,232,243,230,-1,230,243,245,-1,230,245,228,-1,228,245,247,-1,228,247,226,-1,226,247,249,-1,226,249,224,-1,224,249,251,-1,224,251,222,-1,222,251,253,-1,222,253,220,-1,220,253,238,-1,220,238,234,-1,234,238,239,-1,198,200,256,-1,256,200,261,-1,256,261,257,-1,257,261,262,-1,257,262,258,-1,258,262,263,-1,258,263,259,-1,259,263,264,-1,259,264,260,-1,260,264,265,-1,260,265,254,-1,254,265,255,-1,235,237,221,-1,221,237,236,-1,221,236,223,-1,223,236,252,-1,223,252,225,-1,225,252,250,-1,225,250,227,-1,227,250,248,-1,227,248,229,-1,229,248,246,-1,229,246,231,-1,231,246,244,-1,231,244,233,-1,233,244,242,-1,233,242,219,-1,219,242,241,-1,219,241,207,-1,207,241,255,-1,207,255,208,-1,208,255,265,-1,208,265,210,-1,210,265,264,-1,210,264,212,-1,212,264,263,-1,212,263,214,-1,214,263,262,-1,214,262,216,-1,216,262,261,-1,216,261,205,-1,205,261,200,-1,205,200,203,-1,203,200,201,-1,266,267,268,-1,268,267,269,-1,267,270,269,-1,269,270,271,-1,270,272,271,-1,271,272,273,-1,274,275,276,-1,274,276,277,-1,277,276,278,-1,277,278,279,-1,279,278,280,-1,279,280,281,-1,281,280,282,-1,281,282,283,-1,283,282,284,-1,283,284,285,-1,285,284,273,-1,285,273,272,-1,274,286,275,-1,275,286,287,-1,288,289,290,-1,290,289,291,-1,290,291,292,-1,292,291,293,-1,292,293,294,-1,294,293,295,-1,294,295,296,-1,296,295,297,-1,296,297,298,-1,298,297,299,-1,298,299,300,-1,300,299,301,-1,300,301,286,-1,286,301,287,-1,288,302,289,-1,289,302,303,-1,304,305,306,-1,306,305,307,-1,308,309,310,-1,308,310,311,-1,311,310,312,-1,311,312,313,-1,313,312,314,-1,313,314,315,-1,315,314,316,-1,315,316,317,-1,317,316,318,-1,317,318,319,-1,319,318,320,-1,319,320,321,-1,321,320,304,-1,321,304,306,-1,308,322,309,-1,309,322,323,-1,270,267,272,-1,272,267,266,-1,272,266,285,-1,285,266,324,-1,285,324,283,-1,283,324,325,-1,283,325,281,-1,281,325,326,-1,281,326,279,-1,279,326,327,-1,279,327,277,-1,277,327,328,-1,277,328,274,-1,274,328,322,-1,274,322,286,-1,286,322,308,-1,286,308,300,-1,300,308,311,-1,300,311,298,-1,298,311,313,-1,298,313,296,-1,296,313,315,-1,296,315,294,-1,294,315,317,-1,294,317,292,-1,292,317,319,-1,292,319,290,-1,290,319,321,-1,290,321,288,-1,288,321,306,-1,288,306,302,-1,302,306,307,-1,266,268,324,-1,324,268,329,-1,324,329,325,-1,325,329,330,-1,325,330,326,-1,326,330,331,-1,326,331,327,-1,327,331,332,-1,327,332,328,-1,328,332,333,-1,328,333,322,-1,322,333,323,-1,303,305,289,-1,289,305,304,-1,289,304,291,-1,291,304,320,-1,291,320,293,-1,293,320,318,-1,293,318,295,-1,295,318,316,-1,295,316,297,-1,297,316,314,-1,297,314,299,-1,299,314,312,-1,299,312,301,-1,301,312,310,-1,301,310,287,-1,287,310,309,-1,287,309,275,-1,275,309,323,-1,275,323,276,-1,276,323,333,-1,276,333,278,-1,278,333,332,-1,278,332,280,-1,280,332,331,-1,280,331,282,-1,282,331,330,-1,282,330,284,-1,284,330,329,-1,284,329,273,-1,273,329,268,-1,273,268,271,-1,271,268,269,-1,
        ]
    }
}
Shape{
    appearance Appearance {
        material  Material 	{
            diffuseColor 0.0 0.0 0.0
            specularColor 0.0 0.0 0.0
            ambientIntensity 0.2
            transparency 0
            shininess 0.5
        }
    }
    geometry IndexedFaceSet {
        ccw TRUE
        solid FALSE
        coord DEF co Coordinate {
            point [
                -0.2242 -0.1354 0.1177, -0.2242 -0.1354 0.1181, -0.2256 -0.1254 0.1177, -0.2256 -0.1254 0.1181, -0.2294 -0.1161 0.1177, -0.2294 -0.1161 0.1181, -0.2356 -0.108 0.1177, -0.2356 -0.108 0.1181, -0.2436 -0.1019 0.1177, -0.2436 -0.1019 0.1181, -0.253 -0.098 0.1177, -0.253 -0.098 0.1181, -0.263 -0.0967 0.1177, -0.263 -0.0967 0.1181, -0.273 -0.098 0.1177, -0.273 -0.098 0.1181, -0.2824 -0.1019 0.1177, -0.2824 -0.1019 0.1181, -0.2904 -0.108 0.1177, -0.2904 -0.108 0.1181, -0.2966 -0.1161 0.1177, -0.2966 -0.1161 0.1181, -0.3005 -0.1254 0.1177, -0.3005 -0.1254 0.1181, -0.3018 -0.1354 0.1177, -0.3018 -0.1354 0.1181, -0.3005 -0.1455 0.1177, -0.3005 -0.1455 0.1181, -0.2966 -0.1548 0.1177, -0.2966 -0.1548 0.1181, -0.2904 -0.1629 0.1177, -0.2904 -0.1629 0.1181, -0.2824 -0.169 0.1177, -0.2824 -0.169 0.1181, -0.273 -0.1729 0.1177, -0.273 -0.1729 0.1181, -0.263 -0.1742 0.1177, -0.263 -0.1742 0.1181, -0.253 -0.1729 0.1177, -0.253 -0.1729 0.1181, -0.2436 -0.169 0.1177, -0.2436 -0.169 0.1181, -0.2356 -0.1629 0.1177, -0.2356 -0.1629 0.1181, -0.2294 -0.1548 0.1177, -0.2294 -0.1548 0.1181, -0.2256 -0.1455 0.1177, -0.2256 -0.1455 0.1181, -0.263 -0.1354 0.1177, -0.0774 0.0207 -0.2161, -0.0928 -0.0187 -0.2161, -0.0774 0.0207 -0.2165, -0.0928 -0.0187 -0.2165, -0.087 -0.0187 -0.2161, -0.087 -0.0187 -0.2165, -0.083 -0.0076 -0.2161, -0.083 -0.0076 -0.2165, -0.0668 -0.0076 -0.2161, -0.0668 -0.0076 -0.2165, -0.063 -0.0187 -0.2161, -0.063 -0.0187 -0.2165, -0.0573 -0.0187 -0.2161, -0.0573 -0.0187 -0.2165, -0.0721 0.0207 -0.2161, -0.0721 0.0207 -0.2165, -0.0681 -0.0033 -0.2161, -0.0813 -0.0033 -0.2161, -0.074 0.0131 -0.2161, -0.0744 0.0145 -0.2161, -0.0746 0.0159 -0.2161, -0.0747 0.0159 -0.2161, -0.075 0.0145 -0.2161, -0.0753 0.0131 -0.2161, -0.0681 -0.0033 -0.2165, -0.0813 -0.0033 -0.2165, -0.074 0.0131 -0.2165, -0.0744 0.0145 -0.2165, -0.0746 0.0159 -0.2165, -0.0747 0.0159 -0.2165, -0.075 0.0145 -0.2165, -0.0753 0.0131 -0.2165, -0.0334 -0.0187 -0.2161, -0.0227 -0.0187 -0.2161, -0.0334 -0.0187 -0.2165, -0.0227 -0.0187 -0.2165, -0.0227 0.0207 -0.2161, -0.0227 0.0207 -0.2165, -0.0338 0.0207 -0.2161, -0.0338 0.0207 -0.2165, -0.0544 0.0015 -0.2161, -0.0544 0.0015 -0.2165, -0.0541 0.0052 -0.2165, -0.0541 0.0052 -0.2161, -0.053 0.0091 -0.2165, -0.053 0.0091 -0.2161, -0.0512 0.0125 -0.2165, -0.0512 0.0125 -0.2161, -0.0484 0.0155 -0.2165, -0.0484 0.0155 -0.2161, -0.0484 0.0156 -0.2165, -0.0484 0.0156 -0.2161, -0.0441 0.0185 -0.2165, -0.0441 0.0185 -0.2161, -0.0395 0.0201 -0.2165, -0.0395 0.0201 -0.2161, -0.0383 -0.0183 -0.2165, -0.0383 -0.0183 -0.2161, -0.0428 -0.0169 -0.2165, -0.0428 -0.0169 -0.2161, -0.0469 -0.0145 -0.2165, -0.0469 -0.0145 -0.2161, -0.0502 -0.0114 -0.2165, -0.0502 -0.0114 -0.2161, -0.0524 -0.0079 -0.2165, -0.0524 -0.0079 -0.2161, -0.0538 -0.0038 -0.2165, -0.0538 -0.0038 -0.2161, -0.0465 0.0108 -0.2161, -0.0446 0.0129 -0.2161, -0.0417 0.0147 -0.2161, -0.0384 0.0159 -0.2161, -0.0338 0.0164 -0.2161, -0.028 0.0164 -0.2161, -0.028 -0.0144 -0.2161, -0.0336 -0.0144 -0.2161, -0.0377 -0.014 -0.2161, -0.041 -0.013 -0.2161, -0.0437 -0.0114 -0.2161, -0.0459 -0.0092 -0.2161, -0.0476 -0.0065 -0.2161, -0.0487 -0.0028 -0.2161, -0.0491 0.0014 -0.2161, -0.0488 0.0053 -0.2161, -0.0478 0.0084 -0.2161, -0.0338 0.0164 -0.2165, -0.028 0.0164 -0.2165, -0.0384 0.0159 -0.2165, -0.0417 0.0147 -0.2165, -0.0446 0.0129 -0.2165, -0.0465 0.0108 -0.2165, -0.0478 0.0084 -0.2165, -0.0488 0.0053 -0.2165, -0.0491 0.0014 -0.2165, -0.0487 -0.0028 -0.2165, -0.0476 -0.0065 -0.2165, -0.0459 -0.0092 -0.2165, -0.0437 -0.0114 -0.2165, -0.041 -0.013 -0.2165, -0.0377 -0.014 -0.2165, -0.0336 -0.0144 -0.2165, -0.028 -0.0144 -0.2165, -0.015 -0.0144 -0.2161, -0.015 -0.0187 -0.2161, -0.015 -0.0144 -0.2165, -0.015 -0.0187 -0.2165, 0.0061 -0.0187 -0.2161, 0.0061 -0.0187 -0.2165, 0.0061 0.0207 -0.2161, 0.0061 0.0207 -0.2165, -0.014 0.0207 -0.2161, -0.014 0.0207 -0.2165, -0.014 0.0164 -0.2161, -0.014 0.0164 -0.2165, 0.0008 0.0164 -0.2161, 0.0008 0.0164 -0.2165, 0.0008 0.0034 -0.2161, 0.0008 0.0034 -0.2165, -0.0131 0.0034 -0.2161, -0.0131 0.0034 -0.2165, -0.0131 -0.0009 -0.2161, -0.0131 -0.0009 -0.2165, 0.0008 -0.0009 -0.2161, 0.0008 -0.0009 -0.2165, 0.0008 -0.0144 -0.2161, 0.0008 -0.0144 -0.2165, 0.0138 -0.0123 -0.2161, 0.0138 -0.0167 -0.2161, 0.0138 -0.0123 -0.2165, 0.0138 -0.0167 -0.2165, 0.018 -0.0184 -0.2161, 0.0246 -0.0192 -0.2161, 0.0246 -0.0192 -0.2165, 0.0236 -0.0192 -0.2165, 0.0236 -0.0192 -0.2161, 0.022 -0.0189 -0.2165, 0.018 -0.0184 -0.2165, 0.0269 -0.0189 -0.2165, 0.0295 -0.0187 -0.2161, 0.0295 -0.0187 -0.2165, 0.0333 -0.0174 -0.2161, 0.0333 -0.0174 -0.2165, 0.0365 -0.0153 -0.2161, 0.0365 -0.0153 -0.2165, 0.0394 -0.0122 -0.2161, 0.0394 -0.0122 -0.2165, 0.0415 -0.0085 -0.2161, 0.0415 -0.0085 -0.2165, 0.0427 -0.0043 -0.2161, 0.0427 -0.0043 -0.2165, 0.0431 0.0002 -0.2161, 0.0431 0.0002 -0.2165, 0.0231 0.0212 -0.2161, 0.0231 0.0212 -0.2165, 0.027 0.0208 -0.2165, 0.027 0.0208 -0.2161, 0.0314 0.0196 -0.2165, 0.0314 0.0196 -0.2161, 0.0351 0.0174 -0.2165, 0.0351 0.0174 -0.2161, 0.0387 0.014 -0.2165, 0.0387 0.014 -0.2161, 0.041 0.0103 -0.2165, 0.041 0.0103 -0.2161, 0.0425 0.0058 -0.2165, 0.0425 0.0058 -0.2161, 0.0138 0.0196 -0.2161, 0.0138 0.0196 -0.2165, 0.0184 0.0208 -0.2165, 0.0184 0.0208 -0.2161, 0.0138 0.0143 -0.2161, 0.0138 0.0143 -0.2165, 0.023 0.0168 -0.2161, 0.023 0.0168 -0.2165, 0.0182 0.0162 -0.2165, 0.0182 0.0162 -0.2161, 0.0378 0.0006 -0.2161, 0.0378 0.0006 -0.2165, 0.0376 0.0036 -0.2165, 0.0376 0.0036 -0.2161, 0.0366 0.0078 -0.2165, 0.0366 0.0078 -0.2161, 0.0349 0.0109 -0.2165, 0.0349 0.0109 -0.2161, 0.0326 0.0135 -0.2165, 0.0326 0.0135 -0.2161, 0.0298 0.0153 -0.2165, 0.0298 0.0153 -0.2161, 0.0269 0.0164 -0.2165, 0.0269 0.0164 -0.2161, 0.0239 -0.0149 -0.2161, 0.0239 -0.0149 -0.2165, 0.0276 -0.0144 -0.2165, 0.0276 -0.0144 -0.2161, 0.0304 -0.0134 -0.2165, 0.0304 -0.0134 -0.2161, 0.0329 -0.0118 -0.2165, 0.0329 -0.0118 -0.2161, 0.0347 -0.0098 -0.2165, 0.0347 -0.0098 -0.2161, 0.0363 -0.0071 -0.2165, 0.0363 -0.0071 -0.2161, 0.0374 -0.0037 -0.2165, 0.0374 -0.0037 -0.2161, 0.0145 -0.0127 -0.2165, 0.0145 -0.0127 -0.2161, 0.0187 -0.0143 -0.2165, 0.0187 -0.0143 -0.2161, 0.0464 -0.0144 -0.2161, 0.0464 -0.0187 -0.2161, 0.0464 -0.0144 -0.2165, 0.0464 -0.0187 -0.2165, 0.0666 -0.0187 -0.2161, 0.0666 -0.0187 -0.2165, 0.0666 0.0207 -0.2161, 0.0666 0.0207 -0.2165, 0.0613 0.0207 -0.2161, 0.0613 0.0207 -0.2165, 0.0613 -0.0144 -0.2161, 0.0613 -0.0144 -0.2165, 0.0613 -0.0144 -0.2165
            ]
        }
        coordIndex [
            0,1,2,-1,2,1,3,-1,2,3,4,-1,4,3,5,-1,4,5,6,-1,6,5,7,-1,6,7,8,-1,8,7,9,-1,8,9,10,-1,10,9,11,-1,10,11,12,-1,12,11,13,-1,12,13,14,-1,14,13,15,-1,14,15,16,-1,16,15,17,-1,16,17,18,-1,18,17,19,-1,18,19,20,-1,20,19,21,-1,20,21,22,-1,22,21,23,-1,22,23,24,-1,24,23,25,-1,24,25,26,-1,26,25,27,-1,26,27,28,-1,28,27,29,-1,28,29,30,-1,30,29,31,-1,30,31,32,-1,32,31,33,-1,32,33,34,-1,34,33,35,-1,34,35,36,-1,36,35,37,-1,36,37,38,-1,38,37,39,-1,38,39,40,-1,40,39,41,-1,40,41,42,-1,42,41,43,-1,42,43,44,-1,44,43,45,-1,44,45,46,-1,46,45,47,-1,46,47,0,-1,0,47,1,-1,44,46,48,-1,48,46,0,-1,48,0,2,-1,38,40,48,-1,48,40,42,-1,48,42,44,-1,32,34,48,-1,48,34,36,-1,48,36,38,-1,26,28,48,-1,48,28,30,-1,48,30,32,-1,20,22,48,-1,48,22,24,-1,48,24,26,-1,14,16,48,-1,48,16,18,-1,48,18,20,-1,8,10,48,-1,48,10,12,-1,48,12,14,-1,2,4,48,-1,48,4,6,-1,48,6,8,-1,49,50,51,-1,51,50,52,-1,50,53,52,-1,52,53,54,-1,53,55,54,-1,54,55,56,-1,55,57,56,-1,56,57,58,-1,57,59,58,-1,58,59,60,-1,59,61,60,-1,60,61,62,-1,61,63,62,-1,62,63,64,-1,63,49,64,-1,64,49,51,-1,65,57,66,-1,66,57,55,-1,67,63,65,-1,65,63,61,-1,65,61,57,-1,57,61,59,-1,67,68,63,-1,63,68,69,-1,63,69,49,-1,49,69,70,-1,49,70,71,-1,71,72,49,-1,49,72,66,-1,49,66,50,-1,50,66,55,-1,50,55,53,-1,65,66,73,-1,73,66,74,-1,67,65,75,-1,75,65,73,-1,67,75,76,-1,67,76,68,-1,68,76,77,-1,68,77,69,-1,70,69,78,-1,78,69,77,-1,70,78,79,-1,70,79,71,-1,71,79,80,-1,71,80,72,-1,66,72,74,-1,74,72,80,-1,81,82,83,-1,83,82,84,-1,82,85,84,-1,84,85,86,-1,85,87,86,-1,86,87,88,-1,89,90,91,-1,89,91,92,-1,92,91,93,-1,92,93,94,-1,94,93,95,-1,94,95,96,-1,96,95,97,-1,96,97,98,-1,98,97,99,-1,98,99,100,-1,100,99,101,-1,100,101,102,-1,102,101,103,-1,102,103,104,-1,104,103,88,-1,104,88,87,-1,81,83,105,-1,81,105,106,-1,106,105,107,-1,106,107,108,-1,108,107,109,-1,108,109,110,-1,110,109,111,-1,110,111,112,-1,112,111,113,-1,112,113,114,-1,114,113,115,-1,114,115,116,-1,116,115,90,-1,116,90,89,-1,94,96,117,-1,117,96,98,-1,117,98,118,-1,118,98,100,-1,118,100,119,-1,119,100,102,-1,119,102,120,-1,120,102,104,-1,120,104,121,-1,121,104,87,-1,121,87,122,-1,122,87,85,-1,122,85,123,-1,123,85,82,-1,123,82,124,-1,124,82,81,-1,124,81,125,-1,125,81,106,-1,125,106,126,-1,126,106,108,-1,126,108,127,-1,127,108,110,-1,127,110,128,-1,128,110,112,-1,128,112,129,-1,129,112,114,-1,129,114,130,-1,130,114,116,-1,130,116,131,-1,131,116,89,-1,131,89,132,-1,132,89,92,-1,132,92,133,-1,133,92,94,-1,133,94,117,-1,121,122,134,-1,134,122,135,-1,121,134,136,-1,121,136,120,-1,120,136,137,-1,120,137,119,-1,119,137,138,-1,119,138,118,-1,118,138,139,-1,118,139,117,-1,117,139,140,-1,117,140,133,-1,133,140,141,-1,133,141,132,-1,132,141,142,-1,132,142,131,-1,131,142,143,-1,131,143,130,-1,130,143,144,-1,130,144,129,-1,129,144,145,-1,129,145,128,-1,128,145,146,-1,128,146,127,-1,127,146,147,-1,127,147,126,-1,126,147,148,-1,126,148,125,-1,125,148,149,-1,125,149,124,-1,123,124,150,-1,150,124,149,-1,122,123,135,-1,135,123,150,-1,151,152,153,-1,153,152,154,-1,152,155,154,-1,154,155,156,-1,155,157,156,-1,156,157,158,-1,157,159,158,-1,158,159,160,-1,159,161,160,-1,160,161,162,-1,161,163,162,-1,162,163,164,-1,163,165,164,-1,164,165,166,-1,165,167,166,-1,166,167,168,-1,167,169,168,-1,168,169,170,-1,169,171,170,-1,170,171,172,-1,171,173,172,-1,172,173,174,-1,173,151,174,-1,174,151,153,-1,155,152,151,-1,151,173,155,-1,155,173,171,-1,155,171,157,-1,161,159,163,-1,163,159,157,-1,163,157,165,-1,165,157,171,-1,165,171,167,-1,167,171,169,-1,175,176,177,-1,177,176,178,-1,178,176,179,-1,180,181,182,-1,180,182,183,-1,183,182,184,-1,183,184,179,-1,179,184,185,-1,179,185,178,-1,181,180,186,-1,186,180,187,-1,186,187,188,-1,188,187,189,-1,188,189,190,-1,190,189,191,-1,190,191,192,-1,192,191,193,-1,192,193,194,-1,194,193,195,-1,194,195,196,-1,196,195,197,-1,196,197,198,-1,198,197,199,-1,198,199,200,-1,201,202,203,-1,201,203,204,-1,204,203,205,-1,204,205,206,-1,206,205,207,-1,206,207,208,-1,208,207,209,-1,208,209,210,-1,210,209,211,-1,210,211,212,-1,212,211,213,-1,212,213,214,-1,214,213,200,-1,214,200,199,-1,215,216,217,-1,215,217,218,-1,218,217,202,-1,218,202,201,-1,215,219,216,-1,216,219,220,-1,221,222,223,-1,221,223,224,-1,224,223,220,-1,224,220,219,-1,225,226,227,-1,225,227,228,-1,228,227,229,-1,228,229,230,-1,230,229,231,-1,230,231,232,-1,232,231,233,-1,232,233,234,-1,234,233,235,-1,234,235,236,-1,236,235,237,-1,236,237,238,-1,238,237,222,-1,238,222,221,-1,239,240,241,-1,239,241,242,-1,242,241,243,-1,242,243,244,-1,244,243,245,-1,244,245,246,-1,246,245,247,-1,246,247,248,-1,248,247,249,-1,248,249,250,-1,250,249,251,-1,250,251,252,-1,252,251,226,-1,252,226,225,-1,175,177,253,-1,175,253,254,-1,254,253,255,-1,254,255,256,-1,256,255,240,-1,256,240,239,-1,242,180,239,-1,239,180,183,-1,239,183,256,-1,256,183,179,-1,256,179,254,-1,254,179,176,-1,254,176,175,-1,219,215,224,-1,224,215,218,-1,224,218,221,-1,221,218,201,-1,221,201,238,-1,238,201,204,-1,238,204,236,-1,236,204,206,-1,236,206,234,-1,234,206,208,-1,234,208,232,-1,232,208,210,-1,232,210,230,-1,230,210,212,-1,230,212,228,-1,228,212,214,-1,228,214,225,-1,225,214,199,-1,225,199,252,-1,252,199,197,-1,252,197,250,-1,250,197,195,-1,250,195,248,-1,248,195,193,-1,248,193,246,-1,246,193,191,-1,246,191,244,-1,244,191,189,-1,244,189,242,-1,242,189,187,-1,242,187,180,-1,257,258,259,-1,259,258,260,-1,258,261,260,-1,260,261,262,-1,261,263,262,-1,262,263,264,-1,263,265,264,-1,264,265,266,-1,265,267,266,-1,266,267,268,-1,267,257,268,-1,268,257,259,-1,265,263,267,-1,267,263,261,-1,267,261,257,-1,257,261,258,-1,
        ]
    }
}
Shape{
    appearance Appearance {
        material  Material 	{
            diffuseColor 0.25098039215686274 0.25098039215686274 0.25098039215686274
            specularColor 0.12549019607843137 0.12549019607843137 0.12549019607843137
            ambientIntensity 0.2
            transparency 0
            shininess 0.5
        }
    }
    geometry IndexedFaceSet {
        ccw TRUE
        solid FALSE
        coord DEF co Coordinate {
            point [
                -0.0681 -0.0033 -0.2165, -0.0813 -0.0033 -0.2165, -0.074 0.0131 -0.2165, -0.0753 0.0131 -0.2165, -0.0744 0.0145 -0.2165, -0.075 0.0145 -0.2165, -0.0746 0.0159 -0.2165, -0.0747 0.0159 -0.2165, -0.028 0.0164 -0.2165, -0.028 -0.0144 -0.2165, -0.0338 0.0164 -0.2165, -0.0336 -0.0144 -0.2165, -0.0377 -0.014 -0.2165, -0.0491 0.0014 -0.2165, -0.0488 0.0053 -0.2165, -0.0478 0.0084 -0.2165, -0.0384 0.0159 -0.2165, -0.041 -0.013 -0.2165, -0.0437 -0.0114 -0.2165, -0.0459 -0.0092 -0.2165, -0.0476 -0.0065 -0.2165, -0.0487 -0.0028 -0.2165, -0.0465 0.0108 -0.2165, -0.0446 0.0129 -0.2165, -0.0417 0.0147 -0.2165, -0.0417 0.0147 -0.2165
            ]
        }
        coordIndex [
            0,1,2,-1,2,1,3,-1,2,3,4,-1,4,3,5,-1,4,5,6,-1,6,5,7,-1,8,9,10,-1,10,9,11,-1,10,11,12,-1,13,14,10,-1,10,14,15,-1,10,15,16,-1,12,17,10,-1,10,17,18,-1,10,18,19,-1,19,20,10,-1,10,20,21,-1,10,21,13,-1,22,23,15,-1,15,23,24,-1,15,24,16,-1,
        ]
    }
}