#VRML V2.0 utf8
# 3D model generated by easyeda2kicad.py (https://github.com/uPesy/easyeda2kicad.py)

Shape{
    appearance Appearance {
        material  Material 	{
            diffuseColor 0.5019607843137255 0.5019607843137255 0.5019607843137255
            specularColor 0.25098039215686274 0.25098039215686274 0.25098039215686274
            ambientIntensity 0.2
            transparency 0
            shininess 0.5
        }
    }
    geometry IndexedFaceSet {
        ccw TRUE
        solid FALSE
        coord DEF co Coordinate {
            point [
                -0.0154 -0.1974 0.0, -0.0154 -0.2018 0.0, -0.0202 -0.1575 0.0, -0.0163 -0.2325 0.0, -0.0202 -0.237 0.0, -0.0163 -0.2368 0.0, 0.0048 -0.2368 0.0, 0.0125 -0.2348 0.0, 0.0125 -0.2304 0.0, 0.0048 -0.1974 0.0, 0.0282 -0.2368 0.0, 0.032 -0.2355 0.0, 0.0451 -0.2368 0.0, -0.0005 -0.219 0.0, -0.0005 -0.2325 0.0, -0.0144 -0.219 0.0, -0.0144 -0.2147 0.0, -0.0005 -0.2147 0.0, -0.0005 -0.2018 0.0, 0.06 -0.1974 0.0, 0.0653 -0.1974 0.0, 0.1772 -0.1575 0.0, 0.0653 -0.2368 0.0, 0.1859 -0.1565 0.0, 0.1942 -0.1536 0.0, 0.0397 -0.2078 0.0, 0.0374 -0.2041 0.0, 0.0256 -0.2017 0.0, 0.0285 -0.2028 0.0, 0.0132 -0.2308 0.0, 0.0313 -0.2046 0.0, 0.0336 -0.2072 0.0, 0.0365 -0.2175 0.0, 0.0361 -0.2218 0.0, 0.035 -0.2252 0.0, 0.0263 -0.2326 0.0, 0.0226 -0.233 0.0, 0.0291 -0.2315 0.0, 0.0316 -0.2299 0.0, 0.0334 -0.2279 0.0, 0.0174 -0.2324 0.0, 0.0125 -0.2038 0.0, 0.0169 -0.2019 0.0, 0.0217 -0.2013 0.0, 0.0353 -0.2103 0.0, 0.0363 -0.2145 0.0, 0.0256 -0.237 0.0, 0.2953 -0.237 0.0, 0.2017 -0.1489 0.0, 0.0352 -0.2335 0.0, 0.0381 -0.2303 0.0, 0.0451 -0.2325 0.0, 0.0402 -0.2266 0.0, 0.06 -0.2325 0.0, 0.0218 -0.197 0.0, 0.017 -0.1973 0.0, 0.0125 -0.1985 0.0, 0.2079 -0.1427 0.0, 0.2126 -0.1352 0.0, 0.2155 -0.1269 0.0, 0.0414 -0.2224 0.0, 0.0418 -0.2179 0.0, 0.0412 -0.2123 0.0, 0.0338 -0.2007 0.0, 0.0301 -0.1986 0.0, 0.0257 -0.1973 0.0, 0.2953 0.3898 0.0, 0.2126 0.1352 0.0, 0.2079 0.1427 0.0, 0.0492 0.1575 0.0, 0.0492 0.3937 0.0, 0.1772 0.1575 0.0, 0.2913 0.3937 0.0, 0.1859 0.1565 0.0, 0.2165 -0.1181 0.0, 0.2165 0.1181 0.0, 0.2155 0.1269 0.0, 0.2924 0.3936 0.0, 0.2933 0.3932 0.0, 0.2941 0.3925 0.0, 0.2017 0.1489 0.0, 0.1942 0.1536 0.0, 0.2951 0.3908 0.0, 0.2947 0.3917 0.0, -0.2924 0.3936 0.0, -0.2913 0.3937 0.0, -0.1859 0.1565 0.0, -0.1595 -0.1422 0.0, -0.1575 -0.1575 0.0, -0.2953 -0.237 0.0, -0.0941 -0.2368 0.0, -0.0883 -0.2368 0.0, -0.0586 -0.2368 0.0, -0.0537 -0.226 0.0, -0.0515 -0.2295 0.0, -0.2013 -0.1004 0.0, -0.187 -0.1063 0.0, -0.0482 -0.2326 0.0, -0.0441 -0.235 0.0, -0.0396 -0.2364 0.0, -0.0492 0.3937 0.0, -0.0492 0.1575 0.0, -0.1772 0.1575 0.0, -0.1942 0.1536 0.0, -0.2017 0.1489 0.0, -0.2953 0.3898 0.0, -0.2079 0.1427 0.0, -0.2126 0.1352 0.0, -0.0735 -0.1974 0.0, -0.0787 -0.1974 0.0, -0.0347 -0.2368 0.0, -0.0643 -0.2368 0.0, -0.0681 -0.2258 0.0, -0.0844 -0.2258 0.0, -0.2155 0.1269 0.0, -0.2165 0.1181 0.0, -0.2165 -0.0984 0.0, -0.1748 -0.1157 0.0, -0.1654 -0.128 0.0, -0.024 -0.2368 0.0, -0.024 -0.1974 0.0, -0.0351 -0.1974 0.0, -0.0497 -0.2026 0.0, -0.0525 -0.2057 0.0, -0.0543 -0.209 0.0, -0.2947 0.3917 0.0, -0.2941 0.3925 0.0, -0.2933 0.3932 0.0, -0.0408 -0.198 0.0, -0.0454 -0.1997 0.0, -0.0497 -0.2025 0.0, -0.2951 0.3908 0.0, -0.0554 -0.2129 0.0, -0.0557 -0.2166 0.0, -0.0551 -0.2219 0.0, -0.1476 -0.3937 0.0, -0.1476 -0.2756 0.0, -0.2461 -0.2756 0.0, -0.2461 -0.3937 0.0, -0.2913 -0.3937 0.0, -0.2924 -0.3936 0.0, -0.2951 -0.3908 0.0, -0.2953 -0.3898 0.0, -0.2933 -0.3932 0.0, -0.2941 -0.3925 0.0, -0.2947 -0.3917 0.0, 0.2913 -0.3937 0.0, 0.2461 -0.3937 0.0, 0.2461 -0.2756 0.0, 0.2953 -0.3898 0.0, 0.2951 -0.3908 0.0, 0.2924 -0.3936 0.0, 0.0167 -0.2365 0.0, 0.0207 -0.237 0.0, -0.0202 -0.3937 0.0, 0.0222 -0.2373 0.0, 0.0233 -0.2373 0.0, 0.1476 -0.2756 0.0, 0.1476 -0.3937 0.0, 0.2947 -0.3917 0.0, 0.2941 -0.3925 0.0, 0.2933 -0.3932 0.0, -0.2953 -0.3898 0.1535, -0.2953 0.0257 0.0151, -0.2953 0.0257 0.0293, -0.2953 0.3898 0.1535, -0.2953 -0.0257 0.0151, -0.2953 -0.0257 0.0293, -0.0492 0.3937 0.0472, -0.2913 0.3937 0.1535, 0.0492 0.3937 0.0472, 0.2913 0.3937 0.1535, -0.2913 -0.3937 0.1535, -0.2461 -0.3937 0.0472, -0.1476 -0.3937 0.0472, 0.2913 -0.3937 0.1535, 0.1476 -0.3937 0.0472, 0.2461 -0.3937 0.0472, 0.2953 -0.3898 0.1535, 0.2953 -0.0257 0.0293, 0.2953 0.3898 0.1535, 0.2953 0.0257 0.0293, 0.2953 0.0257 0.0151, 0.2953 -0.0257 0.0151, 0.2913 -0.3898 0.1575, -0.1645 -0.2981 0.1575, -0.1657 -0.3089 0.1575, -0.2575 -0.2723 0.1575, -0.251 -0.2637 0.1575, -0.2913 0.3898 0.1575, -0.2427 -0.2567 0.1575, -0.2332 -0.2516 0.1575, -0.1912 -0.2539 0.1575, -0.1822 -0.26 0.1575, 0.2913 0.3898 0.1575, -0.1692 -0.3192 0.1575, -0.1747 -0.3285 0.1575, -0.1822 -0.3363 0.1575, -0.2427 -0.3396 0.1575, -0.2913 -0.3898 0.1575, -0.2332 -0.3447 0.1575, -0.2227 -0.3476 0.1575, -0.251 -0.3326 0.1575, -0.2575 -0.324 0.1575, -0.2621 -0.3141 0.1575, -0.2227 -0.2487 0.1575, -0.2119 -0.2481 0.1575, -0.2012 -0.2499 0.1575, -0.1912 -0.3424 0.1575, -0.2012 -0.3464 0.1575, -0.2119 -0.3482 0.1575, -0.1747 -0.2678 0.1575, -0.1692 -0.2771 0.1575, -0.1657 -0.2874 0.1575, -0.2644 -0.3036 0.1575, -0.2644 -0.2927 0.1575, -0.2621 -0.2822 0.1575, -0.2621 -0.2822 0.1575
            ]
        }
        coordIndex [
            0,1,2,-1,2,1,3,-1,2,3,4,-1,4,3,5,-1,4,5,6,-1,7,6,8,-1,8,6,9,-1,10,11,12,-1,13,14,15,-1,15,14,3,-1,15,3,16,-1,16,3,1,-1,16,1,17,-1,17,1,18,-1,19,2,20,-1,20,2,21,-1,20,21,22,-1,22,21,23,-1,22,23,24,-1,25,26,19,-1,27,28,29,-1,29,28,30,-1,29,30,31,-1,32,33,29,-1,29,33,34,-1,35,36,37,-1,37,36,38,-1,34,39,29,-1,29,39,38,-1,29,38,40,-1,40,38,36,-1,0,2,9,-1,9,2,41,-1,9,41,8,-1,8,41,42,-1,8,42,29,-1,29,42,43,-1,29,43,27,-1,31,44,29,-1,29,44,45,-1,29,45,32,-1,10,12,46,-1,46,12,22,-1,46,22,47,-1,47,22,24,-1,47,24,48,-1,11,49,12,-1,12,49,50,-1,12,50,51,-1,51,50,52,-1,51,52,53,-1,54,55,2,-1,2,55,56,-1,2,56,41,-1,48,57,47,-1,47,57,58,-1,47,58,59,-1,52,60,53,-1,53,60,61,-1,53,61,19,-1,19,61,62,-1,19,62,25,-1,26,63,19,-1,19,63,64,-1,19,64,2,-1,2,64,65,-1,2,65,54,-1,66,67,68,-1,69,70,71,-1,71,70,72,-1,71,72,73,-1,59,74,47,-1,47,74,75,-1,47,75,66,-1,66,75,76,-1,66,76,67,-1,72,77,73,-1,73,77,78,-1,73,78,79,-1,68,80,66,-1,66,80,81,-1,66,81,82,-1,82,81,73,-1,82,73,83,-1,83,73,79,-1,84,85,86,-1,87,88,89,-1,90,91,4,-1,92,93,94,-1,95,96,89,-1,94,97,92,-1,92,97,98,-1,92,98,99,-1,100,101,85,-1,85,101,102,-1,85,102,86,-1,103,104,105,-1,105,104,106,-1,105,106,107,-1,2,108,88,-1,88,108,109,-1,88,109,89,-1,99,110,92,-1,92,110,4,-1,92,4,111,-1,111,4,91,-1,111,91,112,-1,112,91,113,-1,107,114,105,-1,105,114,115,-1,105,115,89,-1,89,115,116,-1,89,116,95,-1,96,117,89,-1,89,117,118,-1,89,118,87,-1,110,119,4,-1,4,119,120,-1,4,120,2,-1,2,120,121,-1,122,123,108,-1,108,123,124,-1,125,126,86,-1,86,126,127,-1,86,127,84,-1,121,128,2,-1,2,128,129,-1,2,129,108,-1,108,129,130,-1,108,130,122,-1,103,105,86,-1,86,105,131,-1,86,131,125,-1,124,132,108,-1,108,132,133,-1,108,133,92,-1,92,133,134,-1,92,134,93,-1,135,136,4,-1,4,136,89,-1,4,89,90,-1,90,89,109,-1,136,137,89,-1,89,137,138,-1,89,138,139,-1,140,141,139,-1,139,141,142,-1,139,142,89,-1,140,143,141,-1,141,143,144,-1,141,144,145,-1,146,147,148,-1,47,149,146,-1,146,149,150,-1,146,150,151,-1,7,152,6,-1,6,152,153,-1,6,153,4,-1,4,153,154,-1,4,154,135,-1,153,155,154,-1,154,155,156,-1,154,156,46,-1,146,148,47,-1,47,148,157,-1,47,157,46,-1,46,157,158,-1,46,158,154,-1,159,160,150,-1,150,160,161,-1,150,161,151,-1,89,142,162,-1,163,164,165,-1,165,164,162,-1,165,105,163,-1,163,105,89,-1,163,89,166,-1,166,89,162,-1,166,162,167,-1,167,162,164,-1,100,85,168,-1,168,85,169,-1,168,169,170,-1,170,169,171,-1,170,171,70,-1,70,171,72,-1,172,139,138,-1,138,173,172,-1,172,173,174,-1,172,174,175,-1,154,158,176,-1,147,146,177,-1,177,146,175,-1,177,175,176,-1,176,175,174,-1,176,174,154,-1,154,174,135,-1,149,47,178,-1,178,47,179,-1,178,179,180,-1,180,179,181,-1,180,181,66,-1,66,181,182,-1,66,182,47,-1,47,182,183,-1,47,183,179,-1,184,185,186,-1,187,188,189,-1,189,188,190,-1,189,190,191,-1,192,193,194,-1,186,195,184,-1,184,195,196,-1,184,196,197,-1,198,199,200,-1,200,199,201,-1,198,202,199,-1,199,202,203,-1,199,203,204,-1,191,205,189,-1,189,205,206,-1,189,206,194,-1,194,206,207,-1,194,207,192,-1,197,208,184,-1,184,208,209,-1,184,209,199,-1,199,209,210,-1,199,210,201,-1,193,211,194,-1,194,211,212,-1,194,212,184,-1,184,212,213,-1,184,213,185,-1,204,214,199,-1,199,214,215,-1,199,215,189,-1,189,215,216,-1,189,216,187,-1,
        ]
    }
}
Shape{
    appearance Appearance {
        material  Material 	{
            diffuseColor 0.7529411764705882 0.7529411764705882 0.7529411764705882
            specularColor 0.3764705882352941 0.3764705882352941 0.3764705882352941
            ambientIntensity 0.2
            transparency 0
            shininess 0.5
        }
    }
    geometry IndexedFaceSet {
        ccw TRUE
        solid FALSE
        coord DEF co Coordinate {
            point [
                -0.1685 -0.2981 0.1535, -0.1695 -0.2882 0.1535, -0.2146 -0.2981 0.1535, -0.1695 -0.3081 0.1535, -0.1847 -0.3333 0.1535, -0.1779 -0.3261 0.1535, -0.1727 -0.3175 0.1535, -0.2121 -0.3442 0.1535, -0.2023 -0.3426 0.1535, -0.193 -0.3389 0.1535, -0.2405 -0.3363 0.1535, -0.2317 -0.341 0.1535, -0.2221 -0.3437 0.1535, -0.2584 -0.3129 0.1535, -0.2542 -0.3219 0.1535, -0.2481 -0.3299 0.1535, -0.2584 -0.2834 0.1535, -0.2605 -0.2932 0.1535, -0.2605 -0.3031 0.1535, -0.2405 -0.2599 0.1535, -0.2481 -0.2664 0.1535, -0.2542 -0.2744 0.1535, -0.2121 -0.2521 0.1535, -0.2221 -0.2526 0.1535, -0.2317 -0.2553 0.1535, -0.1847 -0.263 0.1535, -0.193 -0.2574 0.1535, -0.2023 -0.2537 0.1535, -0.1727 -0.2788 0.1535, -0.1779 -0.2702 0.1535, -0.1779 -0.2702 0.1535
            ]
        }
        coordIndex [
            0,1,2,-1,0,2,3,-1,4,5,2,-1,2,5,6,-1,2,6,3,-1,7,8,2,-1,2,8,9,-1,2,9,4,-1,10,11,2,-1,2,11,12,-1,2,12,7,-1,13,14,2,-1,2,14,15,-1,2,15,10,-1,16,17,2,-1,2,17,18,-1,2,18,13,-1,19,20,2,-1,2,20,21,-1,2,21,16,-1,22,23,2,-1,2,23,24,-1,2,24,19,-1,25,26,2,-1,2,26,27,-1,2,27,22,-1,1,28,2,-1,2,28,29,-1,2,29,25,-1,
        ]
    }
}
Shape{
    appearance Appearance {
        material  Material 	{
            diffuseColor 1.0 1.0 1.0
            specularColor 0.5019607843137255 0.5019607843137255 0.5019607843137255
            ambientIntensity 0.2
            transparency 0
            shininess 0.5
        }
    }
    geometry IndexedFaceSet {
        ccw TRUE
        solid FALSE
        coord DEF co Coordinate {
            point [
                -0.1476 -0.3937 0.0472, -0.1476 -0.3976 0.0472, -0.1476 -0.3937 0.0, -0.1476 -0.3976 -0.0039, -0.1476 -0.2756 0.0, -0.1476 -0.2756 -0.0039, -0.2461 -0.2756 0.0, -0.2461 -0.2756 -0.0039, -0.2461 -0.3937 0.0, -0.2461 -0.3976 -0.0039, -0.2461 -0.3937 0.0472, -0.2461 -0.3976 0.0472, 0.0492 0.1575 0.0, 0.0492 0.1575 -0.0039, 0.0492 0.3937 0.0, 0.0492 0.3976 -0.0039, 0.0492 0.3937 0.0472, 0.0492 0.3976 0.0472, 0.1772 0.1575 -0.0039, 0.1772 0.1575 0.0, 0.1859 0.1565 0.0, 0.1859 0.1565 -0.0039, 0.1942 0.1536 0.0, 0.1942 0.1536 -0.0039, 0.2017 0.1489 0.0, 0.2017 0.1489 -0.0039, 0.2079 0.1427 0.0, 0.2079 0.1427 -0.0039, 0.2126 0.1352 0.0, 0.2126 0.1352 -0.0039, 0.2155 0.1269 0.0, 0.2155 0.1269 -0.0039, 0.2165 0.1181 0.0, 0.2165 0.1181 -0.0039, 0.2165 -0.1181 -0.0039, 0.2165 -0.1181 0.0, 0.2155 -0.1269 0.0, 0.2155 -0.1269 -0.0039, 0.2126 -0.1352 0.0, 0.2126 -0.1352 -0.0039, 0.2079 -0.1427 0.0, 0.2079 -0.1427 -0.0039, 0.2017 -0.1489 0.0, 0.2017 -0.1489 -0.0039, 0.1942 -0.1536 0.0, 0.1942 -0.1536 -0.0039, 0.1859 -0.1565 0.0, 0.1859 -0.1565 -0.0039, 0.1772 -0.1575 0.0, 0.1772 -0.1575 -0.0039, -0.1575 -0.1575 0.0, -0.1575 -0.1575 -0.0039, -0.0202 -0.1575 0.0, -0.1595 -0.1422 -0.0039, -0.1595 -0.1422 0.0, -0.1654 -0.128 -0.0039, -0.1654 -0.128 0.0, -0.1748 -0.1157 -0.0039, -0.1748 -0.1157 0.0, -0.187 -0.1063 -0.0039, -0.187 -0.1063 0.0, -0.2013 -0.1004 -0.0039, -0.2013 -0.1004 0.0, -0.2165 -0.0984 -0.0039, -0.2165 -0.0984 0.0, -0.2165 0.1181 -0.0039, -0.2165 0.1181 0.0, -0.2155 0.1269 0.0, -0.2155 0.1269 -0.0039, -0.2126 0.1352 0.0, -0.2126 0.1352 -0.0039, -0.2079 0.1427 0.0, -0.2079 0.1427 -0.0039, -0.2017 0.1489 0.0, -0.2017 0.1489 -0.0039, -0.1942 0.1536 0.0, -0.1942 0.1536 -0.0039, -0.1859 0.1565 0.0, -0.1859 0.1565 -0.0039, -0.1772 0.1575 0.0, -0.1772 0.1575 -0.0039, -0.0492 0.1575 -0.0039, -0.0492 0.1575 0.0, -0.0492 0.3937 0.0472, -0.0492 0.3976 0.0472, -0.0492 0.3937 0.0, -0.0492 0.3976 -0.0039, 0.2461 -0.3937 0.0472, 0.2461 -0.3976 0.0472, 0.2461 -0.3937 0.0, 0.2461 -0.3976 -0.0039, 0.2461 -0.2756 0.0, 0.2461 -0.2756 -0.0039, 0.1476 -0.2756 0.0, 0.1476 -0.2756 -0.0039, 0.1476 -0.3937 0.0, 0.1476 -0.3976 -0.0039, 0.1476 -0.3937 0.0472, 0.1476 -0.3976 0.0472, 0.1476 -0.3976 0.0472
            ]
        }
        coordIndex [
            0,1,2,-1,2,1,3,-1,2,3,4,-1,4,3,5,-1,6,7,8,-1,8,7,9,-1,8,9,10,-1,10,9,11,-1,5,7,4,-1,4,7,6,-1,9,7,3,-1,3,7,5,-1,12,13,14,-1,14,13,15,-1,14,15,16,-1,16,15,17,-1,18,13,19,-1,19,13,12,-1,18,19,20,-1,18,20,21,-1,21,20,22,-1,21,22,23,-1,23,22,24,-1,23,24,25,-1,25,24,26,-1,25,26,27,-1,27,26,28,-1,27,28,29,-1,29,28,30,-1,29,30,31,-1,31,30,32,-1,31,32,33,-1,34,33,35,-1,35,33,32,-1,34,35,36,-1,34,36,37,-1,37,36,38,-1,37,38,39,-1,39,38,40,-1,39,40,41,-1,41,40,42,-1,41,42,43,-1,43,42,44,-1,43,44,45,-1,45,44,46,-1,45,46,47,-1,47,46,48,-1,47,48,49,-1,50,51,52,-1,52,51,49,-1,52,49,48,-1,51,50,53,-1,53,50,54,-1,53,54,55,-1,55,54,56,-1,55,56,57,-1,57,56,58,-1,57,58,59,-1,59,58,60,-1,59,60,61,-1,61,60,62,-1,61,62,63,-1,63,62,64,-1,65,63,66,-1,66,63,64,-1,65,66,67,-1,65,67,68,-1,68,67,69,-1,68,69,70,-1,70,69,71,-1,70,71,72,-1,72,71,73,-1,72,73,74,-1,74,73,75,-1,74,75,76,-1,76,75,77,-1,76,77,78,-1,78,77,79,-1,78,79,80,-1,81,80,82,-1,82,80,79,-1,83,84,85,-1,85,84,86,-1,85,86,82,-1,82,86,81,-1,57,59,13,-1,86,15,81,-1,81,15,13,-1,81,13,61,-1,61,13,59,-1,53,55,33,-1,61,63,81,-1,81,63,65,-1,81,65,80,-1,80,65,78,-1,33,34,53,-1,53,34,49,-1,53,49,51,-1,72,74,70,-1,70,74,68,-1,68,74,65,-1,65,74,76,-1,65,76,78,-1,37,45,34,-1,34,45,47,-1,34,47,49,-1,37,39,45,-1,45,39,41,-1,45,41,43,-1,57,13,55,-1,55,13,18,-1,55,18,21,-1,21,23,55,-1,55,23,25,-1,55,25,27,-1,27,29,55,-1,55,29,31,-1,55,31,33,-1,87,88,89,-1,89,88,90,-1,89,90,91,-1,91,90,92,-1,93,94,95,-1,95,94,96,-1,95,96,97,-1,97,96,98,-1,92,94,91,-1,91,94,93,-1,96,94,90,-1,90,94,92,-1,
        ]
    }
}
Shape{
    appearance Appearance {
        material  Material 	{
            diffuseColor 1.0 1.0 0.0
            specularColor 0.5019607843137255 0.5019607843137255 0.0
            ambientIntensity 0.2
            transparency 0
            shininess 0.5
        }
    }
    geometry IndexedFaceSet {
        ccw TRUE
        solid FALSE
        coord DEF co Coordinate {
            point [
                -0.2461 -0.3976 0.0472, -0.1476 -0.3976 0.0472, -0.2461 -0.3937 0.0472, -0.1476 -0.3937 0.0472, -0.1476 -0.3976 -0.0039, -0.2461 -0.3976 -0.0039, 0.1476 -0.3976 0.0472, 0.2461 -0.3976 0.0472, 0.1476 -0.3937 0.0472, 0.2461 -0.3937 0.0472, 0.1476 -0.3976 -0.0039, 0.2461 -0.3976 -0.0039, 0.0492 0.3976 0.0472, -0.0492 0.3976 0.0472, 0.0492 0.3937 0.0472, -0.0492 0.3937 0.0472, -0.0492 0.3976 -0.0039, 0.0492 0.3976 -0.0039, -0.2992 -0.0257 0.0151, -0.2992 0.0257 0.0151, -0.2953 -0.0257 0.0151, -0.2953 0.0257 0.0151, -0.2992 -0.0257 0.0293, -0.2953 -0.0257 0.0293, -0.2992 0.0257 0.0293, -0.2953 0.0257 0.0293, 0.2992 0.0257 0.0151, 0.2992 -0.0257 0.0151, 0.2953 0.0257 0.0151, 0.2953 -0.0257 0.0151, 0.2992 0.0257 0.0293, 0.2953 0.0257 0.0293, 0.2992 -0.0257 0.0293, 0.2953 -0.0257 0.0293, 0.2953 -0.0257 0.0293
            ]
        }
        coordIndex [
            0,1,2,-1,2,1,3,-1,4,1,5,-1,5,1,0,-1,6,7,8,-1,8,7,9,-1,6,10,7,-1,7,10,11,-1,12,13,14,-1,14,13,15,-1,16,13,17,-1,17,13,12,-1,18,19,20,-1,20,19,21,-1,22,18,23,-1,23,18,20,-1,24,22,25,-1,25,22,23,-1,19,24,21,-1,21,24,25,-1,22,24,18,-1,18,24,19,-1,26,27,28,-1,28,27,29,-1,30,26,31,-1,31,26,28,-1,32,30,33,-1,33,30,31,-1,27,32,29,-1,29,32,33,-1,30,32,26,-1,26,32,27,-1,
        ]
    }
}
Shape{
    appearance Appearance {
        material  Material 	{
            diffuseColor 0.5019607843137255 0.5019607843137255 0.5019607843137255
            specularColor 0.25098039215686274 0.25098039215686274 0.25098039215686274
            ambientIntensity 0.2
            transparency 0
            shininess 0.5
        }
    }
    geometry IndexedFaceSet {
        ccw TRUE
        solid FALSE
        coord DEF co Coordinate {
            point [
                -0.2913 0.3937 0.1535, -0.2913 0.3937 0.0, -0.2924 0.3936 0.0, -0.2924 0.3936 0.1535, -0.2933 0.3932 0.0, -0.2933 0.3932 0.1535, -0.2941 0.3925 0.0, -0.2941 0.3925 0.1535, -0.2947 0.3917 0.0, -0.2947 0.3917 0.1535, -0.2951 0.3908 0.0, -0.2951 0.3908 0.1535, -0.2953 0.3898 0.0, -0.2953 0.3898 0.1535, -0.2913 0.3898 0.1575, 0.2913 0.3898 0.1575, 0.2913 0.3908 0.1573, -0.2913 0.3908 0.1573, 0.2913 0.3917 0.157, -0.2913 0.3917 0.157, 0.2913 0.3925 0.1563, -0.2913 0.3925 0.1563, 0.2913 0.3932 0.1555, -0.2913 0.3932 0.1555, 0.2913 0.3936 0.1546, -0.2913 0.3936 0.1546, 0.2913 0.3937 0.1535, 0.2953 0.3898 0.1535, 0.2953 0.3898 0.0, 0.2951 0.3908 0.0, 0.2951 0.3908 0.1535, 0.2947 0.3917 0.0, 0.2947 0.3917 0.1535, 0.2941 0.3925 0.0, 0.2941 0.3925 0.1535, 0.2933 0.3932 0.0, 0.2933 0.3932 0.1535, 0.2924 0.3936 0.0, 0.2924 0.3936 0.1535, 0.2913 0.3937 0.0, -0.2951 0.3898 0.1546, -0.295 0.3907 0.1546, -0.293 0.3907 0.157, -0.2922 0.3903 0.1573, -0.2921 0.3905 0.1573, -0.2916 0.3907 0.1573, -0.2923 0.39 0.1573, -0.2932 0.3903 0.157, -0.294 0.3905 0.1563, -0.2924 0.3898 0.1573, -0.2927 0.3912 0.157, -0.2918 0.3906 0.1573, -0.2923 0.3915 0.157, -0.2918 0.3917 0.157, -0.2933 0.3898 0.157, -0.2941 0.3898 0.1563, -0.2947 0.3898 0.1555, -0.2937 0.3912 0.1563, -0.2933 0.3917 0.1563, -0.2927 0.3922 0.1563, -0.2921 0.3925 0.1563, -0.2946 0.3906 0.1555, -0.2943 0.3915 0.1555, -0.2937 0.3922 0.1555, -0.293 0.3927 0.1555, -0.2922 0.3931 0.1555, -0.2946 0.3917 0.1546, -0.294 0.3925 0.1546, -0.2932 0.3931 0.1546, -0.2923 0.3934 0.1546, 0.2923 0.3934 0.1546, 0.2923 0.3915 0.157, 0.2918 0.3906 0.1573, 0.2921 0.3905 0.1573, 0.2924 0.3898 0.1573, 0.2923 0.39 0.1573, 0.2916 0.3907 0.1573, 0.2918 0.3917 0.157, 0.2921 0.3925 0.1563, 0.2927 0.3912 0.157, 0.2922 0.3903 0.1573, 0.293 0.3907 0.157, 0.2932 0.3903 0.157, 0.2933 0.3898 0.157, 0.2927 0.3922 0.1563, 0.2933 0.3917 0.1563, 0.2937 0.3912 0.1563, 0.294 0.3905 0.1563, 0.2941 0.3898 0.1563, 0.2922 0.3931 0.1555, 0.293 0.3927 0.1555, 0.2937 0.3922 0.1555, 0.2943 0.3915 0.1555, 0.2946 0.3906 0.1555, 0.2947 0.3898 0.1555, 0.2932 0.3931 0.1546, 0.294 0.3925 0.1546, 0.2946 0.3917 0.1546, 0.295 0.3907 0.1546, 0.2951 0.3898 0.1546, -0.2953 -0.3898 0.1535, -0.2953 -0.3898 0.0, -0.2951 -0.3908 0.0, -0.2951 -0.3908 0.1535, -0.2947 -0.3917 0.0, -0.2947 -0.3917 0.1535, -0.2941 -0.3925 0.0, -0.2941 -0.3925 0.1535, -0.2933 -0.3932 0.0, -0.2933 -0.3932 0.1535, -0.2924 -0.3936 0.0, -0.2924 -0.3936 0.1535, -0.2913 -0.3937 0.0, -0.2913 -0.3937 0.1535, -0.2913 -0.3898 0.1575, -0.2924 -0.3898 0.1573, -0.2933 -0.3898 0.157, -0.2941 -0.3898 0.1563, -0.2947 -0.3898 0.1555, -0.2951 -0.3898 0.1546, 0.2913 -0.3898 0.1575, 0.2924 -0.3898 0.1573, 0.2933 -0.3898 0.157, 0.2941 -0.3898 0.1563, 0.2947 -0.3898 0.1555, 0.2951 -0.3898 0.1546, 0.2953 -0.3898 0.1535, 0.2913 -0.3937 0.1535, 0.2913 -0.3937 0.0, 0.2924 -0.3936 0.0, 0.2924 -0.3936 0.1535, 0.2933 -0.3932 0.0, 0.2933 -0.3932 0.1535, 0.2941 -0.3925 0.0, 0.2941 -0.3925 0.1535, 0.2947 -0.3917 0.0, 0.2947 -0.3917 0.1535, 0.2951 -0.3908 0.0, 0.2951 -0.3908 0.1535, 0.2953 -0.3898 0.0, -0.2913 -0.3936 0.1546, -0.2923 -0.3934 0.1546, -0.2923 -0.3915 0.157, -0.2918 -0.3906 0.1573, -0.2921 -0.3905 0.1573, -0.2923 -0.39 0.1573, -0.2916 -0.3907 0.1573, -0.2918 -0.3917 0.157, -0.2921 -0.3925 0.1563, -0.2913 -0.3908 0.1573, -0.2927 -0.3912 0.157, -0.2922 -0.3903 0.1573, -0.293 -0.3907 0.157, -0.2932 -0.3903 0.157, -0.2913 -0.3917 0.157, -0.2913 -0.3925 0.1563, -0.2913 -0.3932 0.1555, -0.2927 -0.3922 0.1563, -0.2933 -0.3917 0.1563, -0.2937 -0.3912 0.1563, -0.294 -0.3905 0.1563, -0.2922 -0.3931 0.1555, -0.293 -0.3927 0.1555, -0.2937 -0.3922 0.1555, -0.2943 -0.3915 0.1555, -0.2946 -0.3906 0.1555, -0.2932 -0.3931 0.1546, -0.294 -0.3925 0.1546, -0.2946 -0.3917 0.1546, -0.295 -0.3907 0.1546, 0.295 -0.3907 0.1546, 0.293 -0.3907 0.157, 0.2922 -0.3903 0.1573, 0.2921 -0.3905 0.1573, 0.2913 -0.3908 0.1573, 0.2916 -0.3907 0.1573, 0.2923 -0.39 0.1573, 0.2932 -0.3903 0.157, 0.294 -0.3905 0.1563, 0.2927 -0.3912 0.157, 0.2918 -0.3906 0.1573, 0.2923 -0.3915 0.157, 0.2918 -0.3917 0.157, 0.2913 -0.3917 0.157, 0.2937 -0.3912 0.1563, 0.2933 -0.3917 0.1563, 0.2927 -0.3922 0.1563, 0.2921 -0.3925 0.1563, 0.2913 -0.3925 0.1563, 0.2946 -0.3906 0.1555, 0.2943 -0.3915 0.1555, 0.2937 -0.3922 0.1555, 0.293 -0.3927 0.1555, 0.2922 -0.3931 0.1555, 0.2913 -0.3932 0.1555, 0.2946 -0.3917 0.1546, 0.294 -0.3925 0.1546, 0.2932 -0.3931 0.1546, 0.2923 -0.3934 0.1546, 0.2913 -0.3936 0.1546, -0.1685 -0.2981 0.1535, -0.1694 -0.2882 0.1546, -0.1695 -0.2882 0.1535, -0.1726 -0.2787 0.1546, -0.1727 -0.2788 0.1535, -0.1778 -0.2701 0.1546, -0.1779 -0.2702 0.1535, -0.1847 -0.2629 0.1546, -0.1847 -0.263 0.1535, -0.1929 -0.2573 0.1546, -0.193 -0.2574 0.1535, -0.2022 -0.2535 0.1546, -0.2023 -0.2537 0.1535, -0.2121 -0.2519 0.1546, -0.2121 -0.2521 0.1535, -0.2221 -0.2525 0.1546, -0.2221 -0.2526 0.1535, -0.2317 -0.2551 0.1546, -0.2317 -0.2553 0.1535, -0.2406 -0.2598 0.1546, -0.2405 -0.2599 0.1535, -0.2482 -0.2663 0.1546, -0.2481 -0.2664 0.1535, -0.2543 -0.2743 0.1546, -0.2542 -0.2744 0.1535, -0.2585 -0.2834 0.1546, -0.2584 -0.2834 0.1535, -0.2606 -0.2931 0.1546, -0.2605 -0.2932 0.1535, -0.2606 -0.3032 0.1546, -0.2605 -0.3031 0.1535, -0.2585 -0.3129 0.1546, -0.2584 -0.3129 0.1535, -0.2543 -0.322 0.1546, -0.2542 -0.3219 0.1535, -0.2482 -0.33 0.1546, -0.2481 -0.3299 0.1535, -0.2406 -0.3365 0.1546, -0.2405 -0.3363 0.1535, -0.2317 -0.3411 0.1546, -0.2317 -0.341 0.1535, -0.2221 -0.3438 0.1546, -0.2221 -0.3437 0.1535, -0.2121 -0.3444 0.1546, -0.2121 -0.3442 0.1535, -0.2022 -0.3427 0.1546, -0.2023 -0.3426 0.1535, -0.1929 -0.339 0.1546, -0.193 -0.3389 0.1535, -0.1847 -0.3334 0.1546, -0.1847 -0.3333 0.1535, -0.1778 -0.3262 0.1546, -0.1779 -0.3261 0.1535, -0.1726 -0.3176 0.1546, -0.1727 -0.3175 0.1535, -0.1694 -0.3081 0.1546, -0.1695 -0.3081 0.1535, -0.1683 -0.2981 0.1546, -0.169 -0.2881 0.1555, -0.1723 -0.2785 0.1555, -0.1775 -0.2699 0.1555, -0.1844 -0.2626 0.1555, -0.1928 -0.2569 0.1555, -0.2021 -0.2532 0.1555, -0.2121 -0.2515 0.1555, -0.2222 -0.2521 0.1555, -0.2319 -0.2548 0.1555, -0.2408 -0.2595 0.1555, -0.2485 -0.266 0.1555, -0.2546 -0.2741 0.1555, -0.2589 -0.2832 0.1555, -0.261 -0.2931 0.1555, -0.261 -0.3032 0.1555, -0.2589 -0.3131 0.1555, -0.2546 -0.3222 0.1555, -0.2485 -0.3302 0.1555, -0.2408 -0.3368 0.1555, -0.2319 -0.3415 0.1555, -0.2222 -0.3442 0.1555, -0.2121 -0.3448 0.1555, -0.2021 -0.3431 0.1555, -0.1928 -0.3394 0.1555, -0.1844 -0.3337 0.1555, -0.1775 -0.3264 0.1555, -0.1723 -0.3177 0.1555, -0.169 -0.3082 0.1555, -0.1679 -0.2981 0.1555, -0.1684 -0.288 0.1563, -0.1717 -0.2783 0.1563, -0.177 -0.2695 0.1563, -0.184 -0.2621 0.1563, -0.1925 -0.2564 0.1563, -0.202 -0.2526 0.1563, -0.2121 -0.2509 0.1563, -0.2223 -0.2515 0.1563, -0.2321 -0.2542 0.1563, -0.2412 -0.259 0.1563, -0.249 -0.2656 0.1563, -0.2551 -0.2738 0.1563, -0.2594 -0.283 0.1563, -0.2616 -0.293 0.1563, -0.2616 -0.3033 0.1563, -0.2594 -0.3133 0.1563, -0.2551 -0.3225 0.1563, -0.249 -0.3307 0.1563, -0.2412 -0.3373 0.1563, -0.2321 -0.3421 0.1563, -0.2223 -0.3448 0.1563, -0.2121 -0.3454 0.1563, -0.202 -0.3437 0.1563, -0.1925 -0.3399 0.1563, -0.184 -0.3342 0.1563, -0.177 -0.3268 0.1563, -0.1717 -0.318 0.1563, -0.1684 -0.3083 0.1563, -0.1673 -0.2981 0.1563, -0.1676 -0.2878 0.157, -0.1709 -0.2779 0.157, -0.1763 -0.269 0.157, -0.1835 -0.2615 0.157, -0.1921 -0.2556 0.157, -0.2017 -0.2518 0.157, -0.212 -0.2501 0.157, -0.2224 -0.2507 0.157, -0.2324 -0.2534 0.157, -0.2416 -0.2583 0.157, -0.2496 -0.2651 0.157, -0.2558 -0.2733 0.157, -0.2602 -0.2828 0.157, -0.2625 -0.2929 0.157, -0.2625 -0.3033 0.157, -0.2602 -0.3135 0.157, -0.2558 -0.323 0.157, -0.2496 -0.3312 0.157, -0.2416 -0.338 0.157, -0.2324 -0.3428 0.157, -0.2224 -0.3456 0.157, -0.212 -0.3462 0.157, -0.2017 -0.3445 0.157, -0.1921 -0.3407 0.157, -0.1835 -0.3348 0.157, -0.1763 -0.3273 0.157, -0.1709 -0.3184 0.157, -0.1676 -0.3085 0.157, -0.1665 -0.2981 0.157, -0.1667 -0.2876 0.1573, -0.1701 -0.2775 0.1573, -0.1756 -0.2685 0.1573, -0.1828 -0.2607 0.1573, -0.1916 -0.2548 0.1573, -0.2015 -0.2509 0.1573, -0.212 -0.2491 0.1573, -0.2226 -0.2497 0.1573, -0.2328 -0.2526 0.1573, -0.2422 -0.2575 0.1573, -0.2502 -0.2644 0.1573, -0.2567 -0.2728 0.1573, -0.2611 -0.2825 0.1573, -0.2634 -0.2928 0.1573, -0.2634 -0.3035 0.1573, -0.2611 -0.3138 0.1573, -0.2567 -0.3234 0.1573, -0.2502 -0.3319 0.1573, -0.2422 -0.3388 0.1573, -0.2328 -0.3437 0.1573, -0.2226 -0.3466 0.1573, -0.212 -0.3471 0.1573, -0.2015 -0.3454 0.1573, -0.1916 -0.3415 0.1573, -0.1828 -0.3355 0.1573, -0.1756 -0.3278 0.1573, -0.1701 -0.3188 0.1573, -0.1667 -0.3087 0.1573, -0.1655 -0.2981 0.1573, -0.1657 -0.2874 0.1575, -0.1692 -0.2771 0.1575, -0.1747 -0.2678 0.1575, -0.1822 -0.26 0.1575, -0.1912 -0.2539 0.1575, -0.2012 -0.2499 0.1575, -0.2119 -0.2481 0.1575, -0.2227 -0.2487 0.1575, -0.2332 -0.2516 0.1575, -0.2427 -0.2567 0.1575, -0.251 -0.2637 0.1575, -0.2575 -0.2723 0.1575, -0.2621 -0.2822 0.1575, -0.2644 -0.2927 0.1575, -0.2644 -0.3036 0.1575, -0.2621 -0.3141 0.1575, -0.2575 -0.324 0.1575, -0.251 -0.3326 0.1575, -0.2427 -0.3396 0.1575, -0.2332 -0.3447 0.1575, -0.2227 -0.3476 0.1575, -0.2119 -0.3482 0.1575, -0.2012 -0.3464 0.1575, -0.1912 -0.3424 0.1575, -0.1822 -0.3363 0.1575, -0.1747 -0.3285 0.1575, -0.1692 -0.3192 0.1575, -0.1657 -0.3089 0.1575, -0.1645 -0.2981 0.1575, -0.1645 -0.2981 0.1575
            ]
        }
        coordIndex [
            0,1,2,-1,0,2,3,-1,3,2,4,-1,3,4,5,-1,5,4,6,-1,5,6,7,-1,7,6,8,-1,7,8,9,-1,9,8,10,-1,9,10,11,-1,11,10,12,-1,11,12,13,-1,14,15,16,-1,14,16,17,-1,17,16,18,-1,17,18,19,-1,19,18,20,-1,19,20,21,-1,21,20,22,-1,21,22,23,-1,23,22,24,-1,23,24,25,-1,25,24,26,-1,25,26,0,-1,27,28,29,-1,27,29,30,-1,30,29,31,-1,30,31,32,-1,32,31,33,-1,32,33,34,-1,34,33,35,-1,34,35,36,-1,36,35,37,-1,36,37,38,-1,38,37,39,-1,38,39,26,-1,13,40,41,-1,42,43,44,-1,14,17,45,-1,44,43,14,-1,46,14,43,-1,46,43,47,-1,47,43,42,-1,47,42,48,-1,49,14,46,-1,50,51,52,-1,52,51,45,-1,52,45,53,-1,53,45,17,-1,53,17,19,-1,49,46,54,-1,54,46,47,-1,54,47,55,-1,55,47,48,-1,55,48,56,-1,57,50,58,-1,58,50,52,-1,58,52,59,-1,59,52,53,-1,59,53,60,-1,60,53,19,-1,60,19,21,-1,61,57,62,-1,62,57,58,-1,62,58,63,-1,63,58,59,-1,63,59,64,-1,64,59,60,-1,64,60,65,-1,65,60,21,-1,65,21,23,-1,40,61,41,-1,41,61,62,-1,41,62,66,-1,66,62,63,-1,66,63,67,-1,67,63,64,-1,67,64,68,-1,68,64,65,-1,68,65,69,-1,69,65,23,-1,69,23,25,-1,13,41,11,-1,11,41,66,-1,11,66,9,-1,9,66,67,-1,9,67,7,-1,7,67,68,-1,7,68,5,-1,5,68,69,-1,5,69,3,-1,3,69,25,-1,3,25,0,-1,51,14,45,-1,40,56,61,-1,61,56,48,-1,61,48,57,-1,57,48,42,-1,57,42,50,-1,50,42,44,-1,50,44,51,-1,51,44,14,-1,26,24,70,-1,71,72,73,-1,15,74,75,-1,73,72,15,-1,76,15,72,-1,76,72,77,-1,77,72,71,-1,77,71,78,-1,16,15,76,-1,79,80,81,-1,81,80,75,-1,81,75,82,-1,82,75,74,-1,82,74,83,-1,16,76,18,-1,18,76,77,-1,18,77,20,-1,20,77,78,-1,20,78,22,-1,84,79,85,-1,85,79,81,-1,85,81,86,-1,86,81,82,-1,86,82,87,-1,87,82,83,-1,87,83,88,-1,89,84,90,-1,90,84,85,-1,90,85,91,-1,91,85,86,-1,91,86,92,-1,92,86,87,-1,92,87,93,-1,93,87,88,-1,93,88,94,-1,24,89,70,-1,70,89,90,-1,70,90,95,-1,95,90,91,-1,95,91,96,-1,96,91,92,-1,96,92,97,-1,97,92,93,-1,97,93,98,-1,98,93,94,-1,98,94,99,-1,26,70,38,-1,38,70,95,-1,38,95,36,-1,36,95,96,-1,36,96,34,-1,34,96,97,-1,34,97,32,-1,32,97,98,-1,32,98,30,-1,30,98,99,-1,30,99,27,-1,80,15,75,-1,24,22,89,-1,89,22,78,-1,89,78,84,-1,84,78,71,-1,84,71,79,-1,79,71,73,-1,79,73,80,-1,80,73,15,-1,100,101,102,-1,100,102,103,-1,103,102,104,-1,103,104,105,-1,105,104,106,-1,105,106,107,-1,107,106,108,-1,107,108,109,-1,109,108,110,-1,109,110,111,-1,111,110,112,-1,111,112,113,-1,114,14,49,-1,114,49,115,-1,115,49,54,-1,115,54,116,-1,116,54,55,-1,116,55,117,-1,117,55,56,-1,117,56,118,-1,118,56,40,-1,118,40,119,-1,119,40,13,-1,119,13,100,-1,15,120,121,-1,15,121,74,-1,74,121,122,-1,74,122,83,-1,83,122,123,-1,83,123,88,-1,88,123,124,-1,88,124,94,-1,94,124,125,-1,94,125,99,-1,99,125,126,-1,99,126,27,-1,127,128,129,-1,127,129,130,-1,130,129,131,-1,130,131,132,-1,132,131,133,-1,132,133,134,-1,134,133,135,-1,134,135,136,-1,136,135,137,-1,136,137,138,-1,138,137,139,-1,138,139,126,-1,113,140,141,-1,142,143,144,-1,114,115,145,-1,144,143,114,-1,146,114,143,-1,146,143,147,-1,147,143,142,-1,147,142,148,-1,149,114,146,-1,150,151,152,-1,152,151,145,-1,152,145,153,-1,153,145,115,-1,153,115,116,-1,149,146,154,-1,154,146,147,-1,154,147,155,-1,155,147,148,-1,155,148,156,-1,157,150,158,-1,158,150,152,-1,158,152,159,-1,159,152,153,-1,159,153,160,-1,160,153,116,-1,160,116,117,-1,161,157,162,-1,162,157,158,-1,162,158,163,-1,163,158,159,-1,163,159,164,-1,164,159,160,-1,164,160,165,-1,165,160,117,-1,165,117,118,-1,140,161,141,-1,141,161,162,-1,141,162,166,-1,166,162,163,-1,166,163,167,-1,167,163,164,-1,167,164,168,-1,168,164,165,-1,168,165,169,-1,169,165,118,-1,169,118,119,-1,113,141,111,-1,111,141,166,-1,111,166,109,-1,109,166,167,-1,109,167,107,-1,107,167,168,-1,107,168,105,-1,105,168,169,-1,105,169,103,-1,103,169,119,-1,103,119,100,-1,151,114,145,-1,140,156,161,-1,161,156,148,-1,161,148,157,-1,157,148,142,-1,157,142,150,-1,150,142,144,-1,150,144,151,-1,151,144,114,-1,126,125,170,-1,171,172,173,-1,120,174,175,-1,173,172,120,-1,176,120,172,-1,176,172,177,-1,177,172,171,-1,177,171,178,-1,121,120,176,-1,179,180,181,-1,181,180,175,-1,181,175,182,-1,182,175,174,-1,182,174,183,-1,121,176,122,-1,122,176,177,-1,122,177,123,-1,123,177,178,-1,123,178,124,-1,184,179,185,-1,185,179,181,-1,185,181,186,-1,186,181,182,-1,186,182,187,-1,187,182,183,-1,187,183,188,-1,189,184,190,-1,190,184,185,-1,190,185,191,-1,191,185,186,-1,191,186,192,-1,192,186,187,-1,192,187,193,-1,193,187,188,-1,193,188,194,-1,125,189,170,-1,170,189,190,-1,170,190,195,-1,195,190,191,-1,195,191,196,-1,196,191,192,-1,196,192,197,-1,197,192,193,-1,197,193,198,-1,198,193,194,-1,198,194,199,-1,126,170,138,-1,138,170,195,-1,138,195,136,-1,136,195,196,-1,136,196,134,-1,134,196,197,-1,134,197,132,-1,132,197,198,-1,132,198,130,-1,130,198,199,-1,130,199,127,-1,180,120,175,-1,125,124,189,-1,189,124,178,-1,189,178,184,-1,184,178,171,-1,184,171,179,-1,179,171,173,-1,179,173,180,-1,180,173,120,-1,120,114,149,-1,120,149,174,-1,174,149,154,-1,174,154,183,-1,183,154,155,-1,183,155,188,-1,188,155,156,-1,188,156,194,-1,194,156,140,-1,194,140,199,-1,199,140,113,-1,199,113,127,-1,200,201,202,-1,202,201,203,-1,202,203,204,-1,204,203,205,-1,204,205,206,-1,206,205,207,-1,206,207,208,-1,208,207,209,-1,208,209,210,-1,210,209,211,-1,210,211,212,-1,212,211,213,-1,212,213,214,-1,214,213,215,-1,214,215,216,-1,216,215,217,-1,216,217,218,-1,218,217,219,-1,218,219,220,-1,220,219,221,-1,220,221,222,-1,222,221,223,-1,222,223,224,-1,224,223,225,-1,224,225,226,-1,226,225,227,-1,226,227,228,-1,228,227,229,-1,228,229,230,-1,230,229,231,-1,230,231,232,-1,232,231,233,-1,232,233,234,-1,234,233,235,-1,234,235,236,-1,236,235,237,-1,236,237,238,-1,238,237,239,-1,238,239,240,-1,240,239,241,-1,240,241,242,-1,242,241,243,-1,242,243,244,-1,244,243,245,-1,244,245,246,-1,246,245,247,-1,246,247,248,-1,248,247,249,-1,248,249,250,-1,250,249,251,-1,250,251,252,-1,252,251,253,-1,252,253,254,-1,254,253,255,-1,254,255,256,-1,256,255,257,-1,256,257,200,-1,200,257,201,-1,257,258,201,-1,201,258,259,-1,201,259,203,-1,203,259,260,-1,203,260,205,-1,205,260,261,-1,205,261,207,-1,207,261,262,-1,207,262,209,-1,209,262,263,-1,209,263,211,-1,211,263,264,-1,211,264,213,-1,213,264,265,-1,213,265,215,-1,215,265,266,-1,215,266,217,-1,217,266,267,-1,217,267,219,-1,219,267,268,-1,219,268,221,-1,221,268,269,-1,221,269,223,-1,223,269,270,-1,223,270,225,-1,225,270,271,-1,225,271,227,-1,227,271,272,-1,227,272,229,-1,229,272,273,-1,229,273,231,-1,231,273,274,-1,231,274,233,-1,233,274,275,-1,233,275,235,-1,235,275,276,-1,235,276,237,-1,237,276,277,-1,237,277,239,-1,239,277,278,-1,239,278,241,-1,241,278,279,-1,241,279,243,-1,243,279,280,-1,243,280,245,-1,245,280,281,-1,245,281,247,-1,247,281,282,-1,247,282,249,-1,249,282,283,-1,249,283,251,-1,251,283,284,-1,251,284,253,-1,253,284,285,-1,253,285,255,-1,255,285,286,-1,255,286,257,-1,257,286,258,-1,286,287,258,-1,258,287,288,-1,258,288,259,-1,259,288,289,-1,259,289,260,-1,260,289,290,-1,260,290,261,-1,261,290,291,-1,261,291,262,-1,262,291,292,-1,262,292,263,-1,263,292,293,-1,263,293,264,-1,264,293,294,-1,264,294,265,-1,265,294,295,-1,265,295,266,-1,266,295,296,-1,266,296,267,-1,267,296,297,-1,267,297,268,-1,268,297,298,-1,268,298,269,-1,269,298,299,-1,269,299,270,-1,270,299,300,-1,270,300,271,-1,271,300,301,-1,271,301,272,-1,272,301,302,-1,272,302,273,-1,273,302,303,-1,273,303,274,-1,274,303,304,-1,274,304,275,-1,275,304,305,-1,275,305,276,-1,276,305,306,-1,276,306,277,-1,277,306,307,-1,277,307,278,-1,278,307,308,-1,278,308,279,-1,279,308,309,-1,279,309,280,-1,280,309,310,-1,280,310,281,-1,281,310,311,-1,281,311,282,-1,282,311,312,-1,282,312,283,-1,283,312,313,-1,283,313,284,-1,284,313,314,-1,284,314,285,-1,285,314,315,-1,285,315,286,-1,286,315,287,-1,315,316,287,-1,287,316,317,-1,287,317,288,-1,288,317,318,-1,288,318,289,-1,289,318,319,-1,289,319,290,-1,290,319,320,-1,290,320,291,-1,291,320,321,-1,291,321,292,-1,292,321,322,-1,292,322,293,-1,293,322,323,-1,293,323,294,-1,294,323,324,-1,294,324,295,-1,295,324,325,-1,295,325,296,-1,296,325,326,-1,296,326,297,-1,297,326,327,-1,297,327,298,-1,298,327,328,-1,298,328,299,-1,299,328,329,-1,299,329,300,-1,300,329,330,-1,300,330,301,-1,301,330,331,-1,301,331,302,-1,302,331,332,-1,302,332,303,-1,303,332,333,-1,303,333,304,-1,304,333,334,-1,304,334,305,-1,305,334,335,-1,305,335,306,-1,306,335,336,-1,306,336,307,-1,307,336,337,-1,307,337,308,-1,308,337,338,-1,308,338,309,-1,309,338,339,-1,309,339,310,-1,310,339,340,-1,310,340,311,-1,311,340,341,-1,311,341,312,-1,312,341,342,-1,312,342,313,-1,313,342,343,-1,313,343,314,-1,314,343,344,-1,314,344,315,-1,315,344,316,-1,344,345,316,-1,316,345,346,-1,316,346,317,-1,317,346,347,-1,317,347,318,-1,318,347,348,-1,318,348,319,-1,319,348,349,-1,319,349,320,-1,320,349,350,-1,320,350,321,-1,321,350,351,-1,321,351,322,-1,322,351,352,-1,322,352,323,-1,323,352,353,-1,323,353,324,-1,324,353,354,-1,324,354,325,-1,325,354,355,-1,325,355,326,-1,326,355,356,-1,326,356,327,-1,327,356,357,-1,327,357,328,-1,328,357,358,-1,328,358,329,-1,329,358,359,-1,329,359,330,-1,330,359,360,-1,330,360,331,-1,331,360,361,-1,331,361,332,-1,332,361,362,-1,332,362,333,-1,333,362,363,-1,333,363,334,-1,334,363,364,-1,334,364,335,-1,335,364,365,-1,335,365,336,-1,336,365,366,-1,336,366,337,-1,337,366,367,-1,337,367,338,-1,338,367,368,-1,338,368,339,-1,339,368,369,-1,339,369,340,-1,340,369,370,-1,340,370,341,-1,341,370,371,-1,341,371,342,-1,342,371,372,-1,342,372,343,-1,343,372,373,-1,343,373,344,-1,344,373,345,-1,373,374,345,-1,345,374,375,-1,345,375,346,-1,346,375,376,-1,346,376,347,-1,347,376,377,-1,347,377,348,-1,348,377,378,-1,348,378,349,-1,349,378,379,-1,349,379,350,-1,350,379,380,-1,350,380,351,-1,351,380,381,-1,351,381,352,-1,352,381,382,-1,352,382,353,-1,353,382,383,-1,353,383,354,-1,354,383,384,-1,354,384,355,-1,355,384,385,-1,355,385,356,-1,356,385,386,-1,356,386,357,-1,357,386,387,-1,357,387,358,-1,358,387,388,-1,358,388,359,-1,359,388,389,-1,359,389,360,-1,360,389,390,-1,360,390,361,-1,361,390,391,-1,361,391,362,-1,362,391,392,-1,362,392,363,-1,363,392,393,-1,363,393,364,-1,364,393,394,-1,364,394,365,-1,365,394,395,-1,365,395,366,-1,366,395,396,-1,366,396,367,-1,367,396,397,-1,367,397,368,-1,368,397,398,-1,368,398,369,-1,369,398,399,-1,369,399,370,-1,370,399,400,-1,370,400,371,-1,371,400,401,-1,371,401,372,-1,372,401,402,-1,372,402,373,-1,373,402,374,-1,
        ]
    }
}
Shape{
    appearance Appearance {
        material  Material 	{
            diffuseColor 1.0 1.0 1.0
            specularColor 0.5019607843137255 0.5019607843137255 0.5019607843137255
            ambientIntensity 0.2
            transparency 0
            shininess 0.5
        }
    }
    geometry IndexedFaceSet {
        ccw TRUE
        solid FALSE
        coord DEF co Coordinate {
            point [
                -0.0787 -0.1974 0.0004, -0.0941 -0.2368 0.0004, -0.0787 -0.1974 0.0, -0.0941 -0.2368 0.0, -0.0883 -0.2368 0.0004, -0.0883 -0.2368 0.0, -0.0844 -0.2258 0.0004, -0.0844 -0.2258 0.0, -0.0681 -0.2258 0.0004, -0.0681 -0.2258 0.0, -0.0643 -0.2368 0.0004, -0.0643 -0.2368 0.0, -0.0586 -0.2368 0.0004, -0.0586 -0.2368 0.0, -0.0735 -0.1974 0.0004, -0.0735 -0.1974 0.0, -0.0694 -0.2214 0.0004, -0.0826 -0.2214 0.0004, -0.0753 -0.205 0.0004, -0.0757 -0.2036 0.0004, -0.0759 -0.2022 0.0004, -0.076 -0.2022 0.0004, -0.0763 -0.2036 0.0004, -0.0767 -0.205 0.0004, -0.0694 -0.2214 0.0, -0.0826 -0.2214 0.0, -0.0753 -0.205 -0.0, -0.0757 -0.2036 -0.0, -0.0759 -0.2022 0.0, -0.076 -0.2022 0.0, -0.0763 -0.2036 0.0, -0.0767 -0.205 0.0, -0.0347 -0.2368 0.0004, -0.024 -0.2368 0.0004, -0.0347 -0.2368 0.0, -0.024 -0.2368 0.0, -0.024 -0.1974 0.0004, -0.024 -0.1974 0.0, -0.0351 -0.1974 0.0004, -0.0351 -0.1974 0.0, -0.0557 -0.2166 0.0004, -0.0557 -0.2166 0.0, -0.0554 -0.2129 0.0, -0.0554 -0.2129 0.0004, -0.0543 -0.209 0.0, -0.0543 -0.209 0.0004, -0.0525 -0.2057 0.0, -0.0525 -0.2057 0.0004, -0.0497 -0.2026 0.0, -0.0497 -0.2026 0.0004, -0.0497 -0.2025 0.0, -0.0497 -0.2025 0.0004, -0.0454 -0.1997 0.0, -0.0454 -0.1997 0.0004, -0.0408 -0.198 0.0, -0.0408 -0.198 0.0004, -0.0396 -0.2364 0.0, -0.0396 -0.2364 0.0004, -0.0441 -0.235 0.0, -0.0441 -0.235 0.0004, -0.0482 -0.2326 0.0, -0.0482 -0.2326 0.0004, -0.0515 -0.2295 0.0, -0.0515 -0.2295 0.0004, -0.0537 -0.226 0.0, -0.0537 -0.226 0.0004, -0.0551 -0.2219 0.0, -0.0551 -0.2219 0.0004, -0.0478 -0.2073 0.0004, -0.0459 -0.2053 0.0004, -0.043 -0.2034 0.0004, -0.0397 -0.2023 0.0004, -0.0351 -0.2018 0.0004, -0.0293 -0.2018 0.0004, -0.0293 -0.2325 0.0004, -0.0349 -0.2325 0.0004, -0.039 -0.2321 0.0004, -0.0423 -0.2311 0.0004, -0.045 -0.2295 0.0004, -0.0472 -0.2273 0.0004, -0.0489 -0.2246 0.0004, -0.05 -0.2209 0.0004, -0.0504 -0.2167 0.0004, -0.0501 -0.2128 0.0004, -0.0492 -0.2097 0.0004, -0.0351 -0.2018 0.0, -0.0293 -0.2018 0.0, -0.0397 -0.2023 0.0, -0.043 -0.2034 -0.0, -0.0459 -0.2053 0.0, -0.0478 -0.2073 0.0, -0.0492 -0.2097 0.0, -0.0501 -0.2128 0.0, -0.0504 -0.2167 0.0, -0.05 -0.2209 0.0, -0.0489 -0.2246 0.0, -0.0472 -0.2273 0.0, -0.045 -0.2295 0.0, -0.0423 -0.2311 0.0, -0.039 -0.2321 0.0, -0.0349 -0.2325 0.0, -0.0293 -0.2325 0.0, -0.0163 -0.2325 0.0004, -0.0163 -0.2368 0.0004, -0.0163 -0.2325 0.0, -0.0163 -0.2368 0.0, 0.0048 -0.2368 0.0004, 0.0048 -0.2368 0.0, 0.0048 -0.1974 0.0004, 0.0048 -0.1974 0.0, -0.0154 -0.1974 0.0004, -0.0154 -0.1974 0.0, -0.0154 -0.2018 0.0004, -0.0154 -0.2018 0.0, -0.0005 -0.2018 0.0004, -0.0005 -0.2018 0.0, -0.0005 -0.2147 0.0004, -0.0005 -0.2147 0.0, -0.0144 -0.2147 0.0004, -0.0144 -0.2147 0.0, -0.0144 -0.219 0.0004, -0.0144 -0.219 0.0, -0.0005 -0.219 0.0004, -0.0005 -0.219 0.0, -0.0005 -0.2325 0.0004, -0.0005 -0.2325 0.0, 0.0125 -0.2304 0.0004, 0.0125 -0.2348 0.0004, 0.0125 -0.2304 0.0, 0.0125 -0.2348 0.0, 0.0167 -0.2365 0.0004, 0.0233 -0.2373 0.0004, 0.0233 -0.2373 0.0, 0.0222 -0.2373 0.0, 0.0222 -0.2373 0.0004, 0.0207 -0.237 0.0, 0.0167 -0.2365 0.0, 0.0256 -0.237 0.0, 0.0282 -0.2368 0.0004, 0.0282 -0.2368 0.0, 0.032 -0.2355 0.0004, 0.032 -0.2355 0.0, 0.0352 -0.2335 0.0004, 0.0352 -0.2335 0.0, 0.0381 -0.2303 0.0004, 0.0381 -0.2303 0.0, 0.0402 -0.2266 0.0004, 0.0402 -0.2266 0.0, 0.0414 -0.2224 0.0004, 0.0414 -0.2224 0.0, 0.0418 -0.2179 0.0004, 0.0418 -0.2179 0.0, 0.0218 -0.197 0.0004, 0.0218 -0.197 0.0, 0.0257 -0.1973 0.0, 0.0257 -0.1973 0.0004, 0.0301 -0.1986 0.0, 0.0301 -0.1986 0.0004, 0.0338 -0.2007 0.0, 0.0338 -0.2007 0.0004, 0.0374 -0.2041 0.0, 0.0374 -0.2041 0.0004, 0.0397 -0.2078 0.0, 0.0397 -0.2078 0.0004, 0.0412 -0.2123 0.0, 0.0412 -0.2123 0.0004, 0.0125 -0.1985 0.0004, 0.0125 -0.1985 0.0, 0.017 -0.1973 0.0, 0.017 -0.1973 0.0004, 0.0125 -0.2038 0.0004, 0.0125 -0.2038 0.0, 0.0217 -0.2013 0.0004, 0.0217 -0.2013 0.0, 0.0169 -0.2019 0.0, 0.0169 -0.2019 0.0004, 0.0365 -0.2175 0.0004, 0.0365 -0.2175 0.0, 0.0363 -0.2145 0.0, 0.0363 -0.2145 0.0004, 0.0353 -0.2103 0.0, 0.0353 -0.2103 0.0004, 0.0336 -0.2072 0.0, 0.0336 -0.2072 0.0004, 0.0313 -0.2046 0.0, 0.0313 -0.2046 0.0004, 0.0285 -0.2028 0.0, 0.0285 -0.2028 0.0004, 0.0256 -0.2017 0.0, 0.0256 -0.2017 0.0004, 0.0226 -0.233 0.0004, 0.0226 -0.233 0.0, 0.0263 -0.2326 0.0, 0.0263 -0.2326 0.0004, 0.0291 -0.2315 0.0, 0.0291 -0.2315 0.0004, 0.0316 -0.2299 0.0, 0.0316 -0.2299 0.0004, 0.0334 -0.2279 0.0, 0.0334 -0.2279 0.0004, 0.035 -0.2252 0.0, 0.035 -0.2252 0.0004, 0.0361 -0.2218 0.0, 0.0361 -0.2218 0.0004, 0.0132 -0.2308 0.0, 0.0132 -0.2308 0.0004, 0.0174 -0.2324 0.0, 0.0174 -0.2324 0.0004, 0.0451 -0.2325 0.0004, 0.0451 -0.2368 0.0004, 0.0451 -0.2325 0.0, 0.0451 -0.2368 0.0, 0.0653 -0.2368 0.0004, 0.0653 -0.2368 0.0, 0.0653 -0.1974 0.0004, 0.0653 -0.1974 0.0, 0.06 -0.1974 0.0004, 0.06 -0.1974 0.0, 0.06 -0.2325 0.0004, 0.06 -0.2325 0.0, 0.06 -0.2325 0.0
            ]
        }
        coordIndex [
            0,1,2,-1,2,1,3,-1,1,4,3,-1,3,4,5,-1,4,6,5,-1,5,6,7,-1,6,8,7,-1,7,8,9,-1,8,10,9,-1,9,10,11,-1,10,12,11,-1,11,12,13,-1,12,14,13,-1,13,14,15,-1,14,0,15,-1,15,0,2,-1,16,8,17,-1,17,8,6,-1,18,14,16,-1,16,14,12,-1,16,12,8,-1,8,12,10,-1,18,19,14,-1,14,19,20,-1,14,20,0,-1,0,20,21,-1,0,21,22,-1,22,23,0,-1,0,23,17,-1,0,17,1,-1,1,17,6,-1,1,6,4,-1,16,17,24,-1,24,17,25,-1,18,16,26,-1,26,16,24,-1,18,26,27,-1,18,27,19,-1,19,27,28,-1,19,28,20,-1,21,20,29,-1,29,20,28,-1,21,29,30,-1,21,30,22,-1,22,30,31,-1,22,31,23,-1,17,23,25,-1,25,23,31,-1,32,33,34,-1,34,33,35,-1,33,36,35,-1,35,36,37,-1,36,38,37,-1,37,38,39,-1,40,41,42,-1,40,42,43,-1,43,42,44,-1,43,44,45,-1,45,44,46,-1,45,46,47,-1,47,46,48,-1,47,48,49,-1,49,48,50,-1,49,50,51,-1,51,50,52,-1,51,52,53,-1,53,52,54,-1,53,54,55,-1,55,54,39,-1,55,39,38,-1,32,34,56,-1,32,56,57,-1,57,56,58,-1,57,58,59,-1,59,58,60,-1,59,60,61,-1,61,60,62,-1,61,62,63,-1,63,62,64,-1,63,64,65,-1,65,64,66,-1,65,66,67,-1,67,66,41,-1,67,41,40,-1,45,47,68,-1,68,47,49,-1,68,49,69,-1,69,49,51,-1,69,51,70,-1,70,51,53,-1,70,53,71,-1,71,53,55,-1,71,55,72,-1,72,55,38,-1,72,38,73,-1,73,38,36,-1,73,36,74,-1,74,36,33,-1,74,33,75,-1,75,33,32,-1,75,32,76,-1,76,32,57,-1,76,57,77,-1,77,57,59,-1,77,59,78,-1,78,59,61,-1,78,61,79,-1,79,61,63,-1,79,63,80,-1,80,63,65,-1,80,65,81,-1,81,65,67,-1,81,67,82,-1,82,67,40,-1,82,40,83,-1,83,40,43,-1,83,43,84,-1,84,43,45,-1,84,45,68,-1,72,73,85,-1,85,73,86,-1,72,85,87,-1,72,87,71,-1,71,87,88,-1,71,88,70,-1,70,88,89,-1,70,89,69,-1,69,89,90,-1,69,90,68,-1,68,90,91,-1,68,91,84,-1,84,91,92,-1,84,92,83,-1,83,92,93,-1,83,93,82,-1,82,93,94,-1,82,94,81,-1,81,94,95,-1,81,95,80,-1,80,95,96,-1,80,96,79,-1,79,96,97,-1,79,97,78,-1,78,97,98,-1,78,98,77,-1,77,98,99,-1,77,99,76,-1,76,99,100,-1,76,100,75,-1,74,75,101,-1,101,75,100,-1,73,74,86,-1,86,74,101,-1,102,103,104,-1,104,103,105,-1,103,106,105,-1,105,106,107,-1,106,108,107,-1,107,108,109,-1,108,110,109,-1,109,110,111,-1,110,112,111,-1,111,112,113,-1,112,114,113,-1,113,114,115,-1,114,116,115,-1,115,116,117,-1,116,118,117,-1,117,118,119,-1,118,120,119,-1,119,120,121,-1,120,122,121,-1,121,122,123,-1,122,124,123,-1,123,124,125,-1,124,102,125,-1,125,102,104,-1,106,103,102,-1,102,124,106,-1,106,124,122,-1,106,122,108,-1,112,110,114,-1,114,110,108,-1,114,108,116,-1,116,108,122,-1,116,122,118,-1,118,122,120,-1,126,127,128,-1,128,127,129,-1,129,127,130,-1,131,132,133,-1,131,133,134,-1,134,133,135,-1,134,135,130,-1,130,135,136,-1,130,136,129,-1,132,131,137,-1,137,131,138,-1,137,138,139,-1,139,138,140,-1,139,140,141,-1,141,140,142,-1,141,142,143,-1,143,142,144,-1,143,144,145,-1,145,144,146,-1,145,146,147,-1,147,146,148,-1,147,148,149,-1,149,148,150,-1,149,150,151,-1,152,153,154,-1,152,154,155,-1,155,154,156,-1,155,156,157,-1,157,156,158,-1,157,158,159,-1,159,158,160,-1,159,160,161,-1,161,160,162,-1,161,162,163,-1,163,162,164,-1,163,164,165,-1,165,164,151,-1,165,151,150,-1,166,167,168,-1,166,168,169,-1,169,168,153,-1,169,153,152,-1,166,170,167,-1,167,170,171,-1,172,173,174,-1,172,174,175,-1,175,174,171,-1,175,171,170,-1,176,177,178,-1,176,178,179,-1,179,178,180,-1,179,180,181,-1,181,180,182,-1,181,182,183,-1,183,182,184,-1,183,184,185,-1,185,184,186,-1,185,186,187,-1,187,186,188,-1,187,188,189,-1,189,188,173,-1,189,173,172,-1,190,191,192,-1,190,192,193,-1,193,192,194,-1,193,194,195,-1,195,194,196,-1,195,196,197,-1,197,196,198,-1,197,198,199,-1,199,198,200,-1,199,200,201,-1,201,200,202,-1,201,202,203,-1,203,202,177,-1,203,177,176,-1,126,128,204,-1,126,204,205,-1,205,204,206,-1,205,206,207,-1,207,206,191,-1,207,191,190,-1,193,131,190,-1,190,131,134,-1,190,134,207,-1,207,134,130,-1,207,130,205,-1,205,130,127,-1,205,127,126,-1,170,166,175,-1,175,166,169,-1,175,169,172,-1,172,169,152,-1,172,152,189,-1,189,152,155,-1,189,155,187,-1,187,155,157,-1,187,157,185,-1,185,157,159,-1,185,159,183,-1,183,159,161,-1,183,161,181,-1,181,161,163,-1,181,163,179,-1,179,163,165,-1,179,165,176,-1,176,165,150,-1,176,150,203,-1,203,150,148,-1,203,148,201,-1,201,148,146,-1,201,146,199,-1,199,146,144,-1,199,144,197,-1,197,144,142,-1,197,142,195,-1,195,142,140,-1,195,140,193,-1,193,140,138,-1,193,138,131,-1,208,209,210,-1,210,209,211,-1,209,212,211,-1,211,212,213,-1,212,214,213,-1,213,214,215,-1,214,216,215,-1,215,216,217,-1,216,218,217,-1,217,218,219,-1,218,208,219,-1,219,208,210,-1,216,214,218,-1,218,214,212,-1,218,212,208,-1,208,212,209,-1,
        ]
    }
}
Shape{
    appearance Appearance {
        material  Material 	{
            diffuseColor 0.5019607843137255 0.5019607843137255 0.5019607843137255
            specularColor 0.25098039215686274 0.25098039215686274 0.25098039215686274
            ambientIntensity 0.2
            transparency 0
            shininess 0.5
        }
    }
    geometry IndexedFaceSet {
        ccw TRUE
        solid FALSE
        coord DEF co Coordinate {
            point [
                -0.0694 -0.2214 0.0, -0.0826 -0.2214 0.0, -0.0753 -0.205 -0.0, -0.0767 -0.205 0.0, -0.0757 -0.2036 -0.0, -0.0763 -0.2036 0.0, -0.0759 -0.2022 0.0, -0.076 -0.2022 0.0, -0.0293 -0.2018 0.0, -0.0293 -0.2325 0.0, -0.0351 -0.2018 0.0, -0.0349 -0.2325 0.0, -0.039 -0.2321 0.0, -0.0504 -0.2167 0.0, -0.0501 -0.2128 0.0, -0.0492 -0.2097 0.0, -0.0397 -0.2023 0.0, -0.0423 -0.2311 0.0, -0.045 -0.2295 0.0, -0.0472 -0.2273 0.0, -0.0489 -0.2246 0.0, -0.05 -0.2209 0.0, -0.0478 -0.2073 0.0, -0.0459 -0.2053 0.0, -0.043 -0.2034 -0.0, -0.043 -0.2034 -0.0
            ]
        }
        coordIndex [
            0,1,2,-1,2,1,3,-1,2,3,4,-1,4,3,5,-1,4,5,6,-1,6,5,7,-1,8,9,10,-1,10,9,11,-1,10,11,12,-1,13,14,10,-1,10,14,15,-1,10,15,16,-1,12,17,10,-1,10,17,18,-1,10,18,19,-1,19,20,10,-1,10,20,21,-1,10,21,13,-1,22,23,15,-1,15,23,24,-1,15,24,16,-1,
        ]
    }
}